<svg width="120" height="120" viewBox="0 0 120 120" fill="none" xmlns="http://www.w3.org/2000/svg">
<g clip-path="url(#clip0)">
<path d="M95.6069 108.083H24.3936V80.8209H20.8779V111.598H99.1226V80.8209H95.6069V108.083Z" fill="#FC996A"/>
<path d="M26.502 102.229H40.0005V105.744H26.502V102.229Z" fill="#FC996A"/>
<path d="M99.1223 36.3638V19.9869H52.9202V23.5025H95.6067V36.3638H94.238V39.8795H95.6067V57.9987H92.0023V53.681H94.6326V42.356H91.3083V34.5227H72.8201V26.6904H49.1721C49.7031 25.2374 49.9933 23.6691 49.9933 22.0349C49.9933 14.5377 43.8931 8.4375 36.3959 8.4375C28.8986 8.4375 22.7985 14.5367 22.7985 22.0349C22.7985 29.5322 28.8986 35.6314 36.3959 35.6314C41.8817 35.6314 46.6196 32.3657 48.7665 27.6764V34.5227H46.7166V42.356H29.5038V50.1654H26.8726V57.9987H24.3933V39.8795H43.7869V36.3638H24.3933V31.1792H20.8777V36.3638H0V61.5143H20.8777V77.8912H99.1223V61.5143H120V36.3638H99.1223ZM36.3959 32.1158C30.8368 32.1158 26.3141 27.594 26.3141 22.0349C26.3141 16.4758 30.8368 11.9531 36.3959 11.9531C41.955 11.9531 46.4777 16.4758 46.4777 22.0349C46.4777 27.594 41.955 32.1158 36.3959 32.1158ZM83.3844 55.8398V57.9987H81.7648V55.8398H78.2492V57.9987H76.6306V55.8398H73.1149V57.9987H71.4642V53.681H88.4866V57.9987H86.9V55.8398H83.3844ZM62.8464 55.8398V57.9987H61.2277V55.8398H57.7121V57.9987H56.0925V55.8398H52.5769V57.9987H50.9271V53.681H67.9486V57.9987H66.362V55.8398H62.8464ZM50.2322 38.0383H67.2546V42.356H65.636V40.1971H62.1204V42.356H60.5008V40.1971H56.9852V42.356H55.3665V40.1971H51.8509V42.356H50.2322V38.0383ZM91.1169 45.8716V50.1654H89.4992V48.0185H85.9836V50.1654H84.3649V48.0185H80.8493V50.1654H79.2307V48.0185H75.715V50.1654H74.0955V45.8716H91.1169ZM70.5789 45.8716V50.1654H68.9612V48.0185H65.4456V50.1654H63.826V48.0185H60.3104V50.1654H58.6917V48.0185H55.1761V50.1654H53.5574V45.8716H70.5789ZM87.7927 38.0383V42.356H86.174V40.1971H82.6584V42.356H81.0388V40.1971H77.5232V42.356H75.9045V40.1971H72.3889V42.356H70.7703V38.0383H87.7927ZM52.2821 30.206H69.3045V34.5227H67.6859V32.3648H64.1702V34.5227H62.5516V32.3648H59.0359V34.5227H57.4173V32.3648H53.9017V34.5227H52.2821V30.206ZM33.0194 45.8716H50.0409V50.1654H48.4232V48.0185H44.9075V50.1654H43.288V48.0185H39.7723V50.1654H38.1537V48.0185H34.6381V50.1654H33.0194V45.8716ZM30.3882 53.681H47.4106V57.9987H45.824V55.8398H42.3083V57.9987H40.6888V55.8398H37.1732V57.9987H35.5545V55.8398H32.0389V57.9987H30.3891V53.681H30.3882ZM3.51562 57.9987V39.8795H20.8777V57.9987H3.51562ZM95.6067 74.3756H24.3933V61.5143H95.6067V74.3756ZM116.484 57.9987H99.1223V39.8795H116.484V57.9987Z" fill="#FC996A"/>
<path d="M31.8643 22.0349H28.3486C28.3486 26.4716 31.9586 30.0815 36.3961 30.0815V26.5659C33.8976 26.5659 31.8643 24.5334 31.8643 22.0349Z" fill="#FC996A"/>
<path d="M42.9302 81.1313H46.4458V102.616H42.9302V81.1313Z" fill="#FC996A"/>
<path d="M63.3986 88.3585V84.1534L60.3764 81.1313H51.8181L48.7959 84.1534V99.5938L51.8181 102.616H60.3764L63.3986 99.5938V95.3897H59.8829V98.1381L58.9207 99.1003H53.2737L52.3115 98.1381V85.61L53.2737 84.6469H58.9207L59.8829 85.61V88.3585H63.3986Z" fill="#FC996A"/>
<path d="M80.3512 99.5938V84.1534L77.329 81.1313H68.7707L65.7485 84.1534V99.5938L68.7707 102.616H77.329L80.3512 99.5938ZM76.8356 98.1381L75.8734 99.1003H70.2273L69.2642 98.1381V85.61L70.2273 84.6469H75.8734L76.8356 85.61V98.1381Z" fill="#FC996A"/>
<path d="M91.5051 72.0319H71.7188V68.5162H91.5051V72.0319ZM69.375 72.0319H65.8594V68.5162H69.375V72.0319ZM63.5156 72.0319H60V68.5162H63.5156V72.0319Z" fill="#FC996A"/>
<path d="M42.1162 27.7551L39.6306 25.2686C40.4939 24.4052 40.97 23.2562 40.97 22.0349C40.97 21.2585 40.7731 20.4932 40.3987 19.8193L43.4739 18.1146C44.1359 19.3094 44.4856 20.6644 44.4856 22.0349C44.4856 24.1956 43.6442 26.2271 42.1162 27.7551ZM33.1614 18.8004L30.6758 16.3147C31.7442 15.2463 33.0845 14.5001 34.5503 14.1577L35.3505 17.5809C34.5228 17.774 33.7666 18.1961 33.1614 18.8004ZM39.3239 18.5202C38.6711 17.9745 37.8792 17.623 37.035 17.5049L37.5221 14.024C39.0181 14.2328 40.4197 14.8553 41.5779 15.8221L39.3239 18.5202Z" fill="#FC996A"/>
</g>
<defs>
<clipPath id="clip0">
<rect width="120" height="120" fill="white"/>
</clipPath>
</defs>
</svg>
