<svg width="130" height="51" viewBox="0 0 130 51" fill="none" xmlns="http://www.w3.org/2000/svg">
<g clip-path="url(#clip0)">
<path d="M20.3018 13.8774H26.9511V26.8434H20.3018V13.8774Z" fill="#FF0000"/>
<path fill-rule="evenodd" clip-rule="evenodd" d="M17.6415 19.5265C16.5302 20.3613 15.1488 20.8559 13.6519 20.8559C9.97969 20.8559 7.00275 17.8789 7.00275 14.2066C7.00275 10.5344 9.97969 7.55744 13.6519 7.55744C17.2127 7.55744 20.1198 10.3564 20.293 13.8742H20.3012V14.2066V25.726C24.2761 23.4266 26.9505 19.129 26.9505 14.2066C26.9505 6.86212 20.9965 0.908203 13.6519 0.908203C6.30744 0.908203 0.353516 6.86212 0.353516 14.2066C0.353516 21.5512 6.30744 27.5052 13.6519 27.5052C15.042 27.5052 16.3821 27.2918 17.6415 26.8963V19.5265Z" fill="#FF0000"/>
<path d="M123.031 13.8774H129.68V26.8434H123.031V13.8774Z" fill="#FF0000"/>
<path fill-rule="evenodd" clip-rule="evenodd" d="M120.372 19.5265C119.26 20.3613 117.879 20.8559 116.382 20.8559C112.71 20.8559 109.733 17.8789 109.733 14.2066C109.733 10.5344 112.71 7.55744 116.382 7.55744C119.943 7.55744 122.85 10.3564 123.024 13.8742H123.032V14.2066V25.726C127.006 23.4266 129.681 19.129 129.681 14.2066C129.681 6.86212 123.727 0.908203 116.382 0.908203C109.038 0.908203 103.084 6.86212 103.084 14.2066C103.084 21.5512 109.038 27.5052 116.382 27.5052C117.772 27.5052 119.113 27.2918 120.372 26.8963V19.5265Z" fill="#FF0000"/>
<path d="M94.1085 13.8774H87.4595V26.8434H94.1085V13.8774Z" fill="#FF0000"/>
<path fill-rule="evenodd" clip-rule="evenodd" d="M100.757 7.5577C97.1964 7.5577 94.2889 10.3568 94.116 13.8748H94.1079V14.2013V14.2072V14.2131V25.7271C90.1327 23.4276 87.458 19.1297 87.458 14.2072C87.458 6.86237 93.4119 0.908203 100.757 0.908203C102.624 0.908203 104.402 1.29309 106.014 1.98785L100.895 7.55911C100.849 7.55817 100.803 7.5577 100.757 7.5577Z" fill="#FF0000"/>
<path fill-rule="evenodd" clip-rule="evenodd" d="M42.7425 8.55988C38.9785 8.55988 35.927 11.6112 35.927 15.3753C35.927 19.1394 38.9785 22.1908 42.7425 22.1908C44.468 22.1908 46.0437 21.5496 47.2444 20.4924L47.2322 20.48L47.9252 19.8016C48.0225 19.6877 48.1163 19.5705 48.2061 19.4504L55.8028 12.0873L55.8033 12.0894L56.0621 11.836L58.6288 9.34833L58.6164 9.33548L61.743 6.27468C62.0704 5.91793 62.4167 5.57888 62.7804 5.25913L63.0242 5.02053L63.04 5.03669C65.3763 3.0851 68.3843 1.91064 71.6666 1.91064C79.103 1.91064 85.131 7.93899 85.131 15.3753C85.131 22.8117 79.103 28.84 71.6666 28.84C66.3889 28.84 61.8203 25.8035 59.6127 21.3821L64.9072 16.2531C65.3378 19.6026 68.2 22.1908 71.6666 22.1908C75.4307 22.1908 78.4821 19.1394 78.4821 15.3753C78.4821 11.6112 75.4307 8.55988 71.6666 8.55988C69.9966 8.55988 68.4669 9.16048 67.2817 10.1575L66.544 10.8798C66.4307 11.0088 66.3221 11.1422 66.2186 11.2795L58.6044 18.6559C58.6042 18.6549 58.6039 18.6539 58.6037 18.6529L58.2454 19.0036L56.1131 21.0694L56.1238 21.0805L52.7526 24.3808C50.288 27.1186 46.7163 28.84 42.7425 28.84C35.3062 28.84 29.2778 22.8117 29.2778 15.3753C29.2778 7.93899 35.3062 1.91064 42.7425 1.91064C48.0176 1.91064 52.5843 4.94421 54.7931 9.36199L49.5011 14.4911C49.0676 11.1448 46.207 8.55988 42.7425 8.55988Z" fill="#FF0000"/>
<path fill-rule="evenodd" clip-rule="evenodd" d="M47.1783 31.8677C48.0469 33.0116 48.5605 34.4331 48.5605 35.9834C48.5605 39.7476 45.5091 42.7992 41.745 42.7992C38.9926 42.7992 36.6149 41.1653 35.5402 38.8096H28.5781C28.6449 39.1217 28.7225 39.4301 28.8106 39.7343C30.4347 45.3429 35.6061 49.4486 41.745 49.4486C49.1814 49.4486 55.2097 43.42 55.2097 35.9834C55.2097 33.2832 54.4119 30.7624 53.0406 28.6523L47.1783 31.8677Z" fill="#FF0000"/>
</g>
<defs>
<clipPath id="clip0">
<rect width="129.328" height="49.3062" fill="white" transform="translate(0.353516 0.908203)"/>
</clipPath>
</defs>
</svg>
