<svg width="147" height="14" viewBox="0 0 147 14" fill="none" xmlns="http://www.w3.org/2000/svg">
<g clip-path="url(#clip0)">
<path d="M21.8123 13.2174H17.8153C15.199 13.2174 13.0914 11.11 13.0914 8.49366V5.25966C13.0914 2.64339 15.199 0.535849 17.8153 0.535849H21.8123C24.4286 0.535849 26.5361 2.64339 26.5361 5.25966V8.49366C26.5361 11.11 24.4286 13.2174 21.8123 13.2174ZM17.8153 3.44281C17.576 3.44038 17.3386 3.48572 17.1171 3.57616C16.8956 3.66661 16.6943 3.80034 16.5251 3.96954C16.356 4.13873 16.2222 4.33999 16.1317 4.56151C16.0413 4.78304 15.9959 5.02039 15.9984 5.25966V8.49366C15.9959 8.73291 16.0413 8.97031 16.1317 9.19178C16.2222 9.41334 16.356 9.6146 16.5251 9.78378C16.6943 9.95296 16.8956 10.0867 17.1171 10.1772C17.3386 10.2676 17.576 10.313 17.8153 10.3105H21.8123C22.0515 10.313 22.2889 10.2676 22.5105 10.1772C22.732 10.0867 22.9332 9.95296 23.1024 9.78378C23.2717 9.6146 23.4054 9.41334 23.4958 9.19178C23.5863 8.97031 23.6316 8.73291 23.6292 8.49366V5.25966C23.6316 5.02039 23.5863 4.78304 23.4958 4.56151C23.4054 4.33999 23.2717 4.13873 23.1024 3.96954C22.9332 3.80034 22.732 3.66661 22.5105 3.57616C22.2889 3.48572 22.0515 3.44038 21.8123 3.44281H17.8153ZM12.2557 13.2174H4.00718C3.57717 13.2194 3.15105 13.1361 2.75341 12.9724C2.35576 12.8088 1.99448 12.568 1.69041 12.2639C1.38635 11.9598 1.14554 11.5986 0.98187 11.2009C0.818201 10.8033 0.734925 10.3772 0.736849 9.94714V3.80618C0.734925 3.37618 0.818201 2.95005 0.98187 2.5524C1.14554 2.15476 1.38635 1.79347 1.69041 1.48942C1.99448 1.18535 2.35576 0.944537 2.75341 0.780869C3.15105 0.617201 3.57717 0.533925 4.00718 0.535849H12.2557V3.44281H4.00718C3.95863 3.4396 3.90996 3.4468 3.86441 3.46392C3.81887 3.48105 3.77751 3.5077 3.74311 3.54211C3.7087 3.57651 3.68204 3.61787 3.66492 3.66341C3.64779 3.70895 3.6406 3.75763 3.64381 3.80618V9.94714C3.6406 9.99572 3.64779 10.0444 3.66492 10.0899C3.68204 10.1355 3.7087 10.1768 3.74311 10.2112C3.77751 10.2456 3.81887 10.2722 3.86441 10.2894C3.90996 10.3065 3.95863 10.3137 4.00718 10.3105H12.2557V13.2174ZM27.917 0.499512H30.8239V13.2538H27.917V0.499512ZM35.4024 13.2538H32.4954V1.95299C32.4954 1.3716 32.8588 0.826545 33.4038 0.608523C33.9489 0.390501 34.5666 0.499512 35.0027 0.935556L42.3427 8.27563V0.499512H45.2497V11.7639C45.2497 12.3454 44.8864 12.8905 44.3412 13.1085C43.7962 13.3265 43.1785 13.2174 42.7424 12.7814L35.4024 5.47768V13.2538ZM95.3586 13.2538H92.4511V1.95299C92.4511 1.3716 92.8148 0.826545 93.3596 0.608523C93.9052 0.390501 94.5228 0.499512 94.9585 0.935556L102.299 8.27563V0.499512H105.206V11.7639C105.206 12.3454 104.842 12.8905 104.298 13.1085C103.752 13.3265 103.134 13.2174 102.699 12.7814L95.3586 5.44135V13.2538Z" fill="#444444"/>
<path d="M56.478 0.499512V5.405H49.8283V0.499512H46.9214V13.2538H49.8283V8.31197H56.478V13.2538H59.385V0.499512H56.478ZM72.1393 13.2174H67.1612C63.6728 13.2174 60.8385 10.3832 60.8385 6.89483V0.499512H63.7455V6.89483C63.745 7.34351 63.833 7.78789 64.0045 8.20252C64.176 8.61716 64.4276 8.99391 64.7448 9.31117C65.0621 9.62842 65.4388 9.87997 65.8534 10.0515C66.2681 10.2229 66.7125 10.311 67.1612 10.3105H70.6858V0.499512H73.5928V11.7639C73.5928 12.5634 72.9387 13.2174 72.1393 13.2174ZM84.6391 13.2174H76.6814C75.882 13.2174 75.228 12.5634 75.228 11.7639V1.98933C75.228 1.18992 75.882 0.535849 76.6814 0.535849H84.0579C85.4748 0.535849 86.6016 1.6623 86.6016 3.07944V3.95152C86.6016 4.78728 86.3834 5.55035 85.9477 6.20442C87.0373 7.00383 87.7639 8.27563 87.7639 9.76543V10.0925C87.8003 11.8003 86.3834 13.2174 84.6391 13.2174ZM78.1349 10.3105H84.6391C84.6956 10.3063 84.749 10.282 84.7886 10.242C84.829 10.202 84.8533 10.1489 84.8573 10.0925V9.76543C84.8573 8.96602 84.2034 8.31197 83.404 8.31197H79.1249V5.405H82.2408C83.0402 5.405 83.6942 4.75094 83.6942 3.95152V3.44281H78.1349V10.3105Z" fill="#00A2FF"/>
<path d="M109.385 10.3105C109.336 10.3137 109.287 10.3065 109.242 10.2894C109.196 10.2722 109.154 10.2456 109.12 10.2112C109.086 10.1768 109.059 10.1355 109.042 10.0899C109.025 10.0444 109.018 9.99572 109.021 9.94714V8.31197H116.106V5.405H109.021V3.44281H117.015V0.535849H107.568C106.768 0.535849 106.114 1.18992 106.114 1.98933V9.94714C106.112 10.3772 106.195 10.8033 106.359 11.2009C106.523 11.5986 106.763 11.9598 107.067 12.2639C107.372 12.568 107.733 12.8088 108.13 12.9724C108.528 13.1361 108.955 13.2194 109.385 13.2174H117.051V10.3105H109.385ZM130.278 13.2174C129.769 13.2174 129.297 12.9631 129.042 12.5271L125.663 6.89483L122.357 12.4907C122.208 12.7433 121.985 12.9445 121.719 13.0679C121.453 13.1912 121.156 13.2307 120.867 13.1811C120.285 13.0721 119.813 12.6361 119.668 12.0183L117.451 0.535849H120.395L121.775 7.69424L124.355 3.26113C124.61 2.82508 125.082 2.53438 125.591 2.53438C126.099 2.53438 126.572 2.78874 126.826 3.22478L129.515 7.69424L130.896 0.499512H133.839L131.659 11.982C131.602 12.2694 131.462 12.5334 131.255 12.7405C131.048 12.9475 130.784 13.0883 130.496 13.1448C130.424 13.2174 130.351 13.2174 130.278 13.2174ZM142.96 13.2174H134.348V10.3105H142.96C143.008 10.3137 143.057 10.3065 143.103 10.2894C143.148 10.2722 143.189 10.2456 143.224 10.2112C143.258 10.1768 143.285 10.1355 143.302 10.0899C143.319 10.0444 143.327 9.99572 143.323 9.94714V8.67536C143.327 8.62678 143.319 8.57811 143.302 8.53257C143.285 8.48703 143.258 8.44567 143.224 8.41127C143.189 8.37686 143.148 8.35021 143.103 8.33308C143.057 8.31595 143.008 8.30876 142.96 8.31197H137.473C137.043 8.31389 136.617 8.23062 136.219 8.06695C135.822 7.90328 135.46 7.66246 135.156 7.3584C134.852 7.05434 134.611 6.69305 134.448 6.29541C134.284 5.89777 134.2 5.47164 134.203 5.04164V3.80618C134.2 3.37618 134.284 2.95005 134.448 2.5524C134.611 2.15476 134.852 1.79347 135.156 1.48942C135.46 1.18535 135.822 0.944537 136.219 0.780869C136.617 0.617201 137.043 0.533925 137.473 0.535849H145.176V3.44281H137.473C137.425 3.4396 137.376 3.44679 137.33 3.46392C137.285 3.48105 137.243 3.5077 137.209 3.54211C137.175 3.57651 137.148 3.61787 137.13 3.66341C137.113 3.70895 137.106 3.75763 137.109 3.80618V5.04164C137.106 5.09019 137.113 5.13886 137.13 5.1844C137.148 5.22994 137.175 5.2713 137.209 5.30571C137.243 5.34012 137.285 5.36677 137.33 5.3839C137.376 5.40102 137.425 5.40822 137.473 5.405H142.96C143.39 5.40308 143.816 5.48636 144.213 5.65002C144.611 5.8137 144.972 6.05451 145.276 6.35858C145.58 6.66264 145.821 7.02392 145.985 7.42156C146.148 7.8192 146.232 8.24533 146.23 8.67536V9.94714C146.23 11.7639 144.74 13.2174 142.96 13.2174Z" fill="#444444"/>
<path d="M90.1257 13.254C90.7279 13.254 91.2161 12.7659 91.2161 12.1639C91.2161 11.5618 90.7279 11.0737 90.1257 11.0737C89.5243 11.0737 89.0361 11.5618 89.0361 12.1639C89.0361 12.7659 89.5243 13.254 90.1257 13.254Z" fill="#444444"/>
</g>
<defs>
<clipPath id="clip0">
<rect width="145.494" height="12.9328" fill="white" transform="translate(0.736816 0.499512)"/>
</clipPath>
</defs>
</svg>
