<svg width="146" height="21" viewBox="0 0 146 21" fill="none" xmlns="http://www.w3.org/2000/svg">
<g clip-path="url(#clip0)">
<path d="M39.102 14.656C39.2298 14.656 39.3575 14.6985 39.4426 14.8262L40.3791 15.8478C39.8682 16.4864 39.2298 16.9972 38.4636 17.3377C37.6974 17.6782 36.7609 17.8485 35.6967 17.8485C34.7177 17.8485 33.8664 17.6782 33.1001 17.3377C32.3339 16.9972 31.6955 16.5715 31.1421 15.9756C30.5887 15.3796 30.163 14.6985 29.9076 13.8898C29.6096 13.081 29.4819 12.1871 29.4819 11.2506C29.4819 10.2716 29.6522 9.37766 29.9502 8.56896C30.2481 7.76015 30.7164 7.07908 31.2697 6.48315C31.8232 5.88721 32.5042 5.46154 33.2704 5.121C34.0366 4.78048 34.9305 4.65277 35.867 4.65277C36.8035 4.65277 37.6548 4.82304 38.3785 5.121C39.102 5.41898 39.7406 5.84465 40.2514 6.35545L39.4426 7.46219C39.4001 7.54732 39.3149 7.58989 39.2724 7.63246C39.1872 7.67502 39.102 7.71759 38.9743 7.71759C38.8892 7.71759 38.8041 7.67502 38.6764 7.63246C38.5913 7.58989 38.4636 7.50476 38.3785 7.46219L37.9953 7.20678C37.8676 7.12165 37.6548 7.03652 37.4846 6.95139C37.2717 6.86625 37.0588 6.82368 36.8035 6.78112C36.5481 6.73855 36.2501 6.69598 35.9095 6.69598C35.3136 6.69598 34.8028 6.78112 34.3345 6.99395C33.8664 7.20678 33.4407 7.50476 33.1001 7.88786C32.7596 8.27096 32.5042 8.73919 32.2913 9.33514C32.1211 9.88851 31.9934 10.527 31.9934 11.2506C31.9934 11.9742 32.0785 12.6128 32.2913 13.2087C32.5042 13.7621 32.7596 14.2729 33.1427 14.656C33.4832 15.0391 33.9089 15.3371 34.3771 15.5499C34.8454 15.7627 35.3562 15.8478 35.9095 15.8478L36.8035 15.8053C37.0588 15.7627 37.3143 15.7201 37.5271 15.635C37.7399 15.5499 37.9527 15.4648 38.1656 15.3371C38.3841 15.2081 38.5845 15.0506 38.7615 14.8688C38.8041 14.8262 38.8892 14.7837 38.9318 14.7411C38.9318 14.656 39.0169 14.656 39.102 14.656ZM45.4445 8.39866C46.1256 8.39866 46.7215 8.52636 47.3175 8.73919C47.8709 8.95201 48.3391 9.29255 48.7648 9.67568C49.1904 10.0587 49.4458 10.5696 49.7013 11.1655C49.9141 11.7614 50.0418 12.4 50.0418 13.1236C50.0418 13.8472 49.9141 14.4857 49.7013 15.0817C49.5079 15.6437 49.1874 16.1536 48.7648 16.5715C48.3554 16.9841 47.8617 17.3036 47.3175 17.508C46.7641 17.7208 46.1256 17.8485 45.4445 17.8485C44.7634 17.8485 44.125 17.7208 43.5716 17.508C43.0182 17.2951 42.55 16.9546 42.1244 16.5715C41.6986 16.1884 41.4007 15.6776 41.1879 15.0817C40.975 14.4857 40.8473 13.8472 40.8473 13.1236C40.8473 12.4 40.975 11.7614 41.1879 11.1655C41.3811 10.6034 41.7016 10.0936 42.1244 9.67568C42.5338 9.26304 43.0274 8.94361 43.5716 8.73919C44.125 8.48377 44.7634 8.39866 45.4445 8.39866ZM45.4445 16.1459C46.2107 16.1459 46.7641 15.8904 47.1472 15.3796C47.5303 14.8688 47.7006 14.1026 47.7006 13.1236C47.7006 12.1445 47.5303 11.3784 47.1472 10.8675C46.7641 10.3568 46.2107 10.1013 45.4445 10.1013C44.6783 10.1013 44.0824 10.3568 43.7418 10.8675C43.3588 11.3784 43.1885 12.1445 43.1885 13.1236C43.1885 14.1026 43.3588 14.8688 43.7418 15.3796C44.0824 15.8904 44.6783 16.1459 45.4445 16.1459ZM54.1281 5.84464C54.1265 6.03622 54.083 6.22511 54.0005 6.39802C53.9153 6.56829 53.8302 6.69598 53.7025 6.82368C53.5748 6.95139 53.4046 7.03652 53.2342 7.12165C53.064 7.20678 52.8937 7.24935 52.6809 7.24935C52.4893 7.24772 52.3004 7.20414 52.1275 7.12165C51.9573 7.03652 51.8296 6.95139 51.7019 6.82368C51.5742 6.69598 51.489 6.56829 51.4039 6.39802C51.3187 6.22775 51.2762 6.05748 51.2762 5.84464C51.2762 5.63181 51.3187 5.46154 51.4039 5.29127C51.489 5.121 51.5742 4.95074 51.7019 4.86561C51.8296 4.7379 51.9573 4.65277 52.1275 4.56764C52.2978 4.48251 52.4681 4.43994 52.6809 4.43994C52.8937 4.43994 53.064 4.48251 53.2342 4.56764C53.4046 4.65277 53.5748 4.7379 53.7025 4.86561C53.8302 4.99331 53.9153 5.121 54.0005 5.29127C54.1281 5.46154 54.1281 5.67438 54.1281 5.84464ZM53.8302 8.52636V17.6782H51.6168V8.52636H53.8302ZM58.0443 9.67568C58.2146 9.50537 58.4274 9.33514 58.6403 9.16484C58.8531 8.99461 59.066 8.8669 59.2788 8.78178C59.4916 8.65407 59.747 8.56896 60.0024 8.52636C60.2578 8.48377 60.5558 8.44125 60.8537 8.44125C61.3646 8.44125 61.7902 8.52636 62.1733 8.69659C62.5564 8.8669 62.897 9.12232 63.1524 9.42026C63.4077 9.7182 63.6206 10.1013 63.7483 10.527C63.876 10.9527 63.9612 11.4209 63.9612 11.9317V17.7633H61.7476V11.8466C61.7476 11.2932 61.6199 10.8675 61.3646 10.527C61.1092 10.229 60.726 10.0587 60.1727 10.0587C59.8026 10.0573 59.4376 10.1449 59.1085 10.3142C58.7679 10.4845 58.47 10.7398 58.1721 11.0378V17.6782H55.9585V8.52636H57.3207C57.6187 8.52636 57.7889 8.65407 57.874 8.9095L58.0443 9.67568ZM80.1366 4.78047V17.7208H78.0082V9.33514L78.0508 8.27096L74.1346 15.5925C73.9643 15.933 73.6664 16.1033 73.2833 16.1033H72.9427C72.5597 16.1033 72.2616 15.933 72.0914 15.5925L68.1327 8.22839C68.1327 8.44125 68.1752 8.61148 68.1752 8.8243V17.6782H66.0469V4.78047H68.1752C68.2488 4.77385 68.3227 4.78863 68.3881 4.82304C68.4306 4.86561 68.5158 4.86561 68.5584 4.95074C68.601 4.99331 68.6435 5.07844 68.6861 5.16358L72.5597 12.3574L72.8576 12.9533L73.113 13.5918L73.3684 12.9533C73.4536 12.7405 73.5387 12.5702 73.6664 12.3574L77.4974 5.20614C77.54 5.121 77.5825 5.03587 77.6677 4.99331C77.7317 4.96146 77.7894 4.91819 77.8379 4.86561C77.8805 4.82304 77.9656 4.82304 78.0508 4.82304H80.1366V4.78047ZM82.1374 9.80339C83.2011 8.8243 84.4782 8.35609 85.9258 8.35609C86.4787 8.35609 86.9475 8.44125 87.3727 8.61148C87.7987 8.78178 88.139 9.03713 88.4372 9.33514C88.7347 9.63308 88.9481 10.0162 89.1178 10.4419C89.2884 10.8675 89.3312 11.3358 89.3312 11.8891V17.6782H88.3095C88.0969 17.6782 87.9264 17.6356 87.8415 17.5931C87.7138 17.5505 87.6281 17.4228 87.5861 17.21L87.3727 16.5289C87.1601 16.7417 86.9047 16.912 86.6921 17.0823C86.4787 17.2526 86.2233 17.3803 86.0107 17.4654C85.7981 17.5505 85.4999 17.6356 85.2444 17.7208C84.989 17.7633 84.6916 17.8059 84.3505 17.8059C83.9673 17.8059 83.5842 17.7633 83.2867 17.6356C82.9456 17.5505 82.6902 17.3803 82.4348 17.1675C82.1794 16.9546 82.0096 16.6992 81.8819 16.4012C81.7542 16.1033 81.6693 15.7201 81.6693 15.3371C81.6702 15.1042 81.713 14.8734 81.7971 14.656C81.8819 14.4432 82.0096 14.1878 82.1794 14.0175C82.3499 13.8472 82.5625 13.5918 82.8608 13.4216C83.159 13.2513 83.4993 13.081 83.8825 12.9533C84.3084 12.8256 84.7764 12.6979 85.2873 12.6128C85.8402 12.5277 86.4367 12.4851 87.1601 12.4425V11.8891C87.1601 11.2932 87.0324 10.825 86.777 10.527C86.5216 10.229 86.1384 10.1013 85.6276 10.1013C85.2873 10.1013 84.989 10.1439 84.7336 10.229C84.4782 10.3142 84.3084 10.3993 84.095 10.527C83.9253 10.6122 83.7548 10.7398 83.627 10.825C83.4993 10.9101 83.3288 10.9527 83.159 10.9527C82.9885 10.9527 82.8608 10.9101 82.7759 10.825C82.6902 10.7398 82.5625 10.6547 82.5205 10.527L82.1374 9.80339ZM87.1601 13.8046L85.5427 13.9749C85.1167 14.06 84.7764 14.1452 84.4782 14.2729C84.1807 14.4006 84.0102 14.5283 83.9253 14.6985C83.7976 14.8688 83.7548 15.0391 83.7548 15.252C83.7548 15.635 83.8825 15.933 84.095 16.1033C84.3084 16.2736 84.6059 16.3587 84.989 16.3587C85.457 16.3587 85.8402 16.2736 86.1813 16.1033C86.5216 15.933 86.8198 15.6776 87.1601 15.3371V13.8046ZM93.3751 10.1439C93.6726 9.59057 94.0137 9.16484 94.3968 8.8669C94.7799 8.56896 95.2479 8.39866 95.8008 8.39866C96.2268 8.39866 96.5671 8.48377 96.8225 8.69659L96.6948 10.3568C96.6528 10.4845 96.6099 10.527 96.5671 10.5696C96.525 10.6122 96.4394 10.6547 96.3545 10.6547C96.2696 10.6547 96.1419 10.6547 95.9714 10.6122C95.8008 10.5696 95.6311 10.5696 95.4605 10.5696C95.2051 10.5696 94.9925 10.6122 94.822 10.6973C94.6522 10.7824 94.4388 10.8675 94.3111 10.9952C94.1414 11.1229 94.0137 11.2932 93.928 11.4635C93.8003 11.6338 93.7154 11.8891 93.5877 12.1019V17.7633H91.3746V8.52636H92.6509C92.8643 8.52636 93.034 8.56896 93.1197 8.65407C93.2046 8.73919 93.2474 8.8669 93.2894 9.07972L93.3751 10.1439ZM100.058 4.43994V12.0594H100.483C100.611 12.0594 100.739 12.0594 100.824 12.0168C100.909 11.9742 100.994 11.8891 101.08 11.7614L103.378 8.95201C103.463 8.8243 103.591 8.73919 103.676 8.65407C103.804 8.56896 103.931 8.56896 104.144 8.56896H106.145L103.293 11.9742C103.08 12.2297 102.867 12.4425 102.612 12.5702C102.739 12.6553 102.867 12.783 102.953 12.8682C103.038 12.9533 103.165 13.1236 103.25 13.2513L106.315 17.7208H104.315C104.144 17.7208 103.974 17.6782 103.889 17.6356C103.761 17.5931 103.676 17.4654 103.591 17.3377L101.25 13.8472C101.165 13.7195 101.08 13.6344 100.994 13.5918C100.909 13.5493 100.782 13.5493 100.611 13.5493H100.1V17.7633H97.887V4.43994H100.058ZM108.528 13.379C108.571 13.8472 108.656 14.2729 108.784 14.6134C108.911 14.9539 109.082 15.252 109.295 15.4648C109.508 15.6776 109.763 15.8478 110.061 15.9756C110.359 16.1033 110.699 16.1459 111.04 16.1459C111.381 16.1459 111.721 16.1033 111.976 16.0181C112.232 15.933 112.444 15.8478 112.658 15.7201C112.87 15.635 113.041 15.5073 113.169 15.4222C113.296 15.3414 113.444 15.2971 113.594 15.2945C113.764 15.2945 113.935 15.3796 114.02 15.5073L114.658 16.3161C114.403 16.614 114.148 16.8269 113.849 17.0398C113.552 17.2526 113.211 17.3803 112.913 17.508C112.572 17.6356 112.232 17.7208 111.892 17.7633L110.913 17.8485C110.274 17.8485 109.678 17.7633 109.125 17.5505C108.581 17.3462 108.087 17.0267 107.677 16.6141C107.252 16.1884 106.954 15.6776 106.741 15.0817C106.528 14.4857 106.4 13.7621 106.4 12.9533C106.4 12.3148 106.486 11.7189 106.698 11.2081C106.911 10.6547 107.209 10.1864 107.549 9.7608C107.933 9.33515 108.401 9.03713 108.954 8.78178C109.508 8.52636 110.104 8.44125 110.785 8.44125C111.381 8.44125 111.892 8.52636 112.402 8.73919C112.87 8.9095 113.296 9.20743 113.68 9.54797C114.045 9.92092 114.322 10.3721 114.488 10.8675C114.701 11.3784 114.786 11.9742 114.786 12.6128C114.786 12.9533 114.743 13.1662 114.658 13.2939C114.574 13.4216 114.446 13.4641 114.232 13.4641H108.528V13.379ZM112.743 12.0594C112.743 11.7614 112.7 11.5061 112.615 11.2506C112.53 10.9952 112.402 10.7824 112.232 10.5696C112.061 10.3568 111.849 10.229 111.636 10.1013C111.381 9.97362 111.082 9.9311 110.785 9.9311C110.146 9.9311 109.636 10.1013 109.295 10.4845C108.911 10.8675 108.699 11.3784 108.614 12.0168H112.743V12.0594ZM119.255 17.8485C118.447 17.8485 117.851 17.6356 117.425 17.1675C116.999 16.6992 116.787 16.1033 116.787 15.2945V10.1864H115.85C115.722 10.1864 115.637 10.1439 115.552 10.0587C115.467 9.97362 115.425 9.84591 115.425 9.7182V8.8243L116.914 8.56896L117.382 6.05748C117.425 5.92978 117.468 5.84464 117.553 5.75951C117.638 5.67438 117.723 5.67438 117.893 5.67438H119.043V8.56896H121.512V10.1439H119.043V15.1243C119.043 15.4222 119.127 15.635 119.255 15.8053C119.383 15.9756 119.596 16.0607 119.852 16.0607C119.979 16.0607 120.107 16.0607 120.192 16.0181C120.277 15.9756 120.363 15.933 120.447 15.933C120.532 15.8904 120.575 15.8478 120.618 15.8478C120.66 15.8053 120.746 15.8053 120.788 15.8053C120.873 15.8053 120.915 15.8053 120.958 15.8478L121.086 15.9756L121.767 17.0398C121.426 17.2951 121.086 17.508 120.66 17.6356C120.149 17.7633 119.681 17.8485 119.255 17.8485ZM131.983 14.656C132.11 14.656 132.238 14.6985 132.324 14.8262L133.26 15.8478C132.749 16.4864 132.11 16.9972 131.345 17.3377C130.579 17.6782 129.642 17.8485 128.577 17.8485C127.598 17.8485 126.747 17.6782 125.981 17.3377C125.215 16.9972 124.576 16.5715 124.023 15.9756C123.47 15.3796 123.044 14.6985 122.788 13.8898C122.491 13.081 122.363 12.1871 122.363 11.2506C122.363 10.2716 122.533 9.37766 122.831 8.56896C123.129 7.76015 123.597 7.07908 124.151 6.48315C124.704 5.88721 125.385 5.46154 126.152 5.121C126.918 4.78048 127.812 4.65277 128.748 4.65277C129.685 4.65277 130.536 4.82304 131.259 5.121C131.983 5.41898 132.621 5.84465 133.132 6.35545L132.324 7.46219C132.281 7.54732 132.196 7.58989 132.153 7.63246C132.11 7.67502 131.983 7.71759 131.855 7.71759C131.77 7.71759 131.685 7.67502 131.557 7.63246C131.473 7.58989 131.345 7.50476 131.259 7.46219L130.876 7.20678L130.365 6.95139C130.153 6.86625 129.94 6.82368 129.685 6.78112C129.429 6.73855 129.131 6.69598 128.791 6.69598C128.195 6.69598 127.684 6.78112 127.215 6.99395C126.747 7.20678 126.321 7.50476 125.981 7.88786C125.641 8.27096 125.385 8.73919 125.172 9.33514C125.002 9.88851 124.874 10.527 124.874 11.2506C124.874 11.9742 124.959 12.6128 125.172 13.2087C125.385 13.7621 125.641 14.2729 126.024 14.656C126.364 15.0391 126.79 15.3371 127.258 15.5499C127.726 15.7627 128.237 15.8478 128.791 15.8478L129.685 15.8053C129.94 15.7627 130.195 15.7201 130.408 15.635C130.621 15.5499 130.834 15.4648 131.047 15.3371C131.265 15.2081 131.465 15.0506 131.642 14.8688C131.685 14.8262 131.77 14.7837 131.813 14.7411C131.813 14.656 131.898 14.656 131.983 14.656ZM134.239 9.80339C135.303 8.8243 136.58 8.35609 138.028 8.35609C138.581 8.35609 139.049 8.44125 139.475 8.61148C139.901 8.78178 140.241 9.03713 140.539 9.33514C140.837 9.63308 141.05 10.0162 141.22 10.4419C141.39 10.8675 141.433 11.3358 141.433 11.8891V17.6782H140.412C140.198 17.6782 140.028 17.6356 139.943 17.5931C139.815 17.5505 139.73 17.4228 139.687 17.21L139.475 16.5289C139.262 16.7417 139.007 16.912 138.793 17.0823C138.581 17.2526 138.325 17.3803 138.113 17.4654C137.9 17.5505 137.602 17.6356 137.346 17.7208C137.091 17.7633 136.793 17.8059 136.453 17.8059C136.069 17.8059 135.686 17.7633 135.388 17.6356C135.048 17.5505 134.792 17.3803 134.537 17.1675C134.281 16.9546 134.112 16.6992 133.984 16.4012C133.856 16.1033 133.771 15.7201 133.771 15.3371C133.772 15.1042 133.815 14.8734 133.898 14.656C133.984 14.4432 134.112 14.1878 134.281 14.0175C134.452 13.8472 134.665 13.5918 134.963 13.4216C135.26 13.2513 135.601 13.081 135.985 12.9533C136.41 12.8256 136.879 12.6979 137.389 12.6128C137.942 12.5277 138.538 12.4851 139.262 12.4425V11.8891C139.262 11.2932 139.134 10.825 138.879 10.527C138.624 10.229 138.24 10.1013 137.73 10.1013C137.389 10.1013 137.091 10.1439 136.836 10.229C136.58 10.3142 136.41 10.3993 136.197 10.527C136.027 10.6122 135.857 10.7398 135.729 10.825C135.601 10.9101 135.431 10.9527 135.26 10.9527C135.091 10.9527 134.963 10.9101 134.877 10.825C134.792 10.7398 134.665 10.6547 134.623 10.527L134.239 9.80339ZM139.304 13.8046L137.687 13.9749C137.262 14.06 136.921 14.1452 136.623 14.2729C136.325 14.4006 136.154 14.5283 136.069 14.6985C135.942 14.8688 135.899 15.0391 135.899 15.252C135.899 15.635 136.027 15.933 136.24 16.1033C136.453 16.2736 136.751 16.3587 137.134 16.3587C137.602 16.3587 137.985 16.2736 138.325 16.1033C138.666 15.933 138.964 15.6776 139.304 15.3371V13.8046ZM145.647 4.43994V17.7208H143.434V4.43994H145.647Z" fill="#444444"/>
<path d="M13.1788 8.01492C12.5828 7.97236 12.0295 8.44055 12.0295 9.07911V9.24934C17.3077 9.37705 21.0111 11.0371 21.0111 12.3993C21.0111 12.6973 20.8408 12.9952 20.5429 13.2932C18.4571 12.0162 14.7538 11.3351 11.2207 11.3351C7.68765 11.3351 4.02691 12.0162 1.89856 13.3358C1.60059 13.0378 1.43033 12.6973 1.43033 12.3993C1.43033 12.1439 1.55803 11.8885 1.81343 11.6331C3.04787 10.3135 4.49514 9.16422 4.92081 9.12162C5.13365 9.12162 5.38904 9.33453 5.68701 9.54735C6.15525 9.93041 6.79375 10.4413 7.68766 10.4413C8.79443 10.4413 9.56061 9.03651 10.4545 7.37641C10.8802 6.56765 11.7315 4.95011 12.1146 4.95011C12.4977 4.95011 12.7531 5.16294 13.0937 5.54604C13.4342 5.97171 13.945 6.56765 14.8815 6.56765C16.0308 6.56765 17.5632 4.35417 18.6699 2.65149L19.053 4.26904C19.1381 4.65214 19.5213 4.86497 19.9044 4.77984L20.4578 4.65214L19.5213 0.650851C19.4787 0.438016 19.2658 0.310316 19.053 0.352882L15.0517 1.28935L15.1794 1.84272C15.2646 2.22583 15.6477 2.43866 16.0308 2.35352L17.5632 2.01299C16.4564 3.75823 15.2646 5.2055 14.8389 5.29064C14.5409 5.29064 14.3281 5.12037 13.9876 4.6947C13.6044 4.22647 13.0085 3.6731 12.1146 3.6731C11.0079 3.6731 10.2417 5.12037 9.30519 6.78048C8.87954 7.58925 8.07076 9.12162 7.68766 9.16422C7.21943 9.16422 6.87889 8.86628 6.49579 8.56826C6.07012 8.22775 5.60188 7.84465 4.92081 7.84465C3.7715 7.84465 1.7283 9.88789 0.876958 10.7818C0.408721 11.2926 0.15332 11.8459 0.15332 12.3993V15.8046C0.15332 18.6992 5.85728 20.2742 11.2207 20.2742C16.5842 20.2742 22.2881 18.6992 22.2881 15.8046V12.3993C22.2881 9.88789 17.8612 8.31289 13.1788 8.01492ZM3.34584 17.635C2.15396 17.0817 1.43033 16.4432 1.43033 15.8046C1.43033 15.5067 1.60059 15.2088 1.89856 14.9107C2.32423 15.1662 2.79247 15.4216 3.34584 15.5918V17.635ZM6.75119 18.6141C5.98498 18.4864 5.26135 18.3161 4.62284 18.1033V16.0175C5.30391 16.1878 5.98498 16.358 6.75119 16.4857V18.6141ZM10.5822 18.9972C9.68832 18.9972 8.83694 18.912 8.02819 18.8269V16.6985C8.87954 16.7837 9.73084 16.8688 10.5822 16.8688V18.9972ZM3.133 14.102C4.87825 13.2507 7.77279 12.6122 11.2207 12.6122C14.6686 12.6122 17.6058 13.2507 19.3084 14.102C17.5632 14.9533 14.6686 15.5918 11.2207 15.5918C7.77279 15.5918 4.83567 14.9533 3.133 14.102ZM14.4132 18.8269C13.6044 18.912 12.7531 18.9972 11.8592 18.9972V16.8688C12.7105 16.8688 13.5619 16.7837 14.4132 16.6985V18.8269ZM17.8186 18.1033C17.1801 18.3161 16.4564 18.4864 15.6903 18.6141V16.4857C16.4564 16.358 17.1375 16.1878 17.8186 16.0175V18.1033ZM19.0956 17.635V15.6344C19.649 15.4216 20.1172 15.2088 20.5429 14.9533C20.8408 15.2513 21.0111 15.5493 21.0111 15.8472C21.0111 16.4432 20.2874 17.0817 19.0956 17.635Z" fill="#008FDE"/>
</g>
<defs>
<clipPath id="clip0">
<rect width="145.494" height="20.2074" fill="white" transform="translate(0.15332 0.344727)"/>
</clipPath>
</defs>
</svg>
