<svg width="146" height="21" viewBox="0 0 146 21" fill="none" xmlns="http://www.w3.org/2000/svg">
<g clip-path="url(#clip0)">
<path d="M0.312012 10.4144V10.3862C0.312012 8.91944 0.537665 7.56551 0.988971 6.32442C1.45908 5.08332 2.12664 4.02087 2.99164 3.13707C3.85665 2.25327 4.90969 1.5669 6.15078 1.07799C7.39187 0.570266 8.79283 0.316406 10.3536 0.316406H10.3818C11.6793 0.316406 12.9109 0.504451 14.0768 0.88054C15.2427 1.23783 16.2864 1.83956 17.2078 2.68577L14.923 5.8167C13.6631 4.74485 12.1494 4.20893 10.3818 4.20893H10.3536C9.45095 4.20893 8.63295 4.36876 7.8996 4.68843C7.18503 5.00811 6.57388 5.44061 6.06616 5.98594C5.55844 6.53127 5.16355 7.18002 4.88149 7.93219C4.61823 8.68439 4.48659 9.50239 4.48659 10.3862V10.4144C4.48659 11.2982 4.61823 12.1256 4.88149 12.8966C5.16355 13.6487 5.55844 14.3069 6.06616 14.871C6.57388 15.4164 7.18503 15.8489 7.8996 16.1685C8.63295 16.4694 9.45095 16.6198 10.3536 16.6198H10.3818C11.3408 16.6198 12.187 16.4788 12.9204 16.1967C13.6538 15.9147 14.3213 15.5198 14.923 15.0121L17.2078 18.143C15.4966 19.7226 13.2213 20.5124 10.3818 20.5124H10.3536C8.79283 20.5124 7.39187 20.2679 6.15078 19.779C4.90969 19.2712 3.85665 18.5755 2.99164 17.6917C2.12664 16.7891 1.45908 15.7266 0.988971 14.5044C0.537665 13.2632 0.312012 11.9 0.312012 10.4144Z" fill="#317197"/>
<path d="M42.9556 20.1738V0.654785H47.1301V20.1738H42.9556Z" fill="#317197"/>
<path d="M64.6179 0.654785H68.6797V20.1738H64.9846L55.5354 7.79106V20.1738H51.4736V0.654785H55.1687L64.6179 13.0657V0.654785Z" fill="#317197"/>
<path d="M80.3252 0.654785C83.0138 0.654785 85.0451 1.26593 86.4176 2.48822C87.7909 3.6917 88.4771 5.46872 88.4771 7.81927V7.84748C88.4771 10.1981 87.7909 11.975 86.4176 13.1785C85.0451 14.382 83.0138 14.9838 80.3252 14.9838H76.5159V20.1738H72.3413V0.654785H80.3252ZM84.3023 7.81927C84.3023 6.69101 83.9636 5.87301 83.287 5.3653C82.6291 4.83877 81.6413 4.57551 80.3252 4.57551H76.5159V11.0348H80.3252C81.6413 11.0348 82.6291 10.7904 83.287 10.3014C83.9636 9.79376 84.3023 8.97576 84.3023 7.84748V7.81927Z" fill="#60BBE5"/>
<path d="M90.4282 10.4144V10.3862C90.4282 8.91944 90.6537 7.56551 91.1048 6.32442C91.5752 5.08332 92.2429 4.02087 93.1077 3.13707C93.9726 2.25327 95.0258 1.5669 96.2666 1.07799C97.5081 0.570266 98.9089 0.316406 100.47 0.316406H100.498C102.059 0.316406 103.46 0.570266 104.7 1.07799C105.942 1.5669 106.995 2.25327 107.86 3.13707C108.725 4.02087 109.383 5.08332 109.835 6.32442C110.304 7.56551 110.539 8.91944 110.539 10.3862V10.4144C110.539 11.9 110.304 13.2632 109.835 14.5044C109.383 15.7266 108.725 16.7891 107.86 17.6917C106.995 18.5755 105.942 19.2712 104.7 19.779C103.46 20.2679 102.059 20.5124 100.498 20.5124H100.47C98.9089 20.5124 97.5081 20.2679 96.2666 19.779C95.0258 19.2712 93.9726 18.5755 93.1077 17.6917C92.2429 16.7891 91.5752 15.7266 91.1048 14.5044C90.6537 13.2632 90.4282 11.9 90.4282 10.4144ZM94.6023 10.4144C94.6023 11.317 94.734 12.1538 94.9975 12.9248C95.2796 13.6769 95.6749 14.3351 96.1825 14.8992C96.6901 15.4446 97.3012 15.8676 98.0157 16.1685C98.7488 16.4694 99.5668 16.6198 100.47 16.6198H100.498C101.4 16.6198 102.209 16.4694 102.924 16.1685C103.657 15.8676 104.278 15.4446 104.785 14.8992C105.293 14.3351 105.678 13.6769 105.942 12.9248C106.224 12.1538 106.365 11.317 106.365 10.4144V10.3862C106.365 9.48355 106.224 8.65618 105.942 7.90399C105.678 7.15182 105.293 6.50306 104.785 5.95773C104.278 5.3936 103.657 4.9611 102.924 4.66023C102.209 4.35936 101.4 4.20893 100.498 4.20893H100.47C99.5668 4.20893 98.7488 4.35936 98.0157 4.66023C97.3012 4.9611 96.6901 5.3936 96.1825 5.95773C95.6749 6.50306 95.2796 7.15182 94.9975 7.90399C94.734 8.65618 94.6023 9.48355 94.6023 10.3862V10.4144Z" fill="#60BBE5"/>
<path d="M124.961 5.46961C124.481 5.05778 123.974 4.74097 123.438 4.5192C122.667 4.18072 121.746 4.01147 120.674 4.01147H120.646C119.517 4.01147 118.624 4.18072 117.966 4.5192C117.327 4.85767 117.007 5.32779 117.007 5.92952C117.007 6.36203 117.177 6.73812 117.515 7.05779C117.873 7.37747 118.587 7.65013 119.659 7.87578L123.438 8.72197C124.397 8.92882 125.187 9.23912 125.808 9.65281C126.447 10.0665 126.946 10.546 127.303 11.0913C127.679 11.6179 127.933 12.2008 128.064 12.8402C128.215 13.4607 128.29 14.1001 128.29 14.7582C128.29 15.6608 128.093 16.4694 127.697 17.184C127.322 17.8986 126.795 18.5096 126.118 19.0174C125.441 19.5063 124.632 19.8824 123.692 20.1456C122.752 20.3902 121.718 20.5124 120.589 20.5124H120.561C118.474 20.5124 116.706 20.1645 115.258 19.4687C114.016 18.8477 113.03 17.9639 112.299 16.8173L115.399 13.7992C116.039 14.9463 116.791 15.7361 117.656 16.1685C118.521 16.601 119.517 16.8173 120.646 16.8173H120.674C121.784 16.8173 122.62 16.6292 123.185 16.2531C123.767 15.8583 124.059 15.3224 124.059 14.6453C124.059 13.536 123.26 12.7837 121.661 12.3888L117.317 11.317C115.701 10.9221 114.544 10.2545 113.848 9.31429C113.152 8.3741 112.805 7.30225 112.805 6.09876C112.805 5.13974 112.993 4.30295 113.369 3.58838C113.763 2.87381 114.309 2.27207 115.005 1.78315C115.719 1.29424 116.566 0.92755 117.544 0.683093C118.54 0.438635 119.631 0.316406 120.816 0.316406H120.843C122.385 0.316406 123.758 0.542059 124.961 0.993367C126.183 1.44468 127.199 2.11223 128.008 2.99603L124.961 5.46961Z" fill="#60BBE5"/>
<path d="M145.805 0.654785V4.66013H139.938V20.1738H135.792V4.66013H129.925V0.654785H145.805Z" fill="#60BBE5"/>
<path d="M29.825 10.6585C35.3618 10.6585 39.8503 8.37628 39.8503 5.56096C39.8503 2.74565 35.3618 0.463379 29.825 0.463379C24.2883 0.463379 19.7998 2.74565 19.7998 5.56096C19.7998 8.37628 24.2883 10.6585 29.825 10.6585Z" fill="#60BBE5"/>
<path d="M39.2799 8.95996C37.9037 10.9399 34.1902 12.3583 29.825 12.3583C25.4599 12.3583 21.7463 10.9399 20.3701 8.95996C20.0007 9.49158 19.7998 10.063 19.7998 10.6591C19.7998 13.4747 24.2883 15.7567 29.825 15.7567C35.3618 15.7567 39.8503 13.4747 39.8503 10.6591C39.8503 10.063 39.6493 9.49158 39.2799 8.95996Z" fill="#317197"/>
<path d="M39.2798 13.7163C37.9036 15.6962 34.1901 17.1147 29.825 17.1147C25.46 17.1147 21.7465 15.6962 20.3702 13.7163C20.0008 14.2478 19.7998 14.8197 19.7998 15.4155C19.7998 18.2308 24.2882 20.5131 29.825 20.5131C35.3618 20.5131 39.8503 18.2308 39.8503 15.4155C39.8503 14.8197 39.6493 14.2478 39.2798 13.7163Z" fill="#317197"/>
<path d="M36.7919 3.521H27.2764V4.20067H36.7919V3.521Z" fill="white"/>
<path d="M34.0736 6.91846H23.1987V7.59814H34.0736V6.91846Z" fill="white"/>
<path d="M36.7923 5.21973H23.1987V5.89941H36.7923V5.21973Z" fill="white"/>
</g>
<defs>
<clipPath id="clip0">
<rect width="145.494" height="20.2074" fill="white" transform="translate(0.312012 0.316406)"/>
</clipPath>
</defs>
</svg>
