<svg width="147" height="25" viewBox="0 0 147 25" fill="none" xmlns="http://www.w3.org/2000/svg">
<g clip-path="url(#clip0)">
<path d="M37.4028 15.7698C36.7924 16.4173 35.7933 17.4906 33.9613 17.4906C31.537 17.4906 29.4093 15.2887 29.4093 12.7161C29.4093 9.97738 31.6482 7.97875 33.8686 7.97875C35.386 7.97875 36.5519 8.66358 37.5324 9.7922H40.4192C39.1054 6.79431 36.237 5.60889 33.9613 5.60889C30.0014 5.60889 26.874 8.90315 26.874 12.6781C26.874 16.5458 30.0567 19.8583 34.0166 19.8583C36.6442 19.8583 39.2726 18.2851 40.3448 15.7686H37.4039" fill="#77797D"/>
<path fill-rule="evenodd" clip-rule="evenodd" d="M46.0545 19.9139C48.904 19.9139 51.4947 17.7861 51.4947 14.4184C51.4947 11.273 48.9594 8.96009 46.0545 8.96009C43.1135 8.96009 40.5771 11.3467 40.5771 14.4554C40.5771 17.3962 43.0014 19.9137 46.0545 19.9137V19.9139ZM46.0545 17.6564C44.5001 17.6564 43.0383 16.3984 43.0383 14.4556C43.0383 12.309 44.7776 11.2168 46.0545 11.2168C47.5903 11.2168 49.0334 12.6045 49.0334 14.4732C49.0334 16.1013 47.8492 17.6554 46.0545 17.6554V17.6564ZM52.3759 19.5797H54.837V9.31186H52.3759V19.5797ZM52.3759 8.14531H54.837V5.88867H52.3759V8.1462" fill="#77797D"/>
<path d="M56.2788 19.58H58.7398V14.6955C58.7398 13.8259 58.7398 12.7529 59.184 12.124C59.6281 11.4385 60.4238 11.2175 60.8678 11.2175C62.9402 11.2175 62.9402 13.6593 62.9402 14.5107V19.5802H65.4012V14.0297C65.4012 13.2342 65.4013 11.5133 64.4577 10.3851C63.6066 9.34892 62.2558 8.96045 61.3675 8.96045C59.8131 8.96045 58.9631 9.81142 58.5551 10.2V9.31222H56.2792V19.5804" fill="#77797D"/>
<path d="M66.2246 15.6608C66.3729 18.6773 68.9264 19.8617 70.6843 19.8617C72.8307 19.8617 75.1251 18.4551 75.1251 15.4946C75.1251 12.5151 72.664 11.6452 71.5353 11.2752C70.1475 10.8125 69.2593 10.5533 69.2593 9.369C69.2593 8.5549 69.87 7.98106 70.6656 7.98106C71.3511 7.98106 72.0903 8.29576 72.2016 9.51683H74.7922C74.6626 6.72271 72.3311 5.6123 70.7396 5.6123C68.4267 5.6123 66.7244 7.33331 66.7244 9.51683C66.7244 12.4039 68.9264 13.0517 69.981 13.4587C71.6837 14.1061 72.5901 14.3653 72.5901 15.7718C72.5901 16.8082 71.7019 17.4926 70.7026 17.4926C69.9256 17.4926 69.0187 17.0301 68.8893 15.6607H66.2246V15.6608ZM83.7574 16.2344C83.1099 17.2708 82.2952 17.6593 81.4814 17.6593C79.631 17.6593 78.3911 16.1974 78.3911 14.4394C78.3911 12.3299 79.8715 11.2194 81.3703 11.2194C82.8877 11.2194 83.4616 12.2002 83.7574 12.7183H86.5331C85.4783 9.55377 82.6654 8.9617 81.3703 8.9617C78.5393 8.9617 75.9303 11.2565 75.9303 14.4022C75.9303 17.8072 78.7614 19.917 81.389 19.917C83.7938 19.917 85.7005 18.5289 86.5331 16.2343H83.7574V16.2344ZM87.5249 19.5829H89.9861V14.3643C89.9861 13.4946 89.9861 11.2184 92.0586 11.2184C94.0939 11.2184 94.1675 13.217 94.1675 14.3272V19.5836H96.6287V13.7914C96.6287 13.0327 96.6287 11.5709 95.814 10.5345C95.0744 9.59088 93.7973 8.96153 92.6503 8.96153C91.1145 8.96153 90.3006 9.73871 89.9853 10.0346V5.88963H87.5249V19.5844" fill="#0D090A"/>
<path fill-rule="evenodd" clip-rule="evenodd" d="M108.204 15.5486C108.278 15.2158 108.353 14.7899 108.353 14.3088C108.353 11.7183 106.299 8.90581 103.043 8.90581C99.8781 8.90581 97.6392 11.5704 97.6392 14.4753C97.6392 17.473 100.007 19.9156 103.061 19.9156C105.465 19.9156 107.428 18.1948 108.019 16.3443H105.428C104.966 17.1956 104.152 17.6581 103.06 17.6581C101.302 17.6581 100.34 16.2148 100.229 15.5487L108.204 15.5486ZM100.155 13.5688C100.618 11.6629 102.152 11.1644 103.06 11.1644C104.282 11.1644 105.558 11.9231 105.835 13.5688H100.155ZM119.965 5.89014H117.504V10.2203C116.782 9.46161 115.894 8.96192 114.394 8.96192C111.933 8.96192 109.157 10.9974 109.157 14.4577C109.157 17.7696 111.785 19.9163 114.394 19.9163C116.133 19.9163 117.206 19.0651 117.67 18.325H117.706V19.5833H119.964L119.965 5.89014ZM111.619 14.3651C111.619 12.9216 112.821 11.2194 114.653 11.2194C116.392 11.2194 117.688 12.7552 117.688 14.4391C117.688 15.9935 116.504 17.6587 114.653 17.6587C113.044 17.6587 111.619 16.2711 111.619 14.3651Z" fill="#0D090A"/>
<path d="M128.157 9.31323V14.5698C128.157 16.1982 127.639 17.66 126.085 17.66C123.938 17.66 123.938 15.384 123.938 14.5512V9.31323H121.477V14.6798C121.477 15.5312 121.477 17.1968 122.236 18.2882C122.754 18.9918 123.808 19.917 125.677 19.917C127.25 19.917 127.916 19.1026 128.324 18.5475H128.361V19.5839H130.618V9.31323H128.157ZM132.091 19.5838H134.552V5.88867H132.091V19.5837" fill="#0D090A"/>
<path fill-rule="evenodd" clip-rule="evenodd" d="M146.114 15.549C146.189 15.2162 146.263 14.7903 146.263 14.3092C146.263 11.7186 144.208 8.90619 140.953 8.90619C137.787 8.90619 135.549 11.5707 135.549 14.4758C135.549 17.4733 137.917 19.916 140.971 19.916C143.377 19.916 145.337 18.1951 145.929 16.3447H143.339C142.876 17.196 142.062 17.6584 140.97 17.6584C139.213 17.6584 138.25 16.2151 138.14 15.5491L146.114 15.549ZM138.067 13.5692C138.529 11.6634 140.064 11.1648 140.972 11.1648C142.193 11.1648 143.469 11.9235 143.748 13.5692H138.067ZM23.6878 20.7165L20.6441 23.7613L17.3338 20.4509C15.8549 21.3793 14.1051 21.916 12.2301 21.916C10.3549 21.916 8.6047 21.379 7.12538 20.4504L3.81452 23.7603L0.769829 20.7156L4.0798 17.4054C3.15141 15.9262 2.61488 14.1766 2.61488 12.3025C2.61488 10.4284 3.15171 8.67767 4.0799 7.19854L0.769531 3.88699L3.81313 0.842302L7.12339 4.15257C8.60261 3.22398 10.3527 2.68686 12.2284 2.68686C14.104 2.68686 15.8532 3.22378 17.3323 4.15217L20.6438 0.841309L23.6886 3.8862L20.3779 7.19676C21.3064 8.67717 21.8435 10.426 21.8435 12.3017C21.8435 14.1773 21.3064 15.9283 20.3778 17.4066L23.6878 20.7165ZM12.2293 6.49431C9.02217 6.49431 6.42243 9.09411 6.42243 12.3012C6.42243 15.5084 9.02217 18.108 12.2293 18.108C15.4363 18.108 18.0361 15.5084 18.0361 12.3012C18.0361 9.09411 15.4363 6.49431 12.2293 6.49431" fill="#0D090A"/>
<path d="M12.2227 10.3911C11.1596 10.3911 10.2959 11.2538 10.2959 12.318C10.2959 13.3822 11.1585 14.2448 12.2227 14.2448C13.2869 14.2448 14.1495 13.3821 14.1495 12.318C14.1495 11.2539 13.2869 10.3911 12.2227 10.3911Z" fill="#77797D"/>
<path d="M14.9431 8.50098L16.0789 9.63659L12.6908 13.024L11.5552 11.8883L14.9431 8.50098Z" fill="#77797D"/>
<path d="M15.4694 14.5083L14.4509 15.5264L11.4126 12.4888L12.4312 11.4707L15.4694 14.5083Z" fill="#77797D"/>
</g>
<defs>
<clipPath id="clip0">
<rect width="145.494" height="23.4406" fill="white" transform="translate(0.769531 0.841309)"/>
</clipPath>
</defs>
</svg>
