<svg width="147" height="34" viewBox="0 0 147 34" fill="none" xmlns="http://www.w3.org/2000/svg">
<g clip-path="url(#clip0)">
<path fill-rule="evenodd" clip-rule="evenodd" d="M4.89245 3.38422C3.10184 4.60092 2.0924 6.21102 2.0924 7.90386C2.0924 9.59671 3.10184 11.2068 4.89245 12.4235C6.67944 13.6377 9.18611 14.4106 11.9882 14.4106C14.9153 14.4106 17.5184 13.5673 19.3163 12.2601L20.1135 13.3564C18.0519 14.8555 15.1594 15.7662 11.9882 15.7662C8.95057 15.7662 6.17046 14.9308 4.13058 13.5448C2.09434 12.1611 0.736816 10.1789 0.736816 7.90386C0.736816 5.62878 2.09434 3.64659 4.13058 2.26299C6.17046 0.876928 8.95057 0.0415039 11.9882 0.0415039C16.5657 0.0415039 20.6274 1.94998 22.3641 4.84393L21.2018 5.54148C19.789 3.18741 16.2663 1.39708 11.9882 1.39708C9.18611 1.39708 6.67944 2.16999 4.89245 3.38422Z" fill="#444444"/>
<path fill-rule="evenodd" clip-rule="evenodd" d="M4.89245 16.7614C6.67944 17.9756 9.18611 18.7485 11.9882 18.7485C14.3409 18.7485 16.4888 18.2033 18.177 17.3066L18.8129 18.5037C16.9125 19.5132 14.5433 20.1041 11.9882 20.1041C8.95057 20.1041 6.17046 19.2686 4.13058 17.8826C2.09434 16.499 0.736816 14.5168 0.736816 12.2417H2.0924C2.0924 13.9346 3.10184 15.5446 4.89245 16.7614Z" fill="#444444"/>
<path fill-rule="evenodd" clip-rule="evenodd" d="M4.89245 21.0992C6.67944 22.3134 9.18611 23.0864 11.9882 23.0864C13.8873 23.0864 15.6549 22.7311 17.1551 22.1209L17.6658 23.3766C15.995 24.0561 14.0532 24.4419 11.9882 24.4419C8.95057 24.4419 6.17046 23.6065 4.13058 22.2205C2.09434 20.8368 0.736816 18.8546 0.736816 16.5796H2.0924C2.0924 18.2724 3.10184 19.8825 4.89245 21.0992Z" fill="#444444"/>
<path fill-rule="evenodd" clip-rule="evenodd" d="M2.0924 8.1748V20.9172C2.0924 22.6101 3.10184 24.2202 4.89245 25.4369C6.67944 26.6511 9.18611 27.424 11.9882 27.424C15.3826 27.424 18.3305 26.2913 20.1009 24.6258L21.0297 25.6132C18.9592 27.561 15.6545 28.7796 11.9882 28.7796C8.95057 28.7796 6.17046 27.9441 4.13058 26.5581C2.09434 25.1745 0.736816 23.1923 0.736816 20.9172V8.1748H2.0924Z" fill="#444444"/>
<path fill-rule="evenodd" clip-rule="evenodd" d="M13.8962 4.51562H36.8286L35.0331 12.5133H27.4938L26.086 16.1732L33.974 13.1328L20.1215 33.3886L21.3237 25.6294L15.377 27.9664L19.1368 12.5133H11.9375L13.8962 4.51562ZM14.9599 5.87116L13.6652 11.1578H20.6637L17.2748 25.7976L23.1037 23.222L22.426 27.9664L30.3984 15.9603L23.9311 18.4477L26.8472 11.1578H33.9481L35.1349 5.87116H14.9599Z" fill="#DEB24C"/>
<path d="M52.4771 9.6806C52.4141 10.5515 52.0916 11.2372 51.5097 11.7375C50.9315 12.2378 50.1679 12.488 49.2189 12.488C48.1811 12.488 47.3638 12.1396 46.7671 11.4428C46.1739 10.7424 45.8774 9.78252 45.8774 8.56321V8.06841C45.8774 7.29011 46.0146 6.60448 46.2889 6.01149C46.5631 5.41851 46.9542 4.9645 47.462 4.64948C47.9735 4.33075 48.5666 4.17139 49.2413 4.17139C50.1753 4.17139 50.9278 4.42155 51.4986 4.92188C52.0694 5.42221 52.3993 6.12453 52.4883 7.02883H50.8203C50.7795 6.50627 50.6331 6.12823 50.381 5.89475C50.1326 5.65756 49.7527 5.53895 49.2413 5.53895C48.6852 5.53895 48.2682 5.73909 47.9903 6.13936C47.7159 6.53592 47.5751 7.15299 47.5677 7.99058V8.60209C47.5677 9.47675 47.6993 10.116 47.9624 10.52C48.2293 10.924 48.6481 11.126 49.2189 11.126C49.7342 11.126 50.1178 11.0093 50.3699 10.7758C50.6256 10.5386 50.7721 10.1735 50.8091 9.6806H52.4771Z" fill="#F1C04E"/>
<path d="M61.1331 8.51317C61.1331 9.30999 60.9923 10.0086 60.7106 10.609C60.4289 11.2094 60.0248 11.6726 59.4985 11.9988C58.9759 12.3249 58.3754 12.488 57.6971 12.488C57.0262 12.488 56.4276 12.3268 55.9012 12.0044C55.3748 11.6819 54.9671 11.2223 54.678 10.6257C54.3889 10.0253 54.2424 9.33594 54.2388 8.55763V8.15736C54.2388 7.36053 54.3814 6.66007 54.6668 6.05596C54.956 5.44816 55.3618 4.98303 55.8845 4.66059C56.4108 4.33445 57.0113 4.17139 57.6859 4.17139C58.3605 4.17139 58.9591 4.33445 59.4818 4.66059C60.0082 4.98303 60.414 5.44816 60.6994 6.05596C60.9885 6.66007 61.1331 7.35868 61.1331 8.15178V8.51317ZM59.4429 8.14621C59.4429 7.29753 59.291 6.65266 58.987 6.21163C58.683 5.77059 58.2494 5.55008 57.6859 5.55008C57.1263 5.55008 56.6944 5.76874 56.3905 6.20607C56.0865 6.63969 55.9327 7.27715 55.929 8.11844V8.51317C55.929 9.33966 56.081 9.9808 56.3849 10.4367C56.6888 10.8925 57.1262 11.1204 57.6971 11.1204C58.2567 11.1204 58.6867 10.9018 58.987 10.4644C59.2872 10.0234 59.4392 9.38226 59.4429 8.54098V8.14621Z" fill="#F1C04E"/>
<path d="M65.0298 12.377H63.3618V4.28271H65.0298V12.377Z" fill="#F1C04E"/>
<path d="M74.0753 12.377H72.4073L69.1602 7.05121V12.377H67.4922V4.28271H69.1602L72.4128 9.61956V4.28271H74.0753V12.377Z" fill="#F1C04E"/>
<path d="M82.3698 5.63361H79.8898V12.377H78.2218V5.63361H75.7754V4.28271H82.3698V5.63361Z" fill="#F1C04E"/>
<path d="M89.1081 8.86905H85.9048V11.0372H89.6634V12.377H84.2373V4.28271H89.6529V5.63361H85.9048V7.56266H89.1081V8.86905Z" fill="#F1C04E"/>
<path d="M93.2215 11.0372H96.7627V12.377H91.5532V4.28271H93.2215V11.0372Z" fill="#F1C04E"/>
<path d="M103.506 8.86905H100.304V11.0372H104.062V12.377H98.6353V4.28271H104.051V5.63361H100.304V7.56266H103.506V8.86905Z" fill="#F1C04E"/>
<path d="M112.357 11.3539C112.056 11.7134 111.632 11.9932 111.083 12.1934C110.535 12.3898 109.927 12.488 109.259 12.488C108.559 12.488 107.944 12.336 107.414 12.0322C106.887 11.7245 106.48 11.2798 106.19 10.6979C105.905 10.116 105.759 9.43229 105.751 8.64654V8.09621C105.751 7.28826 105.886 6.58965 106.157 6.00037C106.431 5.40739 106.824 4.95523 107.336 4.64392C107.851 4.32889 108.454 4.17139 109.143 4.17139C110.103 4.17139 110.853 4.40116 111.395 4.86073C111.936 5.31658 112.257 5.98184 112.357 6.85649H110.733C110.659 6.39323 110.494 6.05411 110.238 5.83916C109.986 5.6242 109.638 5.51672 109.193 5.51672C108.626 5.51672 108.194 5.72983 107.897 6.15603C107.601 6.58224 107.451 7.21599 107.447 8.05729V8.57428C107.447 9.42299 107.608 10.0642 107.931 10.4978C108.253 10.9314 108.726 11.1482 109.348 11.1482C109.975 11.1482 110.422 11.0148 110.689 10.748V9.35259H109.171V8.124H112.357V11.3539Z" fill="#F1C04E"/>
<path d="M117.622 9.41393H116.293V12.377H114.625V4.28271H117.632C118.589 4.28271 119.326 4.49582 119.845 4.92203C120.364 5.34824 120.624 5.95048 120.624 6.72878C120.624 7.281 120.503 7.74241 120.262 8.11303C120.026 8.47994 119.663 8.7727 119.178 8.99143L120.929 12.2991V12.377H119.14L117.622 9.41393ZM116.293 8.063H117.638C118.057 8.063 118.381 7.95737 118.611 7.74612C118.841 7.53117 118.956 7.23653 118.956 6.8622C118.956 6.48047 118.846 6.18027 118.628 5.96161C118.413 5.74294 118.081 5.63361 117.632 5.63361H116.293V8.063Z" fill="#F1C04E"/>
<path d="M127.378 10.7092H124.453L123.898 12.377H122.124L125.138 4.28271H126.683L129.713 12.377H127.939L127.378 10.7092ZM124.904 9.35831H126.927L125.91 6.32852L124.904 9.35831Z" fill="#F1C04E"/>
<path d="M133.049 9.52507V12.377H131.38V4.28271H134.538C135.146 4.28271 135.681 4.3939 136.14 4.61627C136.603 4.83864 136.959 5.15551 137.207 5.5669C137.456 5.97458 137.58 6.4397 137.58 6.96227C137.58 7.75539 137.308 8.38173 136.763 8.84133C136.221 9.29713 135.47 9.52507 134.511 9.52507H133.049ZM133.049 8.17416H134.538C134.98 8.17416 135.315 8.07041 135.545 7.86287C135.778 7.65532 135.896 7.35883 135.896 6.97338C135.896 6.57682 135.778 6.25625 135.545 6.01164C135.311 5.76703 134.989 5.64102 134.577 5.63361H133.049V8.17416Z" fill="#F1C04E"/>
<path d="M146.231 12.377H144.562V8.90801H141.31V12.377H139.642V4.28271H141.31V7.56266H144.562V4.28271H146.231V12.377Z" fill="#F1C04E"/>
<path d="M50.9016 19.7104H49.0122V24.8484H47.7414V19.7104H45.8774V18.6812H50.9016V19.7104Z" fill="#444444"/>
<path d="M52.7443 20.7652C53.069 20.3755 53.4772 20.1806 53.9685 20.1806C54.9626 20.1806 55.4668 20.758 55.4808 21.913V24.8484H54.2566V21.9469C54.2566 21.6843 54.2001 21.4908 54.0872 21.3666C53.9742 21.2395 53.7864 21.176 53.5238 21.176C53.1651 21.176 52.9053 21.3144 52.7443 21.5911V24.8484H51.52V18.3423H52.7443V20.7652Z" fill="#444444"/>
<path d="M58.5141 24.9332C57.8419 24.9332 57.294 24.727 56.8704 24.3148C56.4496 23.9025 56.2393 23.3532 56.2393 22.6671V22.5484C56.2393 22.0882 56.3282 21.6773 56.5061 21.3158C56.684 20.9515 56.9354 20.672 57.2601 20.4771C57.5877 20.2795 57.9605 20.1807 58.3785 20.1807C59.0054 20.1807 59.4982 20.3783 59.857 20.7736C60.2184 21.169 60.3992 21.7295 60.3992 22.4553V22.9551H57.4804C57.5199 23.2544 57.6386 23.4944 57.8363 23.6752C58.0368 23.8559 58.2895 23.9463 58.5946 23.9463C59.0662 23.9463 59.4347 23.7754 59.7001 23.4337L60.3017 24.1072C60.1181 24.367 59.8696 24.5703 59.5562 24.7172C59.2426 24.8612 58.8953 24.9332 58.5141 24.9332ZM58.3742 21.1718C58.1314 21.1718 57.9337 21.2538 57.7812 21.4175C57.6316 21.5813 57.5355 21.8157 57.4931 22.1207H59.1961V22.0232C59.1904 21.7522 59.117 21.5431 58.9758 21.3963C58.8346 21.2466 58.6341 21.1718 58.3742 21.1718Z" fill="#444444"/>
<path d="M63.5932 24.8485V21.1635H62.9111V20.2654H63.5932V19.8758C63.5932 19.3618 63.74 18.9637 64.0338 18.6812C64.3303 18.3961 64.744 18.2534 65.2749 18.2534C65.4444 18.2534 65.652 18.2817 65.8976 18.3382L65.8849 19.287C65.7833 19.2615 65.659 19.2488 65.5122 19.2488C65.0518 19.2488 64.8217 19.4649 64.8217 19.8969V20.2654H65.7324V21.1635H64.8217V24.8485H63.5932Z" fill="#444444"/>
<path d="M69.1131 24.3828C68.8109 24.7499 68.3929 24.9335 67.8592 24.9335C67.3677 24.9335 66.9921 24.7923 66.7323 24.5098C66.4753 24.2275 66.344 23.8138 66.3384 23.2688V20.2656H67.5626V23.2264C67.5626 23.7036 67.7801 23.9422 68.215 23.9422C68.6301 23.9422 68.9154 23.7982 69.0707 23.5102V20.2656H70.2992V24.8487H69.147L69.1131 24.3828Z" fill="#444444"/>
<path d="M72.6885 19.1387V20.2654H73.4722V21.1634H72.6885V23.4506C72.6885 23.62 72.7209 23.7415 72.7859 23.8149C72.8509 23.8883 72.9751 23.9251 73.1587 23.9251C73.2943 23.9251 73.4143 23.9151 73.5188 23.8954V24.823C73.2787 24.8964 73.0316 24.9332 72.7774 24.9332C71.9189 24.9332 71.4812 24.4997 71.4642 23.6328V21.1634H70.7949V20.2654H71.4642V19.1387H72.6885Z" fill="#444444"/>
<path d="M76.8992 24.3828C76.597 24.7499 76.179 24.9335 75.6453 24.9335C75.1539 24.9335 74.7783 24.7923 74.5185 24.5098C74.2615 24.2275 74.1302 23.8138 74.1245 23.2688V20.2656H75.3488V23.2264C75.3488 23.7036 75.5663 23.9422 76.0011 23.9422C76.4163 23.9422 76.7015 23.7982 76.8569 23.5102V20.2656H78.0853V24.8487H76.9331L76.8992 24.3828Z" fill="#444444"/>
<path d="M81.5844 21.4132C81.4178 21.3907 81.271 21.3794 81.1438 21.3794C80.6807 21.3794 80.3771 21.5361 80.233 21.8496V24.8484H79.0088V20.2654H80.1653L80.1992 20.8118C80.4449 20.3911 80.7852 20.1807 81.2201 20.1807C81.3557 20.1807 81.4827 20.199 81.6014 20.2357L81.5844 21.4132Z" fill="#444444"/>
<path d="M84.2026 24.9332C83.5301 24.9332 82.9821 24.727 82.5585 24.3148C82.1382 23.9025 81.9272 23.3532 81.9272 22.6671V22.5484C81.9272 22.0882 82.017 21.6773 82.1948 21.3158C82.3726 20.9515 82.624 20.672 82.9489 20.4771C83.2763 20.2795 83.6489 20.1807 84.0668 20.1807C84.6941 20.1807 85.1863 20.3783 85.5452 20.7736C85.9065 21.169 86.0876 21.7295 86.0876 22.4553V22.9551H83.1688C83.2084 23.2544 83.3272 23.4944 83.5244 23.6752C83.7249 23.8559 83.9779 23.9463 84.2826 23.9463C84.7547 23.9463 85.1233 23.7754 85.3884 23.4337L85.9898 24.1072C85.8063 24.367 85.5581 24.5703 85.2445 24.7172C84.9309 24.8612 84.5841 24.9332 84.2026 24.9332ZM84.0628 21.1718C83.8195 21.1718 83.6222 21.2538 83.4695 21.4175C83.3199 21.5813 83.2238 21.8157 83.1817 22.1207H84.8848V22.0232C84.8792 21.7522 84.8056 21.5431 84.6641 21.3963C84.5227 21.2466 84.3222 21.1718 84.0628 21.1718Z" fill="#444444"/>
<path d="M88.7563 22.5145C88.7563 22.06 88.8436 21.6547 89.019 21.2989C89.1936 20.9431 89.445 20.6677 89.7732 20.4729C90.103 20.2781 90.4861 20.1807 90.921 20.1807C91.5393 20.1807 92.0437 20.3699 92.4333 20.7483C92.8261 21.1266 93.0444 21.6406 93.0896 22.2901L93.0985 22.6035C93.0985 23.3067 92.9021 23.8714 92.5093 24.2978C92.1172 24.7214 91.5902 24.9332 90.9291 24.9332C90.2687 24.9332 89.74 24.7214 89.3448 24.2978C88.9528 23.8743 88.7563 23.2982 88.7563 22.5696V22.5145ZM89.9801 22.6035C89.9801 23.0384 90.0626 23.3716 90.2258 23.6032C90.3899 23.8319 90.6243 23.9463 90.9291 23.9463C91.2257 23.9463 91.4577 23.8333 91.6242 23.6074C91.7907 23.3786 91.8739 23.0144 91.8739 22.5145C91.8739 22.0882 91.7907 21.7578 91.6242 21.5234C91.4577 21.289 91.2233 21.1718 90.921 21.1718C90.6219 21.1718 90.3899 21.289 90.2258 21.5234C90.0626 21.755 89.9801 22.115 89.9801 22.6035Z" fill="#444444"/>
<path d="M94.1871 24.8485V21.1635H93.5049V20.2654H94.1871V19.8758C94.1871 19.3618 94.3334 18.9637 94.6276 18.6812C94.9234 18.3961 95.3373 18.2534 95.8683 18.2534C96.0381 18.2534 96.2458 18.2817 96.4915 18.3382L96.4786 19.287C96.3768 19.2615 96.2523 19.2488 96.106 19.2488C95.6453 19.2488 95.4149 19.4649 95.4149 19.8969V20.2654H96.3258V21.1635H95.4149V24.8485H94.1871Z" fill="#444444"/>
<path d="M100.27 20.2654L100.309 20.7779C100.633 20.3797 101.072 20.1807 101.626 20.1807C102.216 20.1807 102.621 20.4136 102.842 20.8796C103.164 20.4136 103.623 20.1807 104.218 20.1807C104.715 20.1807 105.086 20.3261 105.328 20.617C105.571 20.905 105.693 21.3398 105.693 21.9216V24.8484H104.464V21.9258C104.464 21.666 104.413 21.4768 104.311 21.3582C104.21 21.2368 104.031 21.1761 103.774 21.1761C103.406 21.1761 103.152 21.3512 103.011 21.7013L103.016 24.8484H101.791V21.9301C101.791 21.6646 101.739 21.4726 101.634 21.354C101.53 21.2353 101.352 21.1761 101.101 21.1761C100.753 21.1761 100.502 21.32 100.347 21.6081V24.8484H99.1221V20.2654H100.27Z" fill="#444444"/>
<path d="M106.447 22.5145C106.447 22.06 106.534 21.6547 106.709 21.2989C106.884 20.9431 107.135 20.6677 107.463 20.4729C107.793 20.2781 108.177 20.1807 108.611 20.1807C109.23 20.1807 109.734 20.3699 110.124 20.7483C110.516 21.1266 110.735 21.6406 110.78 22.2901L110.789 22.6035C110.789 23.3067 110.593 23.8714 110.2 24.2978C109.807 24.7214 109.281 24.9332 108.619 24.9332C107.959 24.9332 107.43 24.7214 107.035 24.2978C106.642 23.8743 106.447 23.2982 106.447 22.5696V22.5145ZM107.671 22.6035C107.671 23.0384 107.753 23.3716 107.916 23.6032C108.08 23.8319 108.315 23.9463 108.619 23.9463C108.916 23.9463 109.148 23.8333 109.315 23.6074C109.481 23.3786 109.564 23.0144 109.564 22.5145C109.564 22.0882 109.481 21.7578 109.315 21.5234C109.148 21.289 108.914 21.1718 108.611 21.1718C108.312 21.1718 108.08 21.289 107.916 21.5234C107.753 21.755 107.671 22.115 107.671 22.6035Z" fill="#444444"/>
<path d="M112.669 20.2654L112.708 20.7948C113.035 20.3854 113.474 20.1807 114.025 20.1807C114.511 20.1807 114.872 20.3232 115.109 20.6085C115.347 20.8937 115.468 21.32 115.474 21.8877V24.8484H114.249V21.9173C114.249 21.6575 114.193 21.4697 114.08 21.354C113.967 21.2353 113.78 21.1761 113.517 21.1761C113.172 21.1761 112.914 21.3229 112.742 21.6166V24.8484H111.517V20.2654H112.669Z" fill="#444444"/>
<path d="M118.515 24.9332C117.843 24.9332 117.296 24.727 116.871 24.3148C116.451 23.9025 116.241 23.3532 116.241 22.6671V22.5484C116.241 22.0882 116.33 21.6773 116.507 21.3158C116.685 20.9515 116.937 20.672 117.262 20.4771C117.589 20.2795 117.962 20.1807 118.379 20.1807C119.007 20.1807 119.5 20.3783 119.858 20.7736C120.219 21.169 120.4 21.7295 120.4 22.4553V22.9551H117.481C117.521 23.2544 117.64 23.4944 117.837 23.6752C118.038 23.8559 118.291 23.9463 118.595 23.9463C119.067 23.9463 119.436 23.7754 119.701 23.4337L120.303 24.1072C120.119 24.367 119.871 24.5703 119.557 24.7172C119.244 24.8612 118.897 24.9332 118.515 24.9332ZM118.375 21.1718C118.132 21.1718 117.935 21.2538 117.782 21.4175C117.633 21.5813 117.536 21.8157 117.494 22.1207H119.197V22.0232C119.192 21.7522 119.118 21.5431 118.977 21.3963C118.835 21.2466 118.635 21.1718 118.375 21.1718Z" fill="#444444"/>
<path d="M122.752 23.1162L123.599 20.2656H124.912L123.069 25.5603L122.967 25.8017C122.693 26.4004 122.241 26.6998 121.612 26.6998C121.434 26.6998 121.253 26.6729 121.069 26.6193V25.6916L121.256 25.6959C121.487 25.6959 121.659 25.6605 121.773 25.59C121.888 25.5194 121.979 25.4022 122.044 25.2384L122.188 24.8614L120.582 20.2656H121.9L122.752 23.1162Z" fill="#444444"/>
</g>
<defs>
<clipPath id="clip0">
<rect width="145.494" height="33.9485" fill="white" transform="translate(0.736816 0.0415039)"/>
</clipPath>
</defs>
</svg>
