<svg width="147" height="61" viewBox="0 0 147 61" fill="none" xmlns="http://www.w3.org/2000/svg">
<g clip-path="url(#clip0)">
<path d="M38.5229 11.6104H28.2837V48.959H38.5229V11.6104Z" fill="#444444"/>
<path d="M22.2376 25.3594H11.9985V48.9595H22.2376V25.3594Z" fill="#444444"/>
<path d="M46.0314 4.19946V56.1754H4.58716V4.19946H46.0314ZM49.932 0.298828H0.686523V60.076H49.932V0.298828Z" fill="#32B1FE"/>
<path d="M69.8254 15.1196C66.1198 15.1196 63.4868 17.9476 63.4868 21.4582C63.4868 25.0663 66.1198 27.7967 69.7278 27.7967C72.0683 27.7967 73.4335 26.9191 74.7011 25.6513L73.3359 24.2861C72.2632 25.2613 71.2881 25.8464 69.8254 25.8464C67.485 25.8464 65.7297 23.896 65.7297 21.4582C65.7297 19.0203 67.485 17.07 69.8254 17.07C71.1906 17.07 72.2632 17.6551 73.2384 18.6302L74.6037 17.07C73.531 15.8998 72.1657 15.1196 69.8254 15.1196Z" fill="#32B1FE"/>
<path d="M84.2574 15.3154H78.9917V27.6024H81.0395V23.3118H83.5751L86.5004 27.6024H88.9382L85.8182 22.9217C87.4752 22.4341 88.6456 21.1664 88.6456 19.2161C88.6456 16.8757 86.9878 15.3154 84.2574 15.3154ZM81.137 21.459V17.3633H84.1604C85.7204 17.3633 86.5982 18.0459 86.5982 19.4111C86.5982 20.6788 85.6226 21.459 84.1604 21.459H81.137Z" fill="#32B1FE"/>
<path d="M104.053 15.3154H101.518L98.1052 20.7764L94.5939 15.3154H92.0591L96.9347 22.8242V27.6999H99.1778V22.7266L104.053 15.3154Z" fill="#32B1FE"/>
<path d="M112.537 15.3154H107.954V27.6024H110.002V23.7018H112.342C114.877 23.7018 117.023 22.2391 117.023 19.5086C116.925 16.9732 115.17 15.3154 112.537 15.3154ZM110.002 21.7515V17.2658H112.342C113.902 17.2658 114.877 18.0459 114.877 19.5086C114.877 20.8738 113.902 21.7515 112.342 21.7515H110.002Z" fill="#32B1FE"/>
<path d="M130.675 15.3154H120.63V17.3633H124.531V27.6999H126.774V17.3633H130.675V15.3154Z" fill="#32B1FE"/>
<path d="M140.329 15.1196C136.916 15.1196 134.479 18.0451 134.479 21.4582C134.479 24.9687 136.916 27.7967 140.329 27.7967C143.742 27.7967 146.18 24.8713 146.18 21.4582C146.18 17.9476 143.742 15.1196 140.329 15.1196ZM140.329 25.8464C138.087 25.8464 136.526 23.896 136.526 21.4582C136.526 19.0203 138.087 17.07 140.329 17.07C142.572 17.07 144.132 19.0203 144.132 21.4582C144.132 23.896 142.572 25.8464 140.329 25.8464Z" fill="#32B1FE"/>
<path d="M64.9492 41.8404C64.9492 39.5 66.7045 37.4521 69.1424 37.4521C70.6051 37.4521 71.4828 38.0373 72.3604 38.8174L71.9703 39.305C71.1903 38.6224 70.4101 38.0373 69.1424 38.0373C67.0946 38.0373 65.6318 39.695 65.6318 41.8404C65.6318 43.9858 67.1921 45.6435 69.1424 45.6435C70.3126 45.6435 71.1902 45.1559 72.0679 44.3758L72.4579 44.7659C71.5803 45.6435 70.6051 46.2286 69.1424 46.2286C66.7045 46.2286 64.9492 44.2783 64.9492 41.8404Z" fill="#504F50"/>
<path d="M77.041 37.6465H77.7236V41.5471H83.0874V37.6465H83.6718V46.0328H83.0874V42.1322H77.7236V46.0328H77.1386V37.6465H77.041Z" fill="#504F50"/>
<path d="M92.2537 37.6465H92.8389L96.7397 46.1304H96.0567L94.9841 43.7899H90.0107L88.9381 46.1304H88.2559L92.2537 37.6465ZM94.7893 43.1073L92.5463 38.2315L90.3033 43.1073H94.7893Z" fill="#504F50"/>
<path d="M101.421 37.6465H104.346C105.224 37.6465 105.906 37.939 106.296 38.4266C106.589 38.8167 106.784 39.4018 106.784 39.9868C106.784 41.352 105.906 42.2297 104.735 42.4247L107.076 46.0328H106.393L104.151 42.5222H101.81V46.0328H101.323V37.6465H101.421ZM104.346 42.0347C105.516 42.0347 106.393 41.352 106.393 40.0844C106.393 38.9141 105.613 38.2315 104.346 38.2315H101.908V42.0347H104.346Z" fill="#504F50"/>
<path d="M114.78 38.2315H111.854V37.6465H118.29V38.2315H115.365V46.0328H114.78V38.2315Z" fill="#504F50"/>
<path d="M123.068 37.6465H123.654V46.0328H123.068V37.6465Z" fill="#504F50"/>
<path d="M128.529 44.862L128.92 44.3744C129.798 45.2521 130.675 45.6421 131.943 45.6421C133.21 45.6421 134.088 44.9595 134.088 43.9843C134.088 43.1068 133.601 42.6191 131.748 42.2291C129.7 41.839 128.92 41.1564 128.92 39.7912C128.92 38.5235 130.09 37.5483 131.65 37.5483C132.918 37.5483 133.698 37.8409 134.575 38.5235L134.186 39.011C133.405 38.3284 132.625 38.0359 131.65 38.0359C130.383 38.0359 129.602 38.7185 129.602 39.5962C129.602 40.4738 130.09 41.0589 132.04 41.4489C133.99 41.839 134.771 42.5216 134.771 43.7894C134.771 45.1546 133.601 46.1297 131.943 46.1297C130.578 46.2272 129.602 45.7396 128.529 44.862Z" fill="#504F50"/>
<path d="M142.474 38.2315H139.549V37.6465H145.985V38.2315H143.059V46.0328H142.474V38.2315Z" fill="#504F50"/>
</g>
<defs>
<clipPath id="clip0">
<rect width="145.494" height="59.814" fill="white" transform="translate(0.686523 0.298828)"/>
</clipPath>
</defs>
</svg>
