<svg width="147" height="17" viewBox="0 0 147 17" fill="none" xmlns="http://www.w3.org/2000/svg">
<g clip-path="url(#clip0)">
<path d="M8.57236 1.24268C9.28204 1.55811 9.83411 2.03127 10.3072 2.58327C10.7804 3.13528 11.017 3.76615 11.1747 4.47587V4.71245C11.1747 4.7913 11.1747 4.79131 11.0958 4.87016C11.0958 4.87016 11.017 4.87016 10.9381 4.94902L8.73007 5.10673C8.65121 5.10673 8.57236 5.10673 8.57236 5.02788C8.57236 5.02788 8.4935 4.94902 8.4935 4.7913C8.41464 4.16044 8.17806 3.68729 7.86263 3.293C7.46833 2.97757 6.99519 2.81985 6.36432 2.81985C4.62944 2.81985 3.68314 4.23929 3.68314 6.99934C3.68314 8.49765 3.91971 9.52283 4.314 10.2325C4.78715 10.9423 5.41802 11.2577 6.36432 11.2577C6.99519 11.2577 7.62606 11.1 8.02034 10.7845C8.41464 10.4691 8.88775 9.91712 9.12434 9.12854C9.12434 9.04965 9.20323 9.04965 9.36093 9.04965H9.51863L11.1747 9.36505C11.3324 9.44394 11.4113 9.52283 11.3324 9.75942C11.2536 10.2325 10.9381 10.7845 10.5438 11.3366C10.1495 11.8886 9.59752 12.3617 8.80894 12.756C8.0992 13.1503 7.23176 13.3869 6.20661 13.3869C5.10258 13.3869 4.07743 13.1503 3.20999 12.5982C2.34255 12.0463 1.71168 11.3366 1.23853 10.3114C0.765382 9.28624 0.686523 8.26107 0.686523 6.99934C0.686523 5.7376 0.923098 4.63359 1.39625 3.68729C1.79054 2.74099 2.50026 2.03127 3.28885 1.55811C4.07743 1.08496 5.10258 0.769531 6.28546 0.769531C7.1529 0.769531 7.86263 0.927248 8.57236 1.24268ZM12.9096 12.9137V4.7913C12.9096 4.55473 12.9884 4.47587 13.1461 4.47587H15.1176C15.2753 4.47587 15.3541 4.55473 15.3541 4.7913V5.81646H15.433C15.433 5.81646 15.5119 5.81646 15.5907 5.7376C15.9062 5.26446 16.3005 4.94902 16.7736 4.63359C17.2468 4.39701 17.6411 4.23929 18.0353 4.23929C18.4296 4.23929 18.6662 4.31815 18.6662 4.55473V6.44733C18.6662 6.52619 18.6662 6.60504 18.5873 6.60504C18.5085 6.6839 18.5085 6.6839 18.4296 6.60504H17.2468C16.9314 6.60504 16.6948 6.6839 16.3793 6.84162C16.1428 6.92048 15.9062 7.0782 15.6696 7.31477C15.5119 7.55134 15.433 7.78792 15.433 8.02449V12.8348C15.4365 12.8875 15.4287 12.9403 15.4101 12.9898C15.3916 13.0392 15.3626 13.084 15.3253 13.1214C15.2879 13.1587 15.2431 13.1876 15.1937 13.2062C15.1442 13.2248 15.0914 13.2326 15.0387 13.2291H13.3039C12.9884 13.2291 12.9096 13.1503 12.9096 12.9137ZM20.0068 15.9103C19.8491 15.9103 19.7703 15.7526 19.7703 15.6737V14.412C19.7703 14.2543 19.928 14.1755 20.2434 14.1755H21.3474C21.6628 14.1755 21.9783 14.0177 22.2148 13.7812C22.4514 13.5446 22.6092 13.308 22.6092 12.9926C22.6092 12.9137 22.6092 12.8348 22.5303 12.756L19.376 4.94902V4.7913C19.376 4.71245 19.376 4.63359 19.4548 4.63359C19.5337 4.63359 19.6125 4.55473 19.6914 4.55473H21.7417C21.8205 4.55473 21.8994 4.55473 21.9783 4.63359C21.9783 4.55473 22.0571 4.63359 22.0571 4.71245L23.8708 9.68053C23.8708 9.75942 23.9497 9.83823 24.0285 9.83823C24.1074 9.83823 24.1074 9.75942 24.1863 9.68053L26.0001 4.71245C26.037 4.64002 26.0935 4.57943 26.1633 4.5376C26.2329 4.49577 26.313 4.47439 26.3943 4.47587H27.8138C27.8926 4.47587 27.9715 4.47587 27.9715 4.55473C28.0504 4.63359 28.0504 4.63359 28.0504 4.71245V4.87016L24.6594 13.2291C24.344 14.0177 24.0285 14.5698 23.7131 14.964C23.3977 15.3583 23.0035 15.5949 22.5303 15.7526C22.0571 15.9103 21.5051 15.9892 20.7954 15.9892C20.4011 15.9892 20.0857 15.9103 20.0068 15.9103ZM31.7567 4.55473C31.8356 4.63359 31.8356 4.71245 31.8356 4.7913V5.26446C31.8356 5.34332 31.8356 5.34332 31.9144 5.34332C31.9144 5.34332 31.9933 5.34332 32.0722 5.26446C32.3876 4.94902 32.7818 4.71245 33.0973 4.47587C33.4916 4.31815 33.8859 4.23929 34.4379 4.23929C35.463 4.23929 36.2516 4.63359 36.8825 5.34332C37.5134 6.1319 37.8288 7.23591 37.8288 8.65536C37.8288 10.1537 37.5134 11.3366 36.8825 12.1251C36.2516 12.9137 35.463 13.3869 34.359 13.3869C33.4916 13.3869 32.7818 13.0714 32.151 12.5194C32.0722 12.4405 31.9933 12.3617 31.9144 12.3617C31.8356 12.3617 31.8356 12.4405 31.8356 12.5982V15.5949C31.8356 15.7526 31.7567 15.9103 31.599 15.9103H29.5486C29.4698 15.9103 29.3909 15.9103 29.3909 15.8314C29.3121 15.7526 29.3121 15.6737 29.3121 15.5949V4.7913C29.3121 4.63359 29.3121 4.55473 29.3909 4.47587C29.4698 4.39701 29.5486 4.39701 29.7063 4.39701H31.5201C31.599 4.47587 31.7567 4.47587 31.7567 4.55473ZM32.6241 11.5732C32.8607 11.7309 33.1761 11.8097 33.4916 11.8097C34.7533 11.8097 35.3842 10.7845 35.3842 8.73422C35.3842 7.70906 35.2265 6.99934 34.9111 6.52619C34.5956 6.05304 34.1225 5.89532 33.5704 5.89532C33.0973 5.89532 32.703 6.05304 32.3876 6.28961C32.0722 6.52619 31.9144 6.84162 31.9144 7.23591V10.9423C32.0722 11.2577 32.3087 11.4154 32.6241 11.5732ZM42.9546 6.21076C42.7969 6.21076 42.7969 6.28961 42.7969 6.44733V10.4691C42.7969 10.8634 42.8757 11.1 43.0334 11.2577C43.1912 11.4154 43.5066 11.4943 43.9009 11.4943H44.7683C44.8471 11.4943 44.926 11.4943 44.926 11.5732C45.0049 11.652 45.0049 11.7309 45.0049 11.8097V12.8348C45.0049 13.0714 44.8471 13.1503 44.6106 13.2291C44.1374 13.308 43.5066 13.308 42.6391 13.308C41.8505 13.308 41.2985 13.1503 40.8254 12.756C40.4311 12.3617 40.1945 11.8886 40.1945 11.1788V6.44733C40.1945 6.28961 40.1157 6.21076 39.958 6.21076H38.9328C38.6962 6.21076 38.6173 6.1319 38.6173 5.89532V4.71245C38.6173 4.55473 38.6962 4.47587 38.9328 4.47587H40.1157C40.1946 4.47587 40.2734 4.39701 40.2734 4.31815L40.51 1.79469C40.51 1.63697 40.5889 1.47926 40.7466 1.47926H42.5603C42.6391 1.47926 42.718 1.47926 42.718 1.55811C42.7969 1.63697 42.7969 1.71583 42.7969 1.79469V4.31815C42.7969 4.39701 42.8757 4.47587 42.9546 4.47587H44.6894C44.926 4.47587 45.0049 4.55473 45.0049 4.71245V5.97418C45.0049 6.1319 44.926 6.28961 44.6894 6.28961H42.9546V6.21076ZM47.8438 12.8348C47.2129 12.4405 46.6609 11.8886 46.2666 11.2577C45.8723 10.548 45.7146 9.75942 45.7146 8.89195C45.7146 8.0245 45.8723 7.15705 46.2666 6.52619C46.6609 5.81646 47.2129 5.26446 47.8438 4.87016C48.5535 4.47587 49.2633 4.31815 50.1307 4.31815C50.9981 4.31815 51.7867 4.47587 52.4176 4.87016C53.1273 5.26446 53.6004 5.81646 53.9947 6.52619C54.389 7.23591 54.5467 8.0245 54.5467 8.89195C54.5467 9.75942 54.389 10.548 53.9947 11.2577C53.6004 11.9674 53.1273 12.4405 52.4176 12.8348C51.7079 13.2291 50.9981 13.3869 50.1307 13.3869C49.3421 13.3869 48.5535 13.2291 47.8438 12.8348ZM51.5501 10.9423C51.8656 10.4691 52.0233 9.75942 52.0233 8.81308C52.0233 7.86678 51.8656 7.15705 51.5501 6.60504C51.2347 6.1319 50.7615 5.89532 50.1307 5.89532C49.4998 5.89532 49.0267 6.1319 48.7112 6.60504C48.3958 7.0782 48.2381 7.78792 48.2381 8.81308C48.2381 9.75942 48.3958 10.4691 48.7112 10.9423C49.0267 11.4154 49.4998 11.652 50.1307 11.652C50.8404 11.7309 51.2347 11.4943 51.5501 10.9423ZM69.7664 0.927248C69.9241 0.927248 70.003 1.00611 70.003 1.16382V12.9137C70.003 12.9926 70.003 13.0714 69.9241 13.0714C69.8453 13.0714 69.7664 13.1503 69.6876 13.1503H67.7949C67.7161 13.1503 67.7161 13.0714 67.6372 12.9926L62.3537 5.57989C62.2748 5.57989 62.196 5.50103 62.196 5.50103L62.1171 5.57989V12.9137C62.1171 12.9926 62.1171 13.0714 62.0382 13.0714C61.9594 13.0714 61.8806 13.1503 61.8017 13.1503H60.0668C59.8302 13.1503 59.7514 13.0714 59.7514 12.8348V1.24268C59.7514 1.00611 59.8302 0.927248 60.0668 0.927248H62.0382C62.196 0.927248 62.2748 0.927248 62.3537 1.00611C62.4325 1.00611 62.5114 1.08496 62.5903 1.24268L67.4795 8.18221L67.6372 8.33993C67.7161 8.33993 67.7161 8.26107 67.7161 8.18221V1.24268C67.7161 1.00611 67.7949 0.927248 68.0315 0.927248H69.7664ZM74.8922 11.1C75.2865 11.4943 75.8385 11.652 76.4694 11.652C76.8636 11.652 77.2579 11.5732 77.5734 11.4154C77.8888 11.2577 78.2831 10.9423 78.5986 10.548C78.6774 10.4691 78.6774 10.4691 78.7563 10.4691C78.7563 10.4691 78.8351 10.4691 78.914 10.548L80.0968 11.0211C80.1757 11.0211 80.1757 11.1 80.1757 11.1788C80.1757 11.2577 80.1757 11.2577 80.0968 11.3366C79.5448 12.1251 78.9929 12.5982 78.362 12.9137C77.7311 13.2291 77.0213 13.3869 76.0751 13.3869C75.2076 13.3869 74.419 13.2291 73.7881 12.8348C73.1573 12.4405 72.6053 11.9674 72.211 11.2577C71.8167 10.548 71.659 9.83823 71.659 8.97076C71.659 8.0245 71.8956 7.23591 72.2899 6.52619C72.6842 5.81646 73.2362 5.26446 73.867 4.87016C74.5767 4.47587 75.2865 4.31815 76.0751 4.31815C76.9425 4.31815 77.6522 4.47587 78.2831 4.87016C78.914 5.26446 79.466 5.7376 79.7814 6.44733C80.1757 7.15705 80.3334 7.94564 80.3334 8.89195C80.3334 9.04965 80.3334 9.12854 80.2545 9.20735C80.2545 9.28624 80.1757 9.28624 80.0179 9.28624H74.419C74.2613 9.28624 74.1824 9.36505 74.1824 9.52283C74.2613 10.2325 74.4979 10.7057 74.8922 11.1ZM77.5734 7.94564C77.7311 7.94564 77.8099 7.94564 77.8099 7.86678C77.8099 7.86678 77.8888 7.78792 77.8888 7.70906C77.8888 7.39363 77.8099 7.15705 77.6522 6.84162C77.4945 6.52619 77.3368 6.28961 77.1002 6.1319C76.8636 5.97418 76.5482 5.81646 76.154 5.81646C75.6019 5.81646 75.1288 5.97418 74.8133 6.36847C74.4979 6.76276 74.2613 7.23591 74.2613 7.86678L77.5734 7.94564ZM93.9762 4.55473C94.0546 4.63359 94.0546 4.63359 94.0546 4.71245V4.87016L91.3735 12.9926C91.3735 13.0714 91.2951 13.1503 91.2159 13.2291C91.1366 13.2291 91.0582 13.308 90.979 13.308H89.6389C89.4812 13.308 89.402 13.308 89.3236 13.2291C89.2444 13.1503 89.2444 13.0714 89.1652 12.9926L87.7458 8.41879C87.7458 8.33992 87.6674 8.26107 87.5882 8.26107C87.5882 8.26107 87.5098 8.33992 87.5098 8.41879L86.0904 12.9926C86.0904 13.0714 86.0112 13.1503 86.0112 13.2291C85.932 13.2291 85.8536 13.308 85.7744 13.308H84.2766C84.119 13.308 84.0398 13.308 84.0398 13.2291C84.0398 13.1503 83.9606 13.0714 83.8822 12.9926L81.2009 4.94902V4.87016C81.2009 4.79131 81.2009 4.71245 81.2797 4.63359C81.3586 4.55473 81.3586 4.55473 81.5163 4.55473H83.4877C83.5669 4.55473 83.6453 4.55473 83.7245 4.63359C83.803 4.71245 83.8822 4.79131 83.8822 4.87016L85.3799 9.52283C85.3799 9.60164 85.4592 9.68053 85.4592 9.68053C85.5384 9.68053 85.5384 9.60164 85.5384 9.52283L86.9577 4.87016C86.9577 4.79131 87.0361 4.71245 87.1154 4.71245C87.1938 4.63359 87.273 4.63359 87.3522 4.63359H88.7716C88.85 4.63359 88.9292 4.63359 89.0076 4.71245C89.0076 4.55473 89.0076 4.63359 89.0076 4.71245L90.427 9.36505C90.427 9.44394 90.5062 9.52283 90.5062 9.52283C90.5854 9.52283 90.5854 9.44394 90.6638 9.36505L92.1624 4.71245C92.1987 4.64002 92.2553 4.57943 92.3256 4.5376C92.3952 4.49577 92.4752 4.47439 92.5568 4.47587H93.8186C93.8186 4.47587 93.897 4.47587 93.9762 4.55473ZM99.0232 13.1503C98.944 13.0714 98.944 12.9926 98.944 12.8348V1.24268C98.944 1.00611 99.0232 0.927248 99.2592 0.927248H102.65C102.808 0.927248 102.887 0.927248 102.887 1.00611C102.887 1.08496 102.966 1.08496 103.044 1.24268L105.568 8.18221C105.568 8.26107 105.647 8.33993 105.647 8.33993C105.726 8.33993 105.726 8.26107 105.726 8.18221L108.091 1.4004C108.171 1.16382 108.249 1.00611 108.486 1.00611H112.034C112.192 1.00611 112.271 1.08496 112.271 1.32154V12.9137C112.271 13.0714 112.271 13.1503 112.192 13.2291C112.114 13.308 112.034 13.308 111.877 13.308H109.748C109.59 13.308 109.511 13.308 109.511 13.2291C109.432 13.1503 109.432 13.0714 109.432 12.9926V4.63359C109.432 4.55473 109.432 4.55473 109.353 4.55473C109.274 4.55473 109.274 4.63359 109.274 4.71245L106.357 12.9926C106.278 13.1503 106.199 13.2291 106.041 13.2291H104.701C104.464 13.2291 104.385 13.1503 104.306 12.9926L101.467 4.7913C101.467 4.71245 101.388 4.63359 101.388 4.63359C101.31 4.63359 101.31 4.71245 101.31 4.7913V12.9137C101.31 13.0714 101.31 13.1503 101.231 13.1503C101.231 13.1503 101.073 13.2291 100.995 13.2291H99.3384C99.1808 13.2291 99.1016 13.2291 99.0232 13.1503ZM117.239 11.1C117.633 11.4943 118.186 11.652 118.816 11.652C119.21 11.652 119.605 11.5732 119.92 11.4154C120.235 11.2577 120.63 10.9423 120.945 10.548C121.024 10.4691 121.024 10.4691 121.103 10.4691C121.103 10.4691 121.182 10.4691 121.261 10.548L122.444 11.0211C122.523 11.0211 122.523 11.1 122.523 11.1788C122.523 11.2577 122.523 11.2577 122.444 11.3366C121.892 12.1251 121.339 12.5982 120.709 12.9137C120.078 13.2291 119.368 13.3869 118.422 13.3869C117.554 13.3869 116.766 13.2291 116.135 12.8348C115.504 12.4405 114.952 11.9674 114.558 11.2577C114.163 10.548 114.006 9.83823 114.006 8.97076C114.006 8.0245 114.243 7.23591 114.637 6.52619C115.031 5.81646 115.583 5.26446 116.214 4.87016C116.924 4.47587 117.633 4.31815 118.422 4.31815C119.29 4.31815 119.999 4.47587 120.63 4.87016C121.261 5.26446 121.813 5.7376 122.128 6.44733C122.523 7.15705 122.68 7.94564 122.68 8.89195C122.68 9.04965 122.68 9.12854 122.601 9.20735C122.601 9.28624 122.523 9.28624 122.365 9.28624H116.766C116.609 9.28624 116.529 9.36505 116.529 9.52283C116.687 10.2325 116.845 10.7057 117.239 11.1ZM119.999 7.94564C120.157 7.94564 120.235 7.94564 120.235 7.86678C120.235 7.86678 120.315 7.78792 120.315 7.70906C120.315 7.39363 120.235 7.15705 120.078 6.84162C119.92 6.52619 119.762 6.28961 119.526 6.1319C119.29 5.97418 118.974 5.81646 118.58 5.81646C118.028 5.81646 117.554 5.97418 117.239 6.36847C116.924 6.76276 116.687 7.23591 116.687 7.86678L119.999 7.94564ZM129.857 12.9137V12.4405C129.857 12.3617 129.857 12.2828 129.777 12.2828C129.777 12.2828 129.699 12.2828 129.62 12.3617C129.304 12.6771 128.91 12.9137 128.595 13.0714C128.2 13.2291 127.727 13.3869 127.254 13.3869C126.229 13.3869 125.362 12.9926 124.73 12.204C124.1 11.4154 123.785 10.3114 123.785 8.89195C123.785 8.0245 123.942 7.15705 124.257 6.44733C124.573 5.7376 125.046 5.18559 125.598 4.7913C126.15 4.39701 126.781 4.23929 127.411 4.23929C127.806 4.23929 128.2 4.31815 128.595 4.47587C128.954 4.65718 129.296 4.8682 129.62 5.10673C129.699 5.18559 129.777 5.18559 129.777 5.18559C129.857 5.18559 129.857 5.10673 129.857 4.94902V1.24268C129.857 1.00611 129.935 0.927248 130.093 0.927248H132.143C132.222 0.927248 132.301 0.927248 132.301 1.00611C132.38 1.08496 132.38 1.16382 132.38 1.24268V12.8348C132.38 12.9926 132.38 13.0714 132.301 13.0714C132.222 13.1503 132.143 13.1503 131.986 13.1503H130.172C130.014 13.2291 129.857 13.1503 129.857 12.9137ZM129.068 6.1319C128.832 5.97418 128.516 5.89532 128.2 5.89532C127.648 5.89532 127.175 6.1319 126.781 6.60504C126.466 7.0782 126.229 7.86678 126.229 8.81308C126.229 9.83823 126.386 10.548 126.702 11.0211C127.018 11.4943 127.491 11.7309 128.043 11.7309C128.516 11.7309 128.832 11.5732 129.147 11.2577C129.462 10.9423 129.62 10.6268 129.62 10.2325V6.76276C129.62 6.44733 129.304 6.28961 129.068 6.1319ZM136.796 2.97757C136.796 3.293 136.638 3.37185 136.323 3.37185H134.509C134.351 3.37185 134.272 3.37185 134.194 3.293C134.115 3.21414 134.115 3.13528 134.115 2.97757V1.24268C134.115 1.00611 134.194 0.927248 134.43 0.927248H136.481C136.56 0.927248 136.638 0.927248 136.638 1.00611C136.717 1.08496 136.717 1.16382 136.717 1.24268V2.97757H136.796ZM136.796 12.8348C136.796 12.9926 136.796 13.0714 136.717 13.1503C136.638 13.2291 136.56 13.2291 136.401 13.2291H134.667C134.509 13.2291 134.43 13.2291 134.351 13.1503C134.272 13.0714 134.272 12.9926 134.272 12.9137V4.7913C134.272 4.55473 134.351 4.47587 134.588 4.47587H136.638C136.796 4.47587 136.875 4.55473 136.875 4.7913V12.8348H136.796ZM140.818 13.3869C140.029 13.3869 139.319 13.1503 138.846 12.6771C138.373 12.204 138.137 11.652 138.137 10.9423C138.137 9.99592 138.531 9.28624 139.398 8.73422C140.266 8.18221 141.448 7.86678 142.947 7.86678L143.577 7.78792C143.657 7.78792 143.736 7.78792 143.736 7.70906C143.814 7.70906 143.814 7.63021 143.814 7.55134V7.23591C143.814 6.84162 143.657 6.44733 143.42 6.21076C143.184 5.97418 142.868 5.89532 142.395 5.89532C141.606 5.89532 141.055 6.21076 140.66 6.92048C140.581 6.99934 140.581 7.0782 140.423 7.0782H140.266L138.61 6.6839C138.531 6.6839 138.452 6.60504 138.452 6.52619C138.452 6.44733 138.452 6.36847 138.531 6.28961C138.767 5.65875 139.241 5.18559 139.951 4.87016C140.66 4.55473 141.448 4.39701 142.474 4.39701C143.814 4.39701 144.761 4.63359 145.313 5.10673C145.865 5.57989 146.18 6.28961 146.18 7.15705V12.9926C146.18 13.1503 146.18 13.2291 146.101 13.308C146.022 13.3869 145.943 13.3869 145.865 13.3869H144.209C144.129 13.3869 144.051 13.3869 143.972 13.308C143.893 13.2291 143.893 13.1503 143.893 12.9926V12.5982C143.893 12.5194 143.814 12.4405 143.736 12.4405C143.657 12.4405 143.578 12.5194 143.499 12.5982C142.71 13.0714 141.843 13.3869 140.818 13.3869ZM143.736 9.12854C143.736 9.04965 143.657 9.04965 143.499 9.04965H143.026C142.395 9.04965 141.843 9.20735 141.291 9.52283C140.739 9.83823 140.581 10.1537 140.581 10.6268C140.581 10.9423 140.66 11.2577 140.896 11.4154C141.133 11.5732 141.448 11.7309 141.843 11.7309C142.316 11.7309 142.789 11.5732 143.105 11.2577C143.499 10.9423 143.657 10.7057 143.657 10.3902V9.28624C143.736 9.20735 143.736 9.12854 143.736 9.12854Z" fill="#444444"/>
</g>
<defs>
<clipPath id="clip0">
<rect width="145.494" height="15.3577" fill="white" transform="translate(0.686523 0.769531)"/>
</clipPath>
</defs>
</svg>
