<svg width="146" height="32" viewBox="0 0 146 32" fill="none" xmlns="http://www.w3.org/2000/svg">
<g clip-path="url(#clip0)">
<path fill-rule="evenodd" clip-rule="evenodd" d="M1.09491 0.1875H13.0077C21.6773 0.1875 28.6679 6.45912 28.6679 15.5552C28.6679 24.7082 21.6773 30.9798 13.0077 30.9798H1.09491C0.536026 30.9798 0.312012 30.7534 0.312012 30.1884V0.978862C0.312012 0.526215 0.647648 0.1875 1.09491 0.1875ZM17.2401 13.3743C13.6874 13.3743 10.9785 16.007 10.9785 19.5997C10.9785 23.1925 13.7097 25.8922 17.2401 25.8922C19.4379 25.8922 21.3924 24.9107 22.5248 23.0361C22.6133 22.9022 22.5686 22.7683 22.4801 22.6789L21.0814 21.5635C20.9259 21.4296 20.815 21.4519 20.7257 21.5635C19.8158 22.8799 18.7497 23.438 17.2401 23.438C15.0415 23.438 13.5543 21.8091 13.5543 19.5997C13.5543 17.4135 15.02 15.8292 17.2401 15.8292C18.7274 15.8292 19.7496 16.4089 20.6595 17.6367C20.7481 17.7483 20.9259 17.8153 21.0814 17.6814L22.4801 16.6098C22.5686 16.5428 22.6133 16.4096 22.5248 16.2534C21.4586 14.4236 19.327 13.3743 17.2401 13.3743Z" fill="#006CBC"/>
<path fill-rule="evenodd" clip-rule="evenodd" d="M42.6484 23.8746V7.0643H47.5021C53.2109 7.0643 56.2248 10.1336 56.2248 15.5938C56.2248 20.8285 53.1155 23.8731 47.4782 23.8731H42.6484V23.8746ZM45.663 21.1025H47.1934C50.8846 21.1025 53.2109 19.663 53.2109 15.4636C53.2109 11.4784 51.5851 9.83634 47.4551 9.83634H45.663V21.1033V21.1025ZM64.0229 24.017C60.0699 24.017 58.1 21.1734 58.1 17.9971C58.1 14.8809 59.9399 11.8348 63.8089 11.8348C68.1406 11.8348 69.3977 14.904 69.3977 17.9732C69.3977 18.5091 69.3037 18.8778 69.3037 18.8778H61.1623C61.3516 20.3404 62.2778 21.3165 63.9982 21.3165C65.2915 21.3165 66.1229 21.1025 66.9651 20.2218L68.9589 21.9708C67.5709 23.4574 65.9921 24.017 64.0222 24.017H64.0229ZM61.1623 16.7839H66.5502C66.36 15.1781 65.5294 14.2743 63.8089 14.2743C62.2062 14.2743 61.3994 15.3443 61.1623 16.7839ZM79.1896 24.1124C82.5248 24.1124 85.1938 22.4112 86.5348 19.2704L83.7348 18.1279C82.832 20.3881 81.3488 21.2457 79.1896 21.2457C75.5931 21.2457 74.0628 18.6876 74.0628 15.3443C74.0628 12.2274 75.5931 9.67007 79.1419 9.67007C81.3253 9.67007 83.0583 10.5269 83.6872 12.7393L86.5122 11.6208C85.1469 8.47994 82.5006 6.79102 79.1658 6.79102C73.647 6.79102 71.0721 10.8595 71.0721 15.4636C71.0721 20.0794 73.6709 24.1117 79.1896 24.1117V24.1124ZM93.8927 24.017C89.9418 24.017 87.9719 21.1734 87.9719 17.9971C87.9719 14.8809 89.8116 11.8348 93.6793 11.8348C98.0118 11.8348 99.2695 14.904 99.2695 17.9732C99.2719 18.2774 99.2404 18.5808 99.1749 18.8778H91.033C91.2229 20.3404 92.1492 21.3165 93.8701 21.3165C95.1634 21.3165 95.9943 21.1025 96.8365 20.2218L98.8306 21.9708C97.442 23.4574 95.8633 24.017 93.8935 24.017H93.8927ZM91.033 16.7839H96.4219C96.2319 15.1781 95.401 14.2743 93.6793 14.2743C92.0781 14.2743 91.2706 15.3443 91.033 16.7839ZM101.702 23.8738H104.634V17.3666C104.634 15.8801 105.998 14.4999 107.601 14.4999C109.108 14.4999 109.499 15.6423 109.499 17.1049V23.8738H112.443V16.7361C112.443 14.2496 111.173 11.7878 108.064 11.7878C106.901 11.7878 105.583 12.2035 104.634 13.3698V11.9896H101.702V23.8746V23.8738ZM120.145 24.1124C120.871 24.1096 121.593 23.9889 122.281 23.7552V21.1264C122.281 21.1264 121.438 21.5305 120.489 21.5305C119.587 21.5305 119.196 21.1494 119.196 20.5552V14.6192H122.281V11.9888H119.196V6.96961L116.478 9.03888V11.9888H114.508V14.6184H116.43V20.5899C116.43 22.7553 117.807 24.1109 120.145 24.1109V24.1124ZM129.544 24.017C125.592 24.017 123.622 21.1734 123.622 17.9971C123.622 14.8809 125.462 11.8348 129.33 11.8348C133.662 11.8348 134.92 14.904 134.92 17.9732C134.92 18.5091 134.825 18.8778 134.825 18.8778H126.685C126.874 20.3404 127.8 21.3165 129.52 21.3165C130.813 21.3165 131.645 21.1025 132.487 20.2218L134.481 21.9708C133.092 23.4574 131.514 24.017 129.544 24.017ZM126.685 16.7839H132.073C131.882 15.1781 131.052 14.2743 129.33 14.2743C127.729 14.2743 126.921 15.3443 126.685 16.7839ZM137.353 23.8738H140.142V18.3658C140.142 16.2489 141.257 14.5707 142.896 14.5707C143.525 14.5707 143.857 14.69 144.2 14.9756L145.519 12.5969C144.807 12.0373 143.786 11.8117 143.015 11.8117C142.017 11.8117 140.997 12.2751 140.166 13.5007V11.9896H137.353V23.8746V23.8738Z" fill="#444444"/>
</g>
<defs>
<clipPath id="clip0">
<rect width="145.494" height="31.5236" fill="white" transform="translate(0.312012 0.1875)"/>
</clipPath>
</defs>
</svg>
