<svg width="148" height="19" viewBox="0 0 148 19" fill="none" xmlns="http://www.w3.org/2000/svg">
<g clip-path="url(#clip0)">
<path d="M1.27295 1.34473H146.472V17.2167H1.27295V1.34473Z" stroke="#EC2227"/>
<path d="M89.0523 4.35449C90.4167 4.35449 91.5976 4.87396 92.5959 5.9129C93.599 6.94665 94.1001 8.23884 94.1001 9.78953C94.1001 11.3866 93.5957 12.7125 92.5878 13.7669C91.5807 14.8213 90.3601 15.3486 88.9286 15.3486C87.481 15.3486 86.2629 14.8343 85.2759 13.8057C84.2939 12.7771 83.8032 11.4461 83.8032 9.81273C83.8032 8.14327 84.3715 6.78126 85.5087 5.72681C86.4957 4.81193 87.6766 4.35449 89.0523 4.35449ZM88.9052 4.92048C87.9643 4.92048 87.2094 5.26937 86.6403 5.96717C85.9331 6.83553 85.5782 8.10706 85.5782 9.78177C85.5782 11.4978 85.946 12.8185 86.6791 13.7437C87.2433 14.4466 87.987 14.7982 88.9125 14.7982C89.9002 14.7982 90.7142 14.413 91.3551 13.6429C92.001 12.8727 92.3243 11.6581 92.3243 9.99888C92.3243 8.20011 91.9703 6.85879 91.2622 5.97492C90.694 5.27196 89.9075 4.92048 88.9052 4.92048Z" fill="#444444"/>
<path d="M94.5117 4.5957H97.365L103.793 12.4816V6.41791C103.793 5.77174 103.721 5.36852 103.576 5.20828C103.384 4.99116 103.082 4.8826 102.668 4.8826H102.305V4.5957H105.964V4.8826H105.592C105.147 4.8826 104.832 5.017 104.646 5.28581C104.532 5.45124 104.476 5.8286 104.476 6.41791V15.2809H104.197L97.264 6.81337V13.2881C97.264 13.9342 97.3335 14.3374 97.4741 14.4977C97.6697 14.7148 97.972 14.8234 98.381 14.8234H98.7529V15.1103H95.0929V14.8234H95.4574C95.9068 14.8234 96.2253 14.6889 96.4112 14.4202C96.5252 14.2547 96.5818 13.8774 96.5818 13.2881V5.97593C96.277 5.61924 96.0443 5.38404 95.8834 5.27031C95.729 5.15658 95.4986 5.05061 95.1939 4.95239C95.0444 4.90586 94.8164 4.8826 94.5117 4.8826V4.5957Z" fill="#444444"/>
<path d="M115.3 12.2025L115.555 12.2568L114.657 15.1103H106.515V14.8234H106.91C107.354 14.8234 107.673 14.6786 107.864 14.3891C107.973 14.2238 108.026 13.8412 108.026 13.2415V6.45669C108.026 5.80017 107.954 5.38921 107.81 5.22378C107.608 4.99633 107.308 4.8826 106.91 4.8826H106.515V4.5957H111.276V4.8826C110.717 4.87744 110.324 4.92913 110.097 5.03768C109.875 5.14624 109.722 5.28322 109.64 5.44865C109.557 5.61407 109.516 6.00953 109.516 6.63503V13.2415C109.516 13.6706 109.557 13.9653 109.64 14.1255C109.701 14.2341 109.797 14.3142 109.926 14.3659C110.055 14.4176 110.458 14.4435 111.136 14.4435H111.904C112.71 14.4435 113.276 14.384 113.602 14.2651C113.928 14.1462 114.225 13.9368 114.493 13.637C114.763 13.3321 115.031 12.8538 115.3 12.2025Z" fill="#444444"/>
<path d="M120.806 14.8234V15.1103H116.3V14.8234H116.672C117.107 14.8234 117.422 14.6967 117.619 14.4435C117.743 14.278 117.805 13.88 117.805 13.2493V6.45669C117.805 5.92424 117.771 5.57272 117.704 5.40213C117.653 5.27289 117.547 5.16175 117.386 5.0687C117.159 4.94464 116.92 4.8826 116.672 4.8826H116.3V4.5957H120.806V4.8826H120.426C119.997 4.8826 119.684 5.00925 119.487 5.26256C119.358 5.42798 119.293 5.82601 119.293 6.45669V13.2493C119.293 13.7817 119.327 14.1332 119.394 14.3039C119.446 14.4331 119.554 14.5443 119.719 14.6373C119.942 14.7614 120.178 14.8234 120.426 14.8234H120.806Z" fill="#444444"/>
<path d="M120.983 4.5957H123.837L130.265 12.4816V6.41791C130.265 5.77174 130.193 5.36852 130.048 5.20828C129.857 4.99116 129.555 4.8826 129.142 4.8826H128.777V4.5957H132.437V4.8826H132.064C131.62 4.8826 131.305 5.017 131.118 5.28581C131.005 5.45124 130.948 5.8286 130.948 6.41791V15.2809H130.668L123.736 6.81337V13.2881C123.736 13.9342 123.807 14.3374 123.946 14.4977C124.142 14.7148 124.445 14.8234 124.853 14.8234H125.225V15.1103H121.565V14.8234H121.93C122.38 14.8234 122.697 14.6889 122.884 14.4202C122.998 14.2547 123.054 13.8774 123.054 13.2881V5.97593C122.749 5.61924 122.517 5.38404 122.356 5.27031C122.201 5.15658 121.971 5.05061 121.666 4.95239C121.516 4.90586 121.289 4.8826 120.983 4.8826V4.5957Z" fill="#444444"/>
<path d="M135.988 5.16951V9.32572H138.299C138.899 9.32572 139.299 9.23519 139.501 9.05438C139.77 8.8165 139.919 8.3978 139.95 7.79815H140.238V11.4581H139.95C139.878 10.9464 139.806 10.6181 139.734 10.4733C139.641 10.2924 139.488 10.1502 139.276 10.0469C139.064 9.94351 138.738 9.89177 138.299 9.89177H135.988V13.3578C135.988 13.8231 136.009 14.1074 136.05 14.2108C136.091 14.309 136.164 14.3891 136.268 14.4512C136.371 14.508 136.567 14.5365 136.856 14.5365H138.64C139.235 14.5365 139.666 14.4951 139.935 14.4124C140.203 14.3297 140.462 14.1669 140.71 13.9239C141.031 13.6034 141.359 13.12 141.695 12.4739H142.006L141.098 15.1103H132.996V14.8234H133.367C133.616 14.8234 133.851 14.7639 134.073 14.645C134.238 14.5624 134.35 14.4383 134.406 14.2728C134.468 14.1074 134.5 13.7688 134.5 13.257V6.42566C134.5 5.75882 134.432 5.34785 134.298 5.19276C134.112 4.98599 133.801 4.8826 133.367 4.8826H132.996V4.5957H141.098L141.214 6.89867H140.912C140.803 6.34555 140.682 5.96559 140.548 5.75882C140.418 5.55204 140.225 5.39437 139.966 5.28581C139.759 5.20828 139.395 5.16951 138.873 5.16951H135.988Z" fill="#444444"/>
<path fill-rule="evenodd" clip-rule="evenodd" d="M79.5997 1.05176H0.978516V17.5116H79.5997V1.05176ZM4.3629 6.51879V4.43612H12.6936V14.8495H4.3629V12.7668H10.0903V10.554H5.92491V8.47128H10.0903V6.51879H4.3629ZM15.0366 4.43612V14.8495H17.64V10.6842L21.0244 14.8495H23.2372V12.7668L20.1132 8.99199L22.326 6.25846H23.2372V4.43612H21.0244L17.64 8.08083V4.43612H15.0366ZM33.6506 8.08083H31.1774V6.51879H27.9232V12.7668H33.6506V14.8495H25.3198V4.43612H33.6506V8.08083ZM38.4668 14.8495H35.8634V4.43612H44.9751V14.8495H42.3718V6.51879H38.4668V14.8495ZM55.3885 4.43612V6.51879H49.9215V8.47128H54.0868V10.554H49.9215V12.7668H55.3885V14.8495H47.0579V4.43612H55.3885ZM60.0748 14.8495H57.4712V4.43612H65.5418V10.9445H60.0748V14.8495ZM75.955 4.43612H67.6239V6.51879H70.488V14.8495H73.091V6.51879H75.955V4.43612ZM62.6778 6.51879H60.0072V8.73164H62.6778V6.51879Z" fill="#EC2227"/>
</g>
<defs>
<clipPath id="clip0">
<rect width="147.11" height="17.7825" fill="white" transform="translate(0.17041 0.243164)"/>
</clipPath>
</defs>
</svg>
