<svg width="125" height="38" viewBox="0 0 125 38" fill="none" xmlns="http://www.w3.org/2000/svg">
<g clip-path="url(#clip0)">
<path d="M8.28199 13.3574H7.04443V24.4954H8.28199V13.3574Z" fill="#4A56A6"/>
<path d="M15.8839 23.3482C13.4088 23.3482 11.3757 21.3151 11.3757 18.9284C11.3757 16.4532 13.4088 14.5086 15.8839 14.5086C17.1215 14.5086 18.3591 15.0389 19.1546 15.9229L19.9502 15.0389C18.8894 14.0666 17.3867 13.4478 15.8839 13.4478C12.6132 13.4478 10.0498 15.9229 10.0498 19.0168C10.0498 22.199 12.6132 24.6742 15.7956 24.6742C17.2983 24.6742 18.8011 24.0554 19.9502 22.9946L19.1546 22.1107C18.2707 22.8179 17.1215 23.3482 15.8839 23.3482Z" fill="#4A56A6"/>
<path d="M25.9612 13.3574C22.6905 13.3574 20.127 15.8325 20.127 18.9264C20.127 22.0203 22.6905 24.5838 25.9612 24.5838C29.2319 24.5838 31.7954 22.1087 31.7954 18.9264C31.7954 15.7442 29.2319 13.3574 25.9612 13.3574ZM25.9612 23.3462C23.4861 23.3462 21.453 21.3131 21.453 18.9264C21.453 16.4513 23.4861 14.5066 25.9612 14.5066C28.4363 14.5066 30.4694 16.4513 30.4694 18.9264C30.5578 21.4015 28.4363 23.3462 25.9612 23.3462Z" fill="#4A56A6"/>
<path d="M52.1104 13.9621C50.1749 13.9621 48.6794 14.7538 47.6238 16.0733V8.50781H42.6094V29.5332H47.6238V27.5098C48.6794 28.9174 50.2629 29.6211 52.1984 29.6211C56.421 29.6211 59.2361 26.5421 59.2361 21.8796C59.2361 17.129 56.421 13.9621 52.1104 13.9621ZM50.8787 25.5744C48.9433 25.5744 47.6238 24.0789 47.6238 21.7915C47.6238 19.5044 48.9433 18.0089 50.8787 18.0089C52.9021 18.0089 54.2216 19.5923 54.2216 21.7915C54.2216 24.0789 52.8141 25.5744 50.8787 25.5744Z" fill="#4A56A6"/>
<path d="M68.0333 13.9604C63.2828 13.9604 60.0278 17.1271 60.0278 21.8772C60.0278 26.5393 63.1068 29.6181 68.1212 29.6181C70.9364 29.6181 73.2237 28.6504 74.8072 26.8912L72.168 24.2522C71.1123 25.3078 69.8807 25.8356 68.5611 25.8356C66.8017 25.8356 65.57 24.868 65.0423 23.1087H75.6868C76.0388 17.5669 73.3997 13.9604 68.0333 13.9604ZM64.9543 20.4697C65.3062 18.7105 66.3619 17.5669 68.0333 17.5669C69.7048 17.5669 70.8484 18.7984 70.8484 20.4697H64.9543Z" fill="#4A56A6"/>
<path d="M86.6838 13.9604C84.4844 13.9604 82.7247 14.9281 81.581 16.6876V14.2244H76.5669V29.5315H81.581V21.438C81.7572 19.6786 82.901 18.5349 84.5725 18.5349C86.156 18.5349 87.2116 19.5906 87.2116 21.3501V29.5315H92.2263V19.8546C92.2263 16.2476 89.9388 13.9604 86.6838 13.9604Z" fill="#4A56A6"/>
<path d="M101.111 25.5731C99.2638 25.5731 98.032 24.0776 98.032 21.8782C98.032 19.679 99.2638 18.1835 101.111 18.1835C102.431 18.1835 103.398 18.7993 104.102 19.767L107.709 17.6555C106.389 15.3684 103.926 14.0488 100.847 14.0488C96.0961 14.0488 92.9292 17.2157 92.9292 21.9662C92.9292 26.6288 96.0961 29.7078 100.759 29.7078C104.014 29.7078 106.477 28.3882 107.709 26.0129L104.014 23.9017C103.486 25.0453 102.431 25.5731 101.111 25.5731Z" fill="#4A56A6"/>
<path d="M118.705 13.9621C116.506 13.9621 114.747 14.9298 113.603 16.6892V8.50781H108.588V29.5332H113.603V21.9676C113.603 19.9442 114.747 18.5366 116.594 18.5366C118.177 18.5366 119.233 19.5923 119.233 21.3517V29.5332H124.248V19.8562C124.248 16.2494 122.048 13.9621 118.705 13.9621Z" fill="#4A56A6"/>
<path fill-rule="evenodd" clip-rule="evenodd" d="M0.578125 0.424805H37.7598V37.6065H0.578125V0.424805ZM2.19472 2.0414V35.9899H36.1432V2.0414H2.19472Z" fill="#4A56A6"/>
</g>
<defs>
<clipPath id="clip0">
<rect width="123.67" height="37.1817" fill="white" transform="translate(0.578125 0.424805)"/>
</clipPath>
</defs>
</svg>
