<svg width="130" height="57" viewBox="0 0 130 57" fill="none" xmlns="http://www.w3.org/2000/svg">
<g clip-path="url(#clip0)">
<path d="M47.6986 40.2135L64.0091 49.599C64.4345 49.8465 64.918 49.9769 65.4102 49.9769C65.9024 49.9769 66.3858 49.8465 66.8113 49.599L83.1217 40.2135C83.5711 39.9447 83.9478 39.5688 84.183 39.1201H81.0753L65.8313 47.8973C65.5802 48.0407 65.2644 48.0407 65.0053 47.8973L49.7451 39.1201H46.6377C46.871 39.568 47.2484 39.9439 47.6986 40.2135Z" fill="#444444"/>
<path d="M63.9552 13.4713L56.6616 17.6809H60.6137L64.9432 15.1914C65.0862 15.1121 65.247 15.0705 65.4105 15.0705C65.574 15.0705 65.7348 15.1121 65.8778 15.1914L70.2072 17.6809H74.1594L66.8658 13.4713C65.9855 12.9529 64.8541 12.9529 63.956 13.4713H63.9552Z" fill="#444444"/>
<path d="M42.8291 17.6842V15.8944C42.8291 15.5899 42.9911 15.3032 43.2599 15.1599L64.9965 2.63948C65.2661 2.49614 65.5893 2.49614 65.8589 2.63948L87.5957 15.1599C87.8648 15.3032 88.0265 15.5891 88.0265 15.8944V17.6842H90.0028V15.8944C90.0028 14.8902 89.4628 13.9588 88.5834 13.4583L66.847 0.937974C66.4146 0.691582 65.9254 0.562012 65.4277 0.562012C64.9299 0.562012 64.4408 0.691582 64.0084 0.937974L42.2718 13.4583C41.3915 13.9588 40.853 14.8902 40.853 15.9114V17.7029H42.8291V17.685V17.6842Z" fill="#444444"/>
<path d="M65.4094 43.7063C65.9115 43.7063 66.4152 43.5808 66.8647 43.3119L74.1583 39.103H70.2062L65.8953 41.6104C65.7523 41.6897 65.5916 41.7312 65.428 41.7312C65.2645 41.7312 65.1038 41.6897 64.9608 41.6104L60.6313 39.1209H56.6792L63.9727 43.3305C64.4036 43.5735 64.9065 43.7063 65.4103 43.7063H65.4094Z" fill="#444444"/>
<path d="M88.0095 39.1209V40.9122C88.0095 41.2168 87.847 41.5035 87.5787 41.6468L65.8409 54.1664C65.5713 54.3098 65.2481 54.3098 64.9785 54.1664L43.2419 41.646C42.9722 41.5027 42.8111 41.2168 42.8111 40.9114V39.1209H40.835V40.9122C40.835 41.9149 41.3735 42.8463 42.2538 43.3467L63.9904 55.8671C64.4212 56.11 64.9242 56.2429 65.4093 56.2429C65.8944 56.2429 66.3973 56.1174 66.8282 55.8671L88.5648 43.3467C89.445 42.8446 89.9833 41.9132 89.9833 40.8928V39.103H88.0079V39.1209H88.0095Z" fill="#444444"/>
<path d="M83.1397 16.5916L66.8212 7.20617C65.9586 6.70406 64.8808 6.70406 64.019 7.20617L47.7167 16.5916C47.2672 16.8605 46.8906 17.2363 46.6558 17.6849H49.7632L65.0152 8.90772C65.1415 8.83748 65.2837 8.80062 65.4282 8.80062C65.5728 8.80062 65.7149 8.83748 65.8413 8.90772L81.0925 17.6841H84.2002C83.9569 17.2363 83.5891 16.8419 83.1389 16.5908L83.1397 16.5916Z" fill="#444444"/>
<path d="M2.5873 36.6245H0.39502V20.1602H2.5873V36.6245Z" fill="#444444"/>
<path d="M18.3617 33.2215C18.4864 33.2215 18.5933 33.2758 18.6824 33.3674L19.5376 34.3262C18.8783 35.1036 18.0758 35.719 17.1137 36.1531C16.1516 36.5871 15.0283 36.8042 13.6912 36.8042C12.5145 36.8042 11.4641 36.6049 10.5191 36.1887C9.57392 35.7725 8.75358 35.2121 8.09513 34.4703C7.43672 33.7285 6.9006 32.8425 6.52645 31.8109C6.15229 30.7792 5.97412 29.6397 5.97412 28.3911C5.97412 27.1423 6.17011 26.0216 6.56208 24.9721C6.94595 23.9412 7.50718 23.0544 8.23767 22.3126C8.96358 21.5623 9.83751 20.971 10.8041 20.5764C11.8026 20.1602 12.9065 19.9609 14.1196 19.9609C15.3134 19.9609 16.3467 20.1415 17.2028 20.5221C18.0588 20.9028 18.8428 21.4088 19.5027 22.0421L18.79 23.073C18.7366 23.146 18.6832 23.2188 18.6119 23.2536C18.5406 23.3079 18.4515 23.3265 18.309 23.3265C18.2021 23.3265 18.113 23.2901 18.0062 23.218L17.6141 22.9467C17.4716 22.8382 17.2935 22.7297 17.0797 22.6033C16.8659 22.477 16.6342 22.3604 16.3492 22.26C16.031 22.1414 15.7032 22.0506 15.3693 21.9887C14.9951 21.9158 14.5594 21.8802 14.0856 21.8802C13.2126 21.8802 12.4279 22.026 11.6966 22.3337C10.9839 22.6414 10.3603 23.0755 9.84195 23.618C9.32529 24.1792 8.91548 24.8651 8.62967 25.662C8.34376 26.4588 8.20203 27.3626 8.20203 28.3587C8.20203 29.3896 8.34457 30.3022 8.62967 31.1087C8.88881 31.8626 9.29482 32.5575 9.82417 33.1536C10.3231 33.714 10.9118 34.1302 11.6058 34.4201C12.3061 34.7112 13.0576 34.8588 13.8159 34.8541C14.297 34.8541 14.7246 34.8177 15.1174 34.7635C15.5101 34.7092 15.8657 34.6176 16.1864 34.4922C16.5071 34.3667 16.8278 34.2208 17.0951 34.0225C17.3801 33.8418 17.6652 33.6062 17.9502 33.3527C18.1285 33.2799 18.2532 33.2264 18.36 33.2264L18.3617 33.2215Z" fill="#444444"/>
<path fill-rule="evenodd" clip-rule="evenodd" d="M36.9331 31.8118C37.3073 30.7808 37.5033 29.6414 37.5033 28.4104C37.5033 27.1794 37.3073 26.0399 36.9331 25.009C36.5794 24.0211 36.0274 23.1161 35.311 22.3494C34.6161 21.6076 33.7602 21.0294 32.7802 20.6123C31.8003 20.1952 30.7126 19.9976 29.5189 19.9976C28.3252 19.9976 27.2375 20.1968 26.2568 20.6131C25.2761 21.0294 24.4208 21.6092 23.726 22.3502C23.0311 23.0912 22.495 23.978 22.1039 25.0098C21.7297 26.0407 21.5337 27.181 21.5337 28.4104C21.5337 29.6591 21.7119 30.7808 22.1039 31.8118C22.4576 32.7996 23.0096 33.7047 23.726 34.4713C24.4387 35.231 25.2769 35.7914 26.2568 36.2085C27.2367 36.6255 28.3244 36.824 29.5189 36.824C30.7134 36.824 31.8003 36.6247 32.781 36.2085C33.7618 35.7922 34.617 35.2124 35.3119 34.4713C36.0067 33.7303 36.5412 32.8435 36.9339 31.8118H36.9331ZM34.8478 25.6974C35.115 26.4934 35.2575 27.398 35.2575 28.4104C35.2575 29.4227 35.115 30.3281 34.8478 31.1234C34.5805 31.9187 34.1886 32.5811 33.6897 33.1496C33.1908 33.6922 32.5843 34.1264 31.8716 34.4163C31.1767 34.7054 30.3733 34.8504 29.5011 34.8504C28.6288 34.8504 27.8433 34.7046 27.1307 34.4163C26.418 34.128 25.8106 33.7117 25.3125 33.1496C24.8137 32.6071 24.4217 31.9187 24.1544 31.1234C23.8871 30.3281 23.7446 29.4227 23.7446 28.4104C23.7446 27.4143 23.8871 26.4926 24.1544 25.6974C24.3944 24.9428 24.7891 24.2466 25.3133 23.6532C25.8114 23.0912 26.4172 22.675 27.1299 22.3681C27.8425 22.0611 28.628 21.9145 29.5003 21.9145C30.3725 21.9145 31.1581 22.0603 31.8708 22.3681C32.5834 22.6758 33.1908 23.092 33.6889 23.6524C34.1869 24.2129 34.5797 24.9013 34.847 25.6965L34.8478 25.6974Z" fill="#444444"/>
<path d="M53.6522 36.6245H51.4414V29.1334H42.7095V36.6245H40.4985V20.1602H42.7095V27.5056H51.443V20.1602H53.6538V36.6245H53.6522Z" fill="#444444"/>
<path fill-rule="evenodd" clip-rule="evenodd" d="M72.0986 31.8118C72.4727 30.7808 72.6688 29.6414 72.6688 28.4104C72.6688 27.1794 72.4727 26.0399 72.0986 25.009C71.745 24.0211 71.1929 23.1161 70.4765 22.3494C69.7816 21.6076 68.9256 21.0294 67.9456 20.6123C66.9657 20.1952 65.8781 19.9976 64.6844 19.9976C63.4906 19.9976 62.403 20.1968 61.4223 20.6131C60.4416 21.0294 59.5863 21.6092 58.8915 22.3502C58.1966 23.0912 57.6604 23.978 57.2693 25.0098C56.8951 26.0407 56.6992 27.181 56.6992 28.4104C56.6992 29.6591 56.8774 30.7808 57.2693 31.8118C57.623 32.7996 58.1751 33.7047 58.8915 34.4713C59.6042 35.231 60.4424 35.7914 61.4223 36.2085C62.4022 36.6255 63.4898 36.824 64.6844 36.824C65.8789 36.824 66.9657 36.6247 67.9464 36.2085C68.9272 35.7922 69.7824 35.2124 70.4773 34.4713C71.1721 33.7303 71.7066 32.8435 72.0994 31.8118H72.0986ZM69.9954 25.6974C70.2627 26.4934 70.4052 27.398 70.4052 28.4104C70.4052 29.4227 70.2805 30.3281 69.9954 31.1234C69.7282 31.9195 69.3362 32.5811 68.8373 33.1496C68.3298 33.6982 67.7096 34.1303 67.0192 34.4163C66.3243 34.7054 65.521 34.8504 64.6487 34.8504C63.7765 34.8504 62.9909 34.7046 62.2783 34.4163C61.5656 34.128 60.9582 33.7117 60.4601 33.1496C59.9613 32.6071 59.5693 31.9187 59.3021 31.1234C59.0348 30.3281 58.8923 29.4227 58.8923 28.4104C58.8923 27.4143 59.0348 26.4926 59.3021 25.6974C59.5693 24.8835 59.9613 24.2137 60.4601 23.6532C60.959 23.0929 61.5648 22.675 62.2791 22.3681C62.9934 22.0611 63.7773 21.9145 64.6496 21.9145C65.5218 21.9145 66.3073 22.0603 67.02 22.3681C67.7326 22.6758 68.3401 23.092 68.8382 23.6524C69.3362 24.2129 69.729 24.9013 69.9962 25.6965L69.9954 25.6974Z" fill="#444444"/>
<path d="M77.8558 34.7619H84.8773V36.6245H75.6636V20.1602H77.8558V34.7619Z" fill="#444444"/>
<path fill-rule="evenodd" clip-rule="evenodd" d="M100.777 31.776C101.151 30.7636 101.346 29.6412 101.346 28.4109C101.346 27.1808 101.151 26.0591 100.777 25.046C100.402 24.0329 99.868 23.1647 99.1543 22.4407C98.4414 21.7167 97.604 21.1563 96.6155 20.757C95.6277 20.3578 94.5559 20.1602 93.3621 20.1602H87.3022V36.6245H93.3621C94.5567 36.6245 95.6439 36.4253 96.6243 36.0277C97.5967 35.6471 98.4608 35.0866 99.1551 34.3634C99.8503 33.6588 100.386 32.7891 100.777 31.776H100.777ZM98.6912 25.6972C98.9587 26.4932 99.101 27.3978 99.101 28.4101C99.101 29.4225 98.9587 30.3101 98.6912 31.107C98.4244 31.9039 98.0324 32.5647 97.5329 33.1154C97.0342 33.6767 96.4287 34.0921 95.715 34.3821C95.0013 34.672 94.2172 34.8161 93.3443 34.8161H89.4944V21.9694H93.3435C94.2172 21.9694 95.0013 22.1151 95.7142 22.4034C96.4271 22.6917 97.0342 23.1275 97.5321 23.6701C98.0316 24.2313 98.4236 24.9011 98.6904 25.6963L98.6912 25.6972Z" fill="#444444"/>
<path d="M114.323 20.1775V21.9876H106.534V27.4517H112.843V29.1888H106.534V34.7979H114.323V36.6071H104.342V20.1411H114.323V20.1775Z" fill="#444444"/>
<path fill-rule="evenodd" clip-rule="evenodd" d="M119.883 36.6416V29.7481H121.594C121.898 29.7481 122.13 29.8024 122.272 29.8745C122.434 29.9779 122.573 30.1131 122.682 30.2721L126.888 36.1516C127.084 36.4594 127.387 36.6213 127.779 36.6213H129.723L124.998 30.0923C124.784 29.7846 124.534 29.5497 124.268 29.3877C124.855 29.256 125.42 29.0364 125.943 28.7366C126.424 28.4475 126.852 28.1033 127.19 27.7056C127.529 27.308 127.796 26.8553 127.974 26.3484C128.152 25.8414 128.241 25.2988 128.241 24.7205C128.241 24.0322 128.117 23.4005 127.885 22.8392C127.653 22.278 127.279 21.7896 126.797 21.392C126.316 20.9944 125.694 20.702 124.945 20.485C124.196 20.2857 123.324 20.1772 122.29 20.1772H117.709V36.6416H119.883ZM122.184 28.1381H119.883V21.9144H122.289C123.555 21.9144 124.499 22.1573 125.14 22.6562C125.779 23.1551 126.102 23.9034 126.102 24.8817C126.105 25.334 126.021 25.7826 125.853 26.2025C125.678 26.595 125.423 26.9463 125.104 27.2335C124.765 27.5226 124.356 27.7397 123.873 27.9033C123.391 28.0669 122.821 28.1463 122.18 28.1463L122.184 28.1381Z" fill="#444444"/>
</g>
<defs>
<clipPath id="clip0">
<rect width="129.328" height="55.7725" fill="white" transform="translate(0.39502 0.562012)"/>
</clipPath>
</defs>
</svg>
