<svg width="138" height="46" viewBox="0 0 138 46" fill="none" xmlns="http://www.w3.org/2000/svg">
<g clip-path="url(#clip0)">
<path d="M72.4348 16.6275C66.5087 16.6275 63.6062 21.1518 63.6062 25.4782C63.6062 29.8211 66.5087 34.3398 72.4348 34.3398C78.3829 34.3398 81.2851 29.8155 81.2851 25.4892C81.2851 21.1628 78.3719 16.6385 72.4348 16.6385V16.6275ZM72.4348 35.3953C65.7995 35.3953 62.5066 30.2938 62.5066 25.5002C62.5066 20.7065 65.805 15.605 72.4348 15.605C79.0975 15.605 82.3852 20.7065 82.3852 25.5002C82.3852 30.3048 79.0975 35.4063 72.4348 35.4063V35.3953ZM54.9533 34.3618C57.0644 34.3618 58.8729 33.8671 60.3517 32.9655V34.065C58.6309 34.976 56.7078 35.4374 54.7609 35.4063C49.9893 35.4063 44.8328 32.2178 44.8328 25.731C44.8603 19.0133 49.9068 15.616 54.7609 15.616C56.685 15.616 58.5706 16.0833 60.1318 16.9354V18.0348C58.5401 17.1208 56.7338 16.6465 54.8984 16.6605C50.5336 16.6605 45.9543 19.629 45.9267 25.742C45.9267 31.6351 50.5885 34.3728 54.9533 34.3728V34.3618ZM39.2915 15.8854H40.3909V35.082H39.2915V15.8854Z" fill="#444444"/>
<path d="M129.568 16.9244H124.495V26.8744H129.568C133.268 26.8744 136.451 25.8299 136.451 21.8829C136.451 17.9634 133.295 16.9189 129.568 16.9189V16.9244ZM129.513 27.9134H124.495V35.082H123.395V15.8854H129.513C133.79 15.8854 137.54 17.2267 137.54 21.8884C137.54 26.5776 133.785 27.9244 129.513 27.9244V27.9134ZM109.03 16.6275C103.11 16.6275 100.202 21.1518 100.202 25.4782C100.202 29.821 103.115 34.3398 109.03 34.3398C114.984 34.3398 117.881 29.8155 117.881 25.4892C117.881 21.1628 114.978 16.6385 109.03 16.6385V16.6275ZM109.03 35.3953C102.39 35.3953 99.0971 30.2938 99.0971 25.5002C99.0971 20.7065 102.395 15.605 109.025 15.605C115.687 15.605 118.975 20.7065 118.975 25.5002C118.975 30.3048 115.687 35.4062 109.025 35.4062L109.03 35.3953ZM91.2355 16.9464V35.082H90.1363V16.9244H82.9238V15.8799H98.448V16.9244L91.2355 16.9464Z" fill="#13A4DE"/>
<path d="M17.2804 11.9388H16.6207V0.87822L17.2254 0.372469V0.361472L17.2529 0.333984H17.2639H17.2694H17.2859V0.35048L17.8906 0.861729V11.9388H17.2804ZM14.5317 11.9388V2.99468L15.917 1.60386L15.972 11.9388H14.5317ZM12.4702 14.0003V8.50297L13.8006 7.11216V12.6094L12.4702 14.0003ZM18.5173 11.9443L18.5832 1.59837L19.974 2.98918V11.9388L18.5173 11.9443ZM20.6997 12.604V7.10667L22.03 8.49198V14.0003L20.6997 12.604Z" fill="#444444"/>
<path d="M17.0766 14.4332C16.362 27.9456 13.8332 31.5683 12.8052 32.4864C13.0471 32.5413 13.267 32.6403 13.4649 32.7777C13.7609 32.4485 14.1695 32.2423 14.6101 32.1995C15.0508 32.1567 15.4914 32.2807 15.8452 32.5468C16.7426 32.123 17.7173 31.8877 18.7092 31.8556C19.701 31.8234 20.689 31.9951 21.6119 32.3599C20.5124 31.2604 18.1706 27.4124 17.4724 14.5156C17.401 13.7845 17.3295 13.5151 17.269 13.5151C17.1921 13.5151 17.126 13.9714 17.0766 14.4332ZM30.3471 31.3649C30.3455 31.7196 30.4012 32.0724 30.512 32.4093C30.2013 31.9115 30.0374 31.3361 30.0393 30.7492V30.5843C29.3735 30.9439 28.8136 31.4717 28.4153 32.115C28.017 32.7583 27.7941 33.4947 27.7689 34.251C27.6495 33.7144 27.6518 33.1581 27.7754 32.6225C27.899 32.0869 28.141 31.5858 28.4835 31.156C27.64 30.9535 26.7539 31.0238 25.9528 31.3567C25.1518 31.6895 24.4769 32.268 24.0252 33.0086C24.6353 33.1905 25.1857 33.5321 25.6194 33.9981L25.7844 33.9871C26.0863 33.9884 26.3836 34.0611 26.652 34.1994C26.9204 34.3376 27.1523 34.5374 27.3288 34.7824C27.5052 35.0275 27.6211 35.3108 27.667 35.6091C27.7129 35.9076 27.6875 36.2126 27.5929 36.4994L27.6039 36.2575C27.6058 35.9453 27.5357 35.6369 27.3992 35.3563C27.2627 35.0756 27.0634 34.83 26.8168 34.6387C26.5702 34.4474 26.2828 34.3153 25.9771 34.2528C25.6712 34.1904 25.3551 34.1991 25.0532 34.2784C24.6334 34.385 24.2581 34.6217 23.9812 34.9547C23.9459 34.987 23.9111 35.0201 23.8768 35.0536C23.96 34.8388 24.0869 34.6439 24.2498 34.481C24.4126 34.3182 24.6076 34.1911 24.8223 34.1081C24.3748 33.8179 23.8724 33.6228 23.3464 33.5348C22.8203 33.4469 22.2819 33.468 21.7643 33.5969C21.2467 33.7257 20.7612 33.9596 20.3378 34.2839C19.9144 34.6083 19.5622 35.0162 19.303 35.4824L19.5504 35.4714C20.4465 35.4714 21.2656 35.8012 21.9033 36.3344C22.0771 35.9956 22.347 35.7156 22.6793 35.5295C23.0115 35.3434 23.3913 35.2595 23.7711 35.2882C24.1508 35.317 24.5136 35.4572 24.814 35.6912C25.1145 35.9252 25.3392 36.2427 25.46 36.6038C25.2959 36.3011 25.0562 36.0461 24.7641 35.8638C24.472 35.6816 24.1376 35.5781 23.7936 35.5637C23.4497 35.5493 23.1078 35.6244 22.8015 35.7817C22.4952 35.9389 22.235 36.1729 22.0462 36.4608C22.5522 36.9312 22.9144 37.5355 23.0906 38.2035C22.7217 37.5094 22.1506 36.9437 21.453 36.5814C20.7554 36.2189 19.9642 36.0769 19.1841 36.1741C18.4041 36.2711 17.6719 36.6029 17.0845 37.1253C16.4971 37.6478 16.0822 38.3362 15.8947 39.0996C15.9002 38.1101 16.296 37.2305 16.9282 36.5709C16.4363 36.3814 15.8938 36.3694 15.3941 36.537C14.8943 36.7046 14.4688 37.0412 14.1906 37.4889C14.2821 37.1779 14.4418 36.8911 14.6581 36.6496C14.8743 36.408 15.1417 36.2176 15.4407 36.0923C15.7397 35.9671 16.0629 35.9099 16.3868 35.9252C16.7107 35.9405 17.027 36.0277 17.313 36.1805C17.5983 35.9724 17.9158 35.8127 18.2531 35.7078C18.4485 35.6311 18.6511 35.5741 18.8577 35.5374C19.0088 35.0063 19.2825 34.5182 19.6568 34.1124C20.0312 33.7066 20.4956 33.3944 21.0127 33.201C20.2476 32.7786 19.3888 32.5548 18.5149 32.5501C17.641 32.5452 16.7799 32.7596 16.0101 33.1735C15.7181 32.9743 15.3807 32.8515 15.0289 32.8162C14.6771 32.781 14.3221 32.8344 13.9964 32.9716C13.6706 33.1088 13.3843 33.3255 13.1638 33.6017C12.9432 33.8781 12.7954 34.2052 12.7338 34.5533L12.7228 34.4323C12.7228 34.174 12.7777 33.9266 12.8547 33.7012C12.3216 33.5883 11.7664 33.651 11.2719 33.88C10.7774 34.1089 10.3704 34.4917 10.1116 34.9712C10.2545 34.4764 10.5348 34.0366 10.9141 33.6957C10.7562 33.2029 10.4616 32.7651 10.0644 32.4333C9.6674 32.1014 9.1842 31.8891 8.67126 31.8211C8.73439 31.5537 8.736 31.2753 8.67619 31.007C8.61629 30.7387 8.49642 30.4875 8.32555 30.2722C8.15467 30.0569 7.93725 29.8831 7.68959 29.7639C7.44193 29.6446 7.17048 29.583 6.89561 29.5838C6.31289 29.5838 5.79614 29.8586 5.4663 30.2819C5.58221 29.9183 5.82906 29.6107 6.15896 29.4189C5.98186 29.3304 5.78753 29.2816 5.58961 29.2761C5.3917 29.2706 5.19497 29.3085 5.01323 29.3871C4.8315 29.4657 4.66913 29.583 4.53753 29.731C4.40593 29.8789 4.30827 30.0538 4.2514 30.2434C4.09558 30.1348 3.91846 30.0604 3.73177 30.0254C3.54507 29.9903 3.35306 29.9954 3.16843 30.0401C3.02801 29.4893 2.70179 29.0038 2.24488 28.6657L2.26138 28.7207L2.23389 28.6877V32.0741C2.24488 32.4258 2.4153 35.1525 4.82862 36.6698L15.1526 42.6344C15.5373 42.7993 16.3235 43.0742 17.3185 43.0852V43.1072C18.0646 43.0985 18.8021 42.9454 19.4899 42.6564L29.7919 36.6753C32.2107 35.1635 32.3756 32.4313 32.3921 32.0796V28.3743L32.3866 28.3194C31.7836 28.5684 31.2679 28.9906 30.9049 29.5328C30.5418 30.0749 30.3478 30.7125 30.3471 31.3649Z" fill="url(#paint0_linear)"/>
<path fill-rule="evenodd" clip-rule="evenodd" d="M31.5405 38.0498L19.7873 44.8334C19.0041 45.1643 18.1636 45.338 17.3135 45.3447V45.3612V45.3447C16.4636 45.3352 15.6236 45.1616 14.8397 44.8334L3.09745 38.0498C0.348799 36.3291 0.150896 33.2121 0.128906 32.8163V19.128C0.145398 18.7267 0.337804 15.6097 3.09745 13.8946L11.14 9.24941V10.4588L3.90006 14.6587V14.6642C3.05811 15.1548 2.35964 15.8577 1.87442 16.7028C1.38919 17.5479 1.13419 18.5054 1.13491 19.4799V32.8493H1.14591C1.19651 33.6715 1.42886 34.4721 1.82621 35.1937C2.22356 35.9151 2.77602 36.5396 3.44378 37.0218H3.46027C3.74677 37.2298 4.05232 37.4102 4.37282 37.5605L14.1031 43.2502H14.1196C15.0548 43.9079 16.1702 44.2608 17.3135 44.2608C18.4568 44.2608 19.5722 43.9079 20.5074 43.2502H20.5294L30.2542 37.555C30.5745 37.4065 30.8801 37.228 31.1667 37.0218L31.1777 37.0163C32.497 36.0652 33.3766 34.559 33.4865 32.8383H33.4975V19.4799C33.4983 18.5054 33.2432 17.5479 32.758 16.7028C32.2728 15.8577 31.5744 15.1548 30.7324 14.6642V14.6587L23.344 10.3598V9.15039L31.535 13.8781C34.2837 15.5987 34.4816 18.7157 34.5035 19.1115V32.7998C34.4871 33.2011 34.2947 36.3181 31.535 38.0333" fill="#444444"/>
</g>
<defs>
<linearGradient id="paint0_linear" x1="17.313" y1="13.5206" x2="17.313" y2="43.1021" gradientUnits="userSpaceOnUse">
<stop stop-color="#1797D5"/>
<stop offset="1" stop-color="#ADDDF8"/>
</linearGradient>
<clipPath id="clip0">
<rect width="137.411" height="45.2647" fill="white" transform="translate(0.128906 0.333496)"/>
</clipPath>
</defs>
</svg>
