<svg width="147" height="22" viewBox="0 0 147 22" fill="none" xmlns="http://www.w3.org/2000/svg">
<g clip-path="url(#clip0)">
<path d="M35.918 8.90116L35.6677 10.1522H35.6051C35.2922 9.45242 34.4161 8.47705 32.4762 8.47705C29.3473 8.47705 26.1559 10.9369 25.4467 14.8173C24.8417 18.2102 26.4479 21.2001 30.1608 21.2001C31.5167 21.2001 33.0811 20.67 33.8947 19.5037H33.9572L33.7278 20.776H37.1904L39.3598 8.90116H35.918ZM34.7916 14.8173C34.5622 15.9836 33.4775 17.8709 31.3081 17.8709C29.1804 17.8709 28.7424 15.9625 28.9302 14.8598C29.1804 13.5026 30.3694 11.8062 32.3928 11.8062C34.3745 11.8274 35.042 13.4179 34.7916 14.8173Z" fill="#444444"/>
<path d="M41.3202 8.90116H44.5742L44.3448 10.1522H44.4074C44.8246 9.57973 45.638 8.47705 47.6406 8.47705L46.9939 12.0819C45.346 12.1031 44.1571 12.4424 43.8442 14.2661L42.6552 20.776H39.1509L41.3202 8.90116Z" fill="#444444"/>
<path d="M49.9978 4.25684H53.5021L51.8543 13.2054H51.9169L55.9635 8.90075H60.0728L54.7329 14.1173L57.7992 20.7756H53.8359L51.583 15.0503H51.5205L50.4984 20.7756H46.9731L49.9978 4.25684Z" fill="#444444"/>
<path d="M65.6841 8.47705C62.138 8.47705 58.9882 11.573 58.4041 14.8809C57.7576 18.401 60.0938 21.1789 63.4521 21.1789C64.6411 21.1789 65.8718 20.8184 66.9562 20.0975C68.0619 19.4189 69.0843 18.401 69.8766 17.0651H66.3099C65.7258 17.6801 65.0583 18.1678 63.9735 18.1678C62.6178 18.1678 61.5956 17.3408 61.6583 15.92H70.4189C70.5234 15.6443 70.5862 15.4323 70.6696 14.987C71.3369 11.361 69.251 8.47705 65.6841 8.47705ZM62.138 13.5238C62.4092 12.8241 63.3687 11.4882 65.1834 11.4882C66.9985 11.4882 67.4363 12.8241 67.4363 13.5238H62.138Z" fill="#444444"/>
<path d="M20.8157 4.25684L14.6414 13.6719H14.5997V4.25684H11.6168L0.686523 20.7756H4.92096L11.0536 11.3606H11.1161V20.7756H14.1199L20.2526 11.3606H20.3151V20.7756H23.8194V4.25684H20.8157Z" fill="#444444"/>
<path d="M79.5346 8.90089H77.3231L77.9699 5.38086H74.904L74.6533 6.738C74.3822 8.28602 73.4226 8.75249 72.1502 8.90089H72.1297L71.6079 11.594H73.3393L71.6707 20.7758H75.154L76.8226 11.594H79.0545L79.5346 8.90089Z" fill="#444444"/>
<path d="M133.602 16.2802C132.455 18.9733 129.722 21.1786 126.572 21.1786C123.026 21.1786 120.836 18.3371 121.462 14.7958C122.108 11.3182 125.279 8.47671 128.784 8.47671C131.871 8.47671 133.998 10.5761 134.061 13.4812H130.515C130.286 12.6542 129.763 11.8059 128.283 11.8059C126.635 11.7211 125.279 13.0994 124.966 14.8171C124.653 16.5559 125.53 17.8494 127.199 17.8494C128.637 17.8494 129.514 17.0012 130.014 16.2591H133.602V16.2802ZM104.649 0.0371094L97.8494 4.25692H99.7683L93.6147 13.672H93.5525V4.25692H90.5489L84.3945 13.672H84.3323V4.25692H80.8276V20.7757H83.8731L90.0267 11.3606H90.0898V20.7757H93.0934L103.982 4.25692H105.713L104.649 0.0371094ZM111.283 20.7757H107.82L108.049 19.5034H107.986C107.173 20.6697 105.608 21.1998 104.253 21.1998C100.54 21.1998 98.9333 18.2311 99.5388 14.8171C100.227 10.9366 103.44 8.47671 106.568 8.47671C108.487 8.47671 109.384 9.43098 109.697 10.152H109.76L110.01 8.90082H113.472L111.283 20.7757ZM105.401 17.8918C107.569 17.8918 108.654 15.9834 108.883 14.8383C109.134 13.4176 108.466 11.8272 106.484 11.8272C104.482 11.8272 103.272 13.5236 103.022 14.8807C102.834 15.9834 103.272 17.8918 105.401 17.8918ZM122.192 8.90082H120.002L120.648 5.3808H117.582L117.332 6.73794C117.061 8.28587 116.102 8.75242 114.829 8.90082H114.787L114.286 11.5938H116.018L114.348 20.7757H117.833L119.501 11.5938H121.733L122.192 8.90082ZM136.897 4.25692H140.381L139.317 10.152H139.381C140.131 9.0493 141.132 8.47671 142.676 8.47671C143.782 8.47671 145.054 8.90082 145.638 9.81266C146.388 10.979 146.305 12.0179 145.909 14.1385L144.72 20.7757H141.236L142.404 14.3082C142.509 13.7356 142.842 11.8059 140.986 11.8059C139.025 11.8059 138.692 13.5872 138.588 14.1809L137.398 20.7545H133.915L136.897 4.25692Z" fill="#4DB74D"/>
</g>
<defs>
<clipPath id="clip0">
<rect width="145.494" height="21.824" fill="white" transform="translate(0.686523 0.0371094)"/>
</clipPath>
</defs>
</svg>
