<svg width="147" height="30" viewBox="0 0 147 30" fill="none" xmlns="http://www.w3.org/2000/svg">
<g clip-path="url(#clip0)">
<path d="M74.222 25.8129C74.222 26.3145 74.222 26.4285 74.5628 26.7363L76.4711 28.6058V28.6855H68.0083V25.0948C67.1566 27.4614 64.9038 29.0264 62.3967 28.9933C58.0459 28.9933 54.888 25.5735 54.888 19.2812C54.888 13.3877 58.2958 9.45493 63.0782 9.45493C65.1981 9.32108 67.1708 10.5463 67.997 12.51V4.58746C68.0598 4.22059 67.9101 3.84962 67.6107 3.62992L65.7931 1.87443V1.79463L74.222 0.802898V25.8129ZM68.0083 24.673V12.852C67.3949 12.0875 66.4643 11.6499 65.4865 11.6664C63.4304 11.6664 61.4425 13.5359 61.4425 19.0873C61.4425 24.2854 63.1578 26.1207 65.2934 26.1207C66.3762 26.0985 67.3839 25.5611 68.0083 24.673ZM79.8336 28.6855V12.7265C79.8877 12.3701 79.7597 12.0104 79.4928 11.769L77.6185 9.83112V9.75134H86.0817V25.9383C86.0817 26.4399 86.0817 26.5539 86.422 26.8617L88.2851 28.6172V28.6969L79.8336 28.6855ZM79.5269 3.9149C79.5269 2.02621 81.0527 0.495117 82.935 0.495117C84.8167 0.495117 86.3428 2.02621 86.3428 3.9149C86.3428 5.8036 84.8167 7.33469 82.935 7.33469C81.0527 7.33469 79.5269 5.8036 79.5269 3.9149ZM108.915 25.7787C108.915 26.2803 108.915 26.4285 109.255 26.7363L111.163 28.6058V28.6855H102.655V24.5932C101.88 27.1808 99.5197 28.963 96.8272 28.9933C93.0565 28.9933 91.0342 26.2347 91.0342 21.0138C91.0342 18.4946 91.0342 15.736 91.1134 12.6353C91.1756 12.2883 91.0455 11.9346 90.7731 11.712L88.8986 9.83112V9.75134H97.2936C97.2936 9.86531 97.2936 19.6573 97.2936 20.1589C97.2936 23.5786 97.7932 25.8585 99.9287 25.8585C101.076 25.7866 102.109 25.1395 102.678 24.1373V12.7379C102.732 12.3815 102.604 12.0218 102.337 11.7804L100.452 9.83112V9.75134H108.915V25.7787ZM137.722 28.6855C137.722 28.07 137.835 20.2273 137.835 18.4262C137.835 15.0064 137.302 12.6467 134.905 12.6467C133.699 12.6841 132.582 13.2931 131.894 14.2882C132.135 15.354 132.249 16.4444 132.236 17.537C132.236 19.9081 132.155 22.9289 132.122 25.9497C132.059 26.2968 132.19 26.6505 132.463 26.8731L134.371 28.6286V28.7083H125.829C125.829 28.1384 125.942 20.2501 125.942 18.449C125.942 14.9722 125.409 12.6695 123.045 12.6695C121.88 12.7115 120.818 13.3479 120.228 14.3567V25.9839C120.228 26.4855 120.228 26.5995 120.569 26.9073L122.432 28.6628V28.7425H113.98V12.7836C114.034 12.4272 113.907 12.0674 113.64 11.826L111.765 9.83112V9.75134H120.228V13.8095C121.013 11.1301 123.514 9.33029 126.295 9.44354C129.111 9.44354 131.02 11.0166 131.827 14.0033C132.722 11.2488 135.301 9.40054 138.188 9.44354C141.959 9.44354 144.095 12.2364 144.095 17.5142C144.095 20.0335 144.016 22.9061 143.981 25.9269C143.915 26.2845 144.067 26.6473 144.367 26.8503L146.23 28.6058V28.6855H137.722ZM31.4077 26.2005L33.9182 28.6058V28.6855H21.1841V28.6058L23.74 26.2005C24.0126 25.9779 24.1431 25.6243 24.0808 25.2772V9.8995C24.0808 9.24979 24.0808 8.37203 24.1943 7.61967L15.6065 28.9933H15.5043L6.60972 9.32957C6.41661 8.83942 6.35981 8.80522 6.23486 8.47462V21.3672C6.12837 22.2301 6.27441 23.1055 6.65516 23.8864L10.2334 28.6058V28.6855H0.736816V28.6058L4.31509 23.875C4.69303 23.0972 4.83898 22.2264 4.73539 21.3672V7.11811C4.79357 6.41651 4.58224 5.71914 4.14469 5.16882L1.61151 1.87443V1.79463H10.6992L18.3101 18.449L25.0123 1.79463H33.9068V1.87443L31.4077 4.66726C31.1082 4.88696 30.9586 5.25792 31.0215 5.6248V25.2772C30.9553 25.6347 31.107 25.9976 31.4077 26.2005ZM41.37 18.4946V18.5744C41.37 23.4533 43.8805 25.414 46.8226 25.414C49.2794 25.4981 51.553 24.1158 52.616 21.8916H52.6956C51.6732 26.7135 48.697 28.9933 44.244 28.9933C39.4389 28.9933 34.9065 26.0865 34.9065 19.3495C34.9065 12.2706 39.4503 9.44354 44.4712 9.44354C48.5152 9.44354 52.8205 11.3586 52.8205 17.5142C52.8205 17.6283 52.8205 18.0387 52.8205 18.4946H41.37ZM41.37 17.5142H46.9703C46.9703 17.0127 46.9703 16.6707 46.9703 16.5225C46.9703 11.5068 45.9366 10.1731 44.3804 10.1731C42.4947 10.1731 41.3473 12.168 41.3473 17.5142H41.37Z" fill="#444444"/>
</g>
<defs>
<clipPath id="clip0">
<rect width="145.494" height="29.0987" fill="white" transform="translate(0.736816 0.495117)"/>
</clipPath>
</defs>
</svg>
