<svg width="146" height="48" viewBox="0 0 146 48" fill="none" xmlns="http://www.w3.org/2000/svg">
<g clip-path="url(#clip0)">
<path d="M21.5307 30.1171H20.2108C20.0882 29.7385 19.8711 29.2373 19.5592 28.6135C19.2473 27.9786 18.9131 27.405 18.5567 26.8927C18.1446 26.2913 17.7379 25.7956 17.337 25.4057C16.936 25.0159 16.5183 24.782 16.0839 24.704C15.6828 24.6372 15.2374 24.5927 14.7472 24.5704C14.2572 24.5369 13.7392 24.5203 13.1934 24.5203H9.80166V43.2322C9.80166 43.6444 9.89074 43.9952 10.069 44.2848C10.2472 44.5632 10.5257 44.7804 10.9044 44.9363C11.1383 45.0254 11.5059 45.1146 12.0071 45.2036C12.5083 45.2816 13.0263 45.3541 13.561 45.4208V46.724H0.39502V45.4208C0.718042 45.3874 1.14688 45.3428 1.68155 45.2872C2.21619 45.2204 2.58935 45.1424 2.80097 45.0533C3.20197 44.8974 3.48044 44.6802 3.63638 44.4016C3.79233 44.1233 3.87029 43.7668 3.87029 43.3324V26.6086C3.87029 26.23 3.7979 25.9014 3.65309 25.623C3.51942 25.3333 3.23538 25.0938 2.80097 24.9045C2.4891 24.7708 2.07697 24.6484 1.56459 24.5369C1.05221 24.4256 0.662348 24.3532 0.39502 24.3198V23.0166H21.5307V30.1171Z" fill="#BD2F23"/>
<path d="M48.648 46.7264H35.7327V45.4231C36.3341 45.3787 37.0414 45.2728 37.8546 45.1058C38.6676 44.9275 39.0742 44.7104 39.0742 44.4541C39.0742 44.365 39.0631 44.2647 39.0408 44.1534C39.0297 44.042 38.9851 43.8916 38.9072 43.7022L36.8854 38.7901H28.6986C28.5092 39.2468 28.2975 39.7814 28.0636 40.3941C27.8408 41.0067 27.6459 41.5525 27.4788 42.0315C27.2673 42.6553 27.1392 43.1064 27.0945 43.3848C27.0611 43.6633 27.0444 43.8582 27.0444 43.9695C27.0444 44.326 27.3117 44.6323 27.8464 44.8885C28.3922 45.1336 29.2945 45.3118 30.5531 45.4231V46.7264H20.8291V45.4231C21.1966 45.4009 21.6088 45.3452 22.0655 45.256C22.5333 45.1558 22.9008 45.0222 23.1682 44.8551C23.6248 44.5878 24.0091 44.2592 24.321 43.8693C24.644 43.4795 24.9114 43.0172 25.123 42.4826C26.4152 39.3526 27.7071 36.2171 28.9993 33.076C30.3025 29.9348 31.7394 26.4707 33.3099 22.6836H36.6516C38.8347 28.0524 40.5445 32.2963 41.781 35.415C43.0174 38.5339 44.0699 41.1181 44.9387 43.1676C45.0835 43.5018 45.2673 43.8081 45.4901 44.0866C45.7129 44.3539 46.0304 44.6101 46.4424 44.8551C46.7544 45.0333 47.1164 45.167 47.5285 45.256C47.9406 45.3452 48.3138 45.4009 48.648 45.4231V46.7264ZM36.2004 37.136L32.7586 28.548L29.3668 37.136H36.2004Z" fill="#BD2F23"/>
<path d="M66.9434 35.2971C67.6897 35.7538 68.2855 36.3554 68.7312 37.1017C69.1878 37.848 69.4162 38.7446 69.4162 39.7917C69.4162 42.0083 68.3302 43.8294 66.158 45.2551C63.986 46.6697 61.218 47.3771 57.8541 47.3771C54.9692 47.3771 52.6858 46.8257 51.0039 45.723C49.3219 44.6203 48.481 43.2223 48.481 41.5293C48.481 40.783 48.765 40.1147 49.3331 39.5243C49.9011 38.9228 50.5973 38.6221 51.4215 38.6221C52.3907 38.6221 53.1536 38.8727 53.7106 39.3739C54.2787 39.864 54.5627 40.5267 54.5627 41.3622C54.5627 41.997 54.4513 42.6265 54.2285 43.2502C54.0169 43.8628 53.8498 44.3417 53.7273 44.6871C54.1171 44.9655 54.5515 45.2162 55.0305 45.439C55.5207 45.6505 56.2223 45.7563 57.1357 45.7563C58.9068 45.7563 60.2992 45.2385 61.3128 44.2026C62.3264 43.1666 62.8332 41.741 62.8332 39.9253C62.8332 39.3572 62.772 38.7836 62.6494 38.2043C62.5268 37.614 62.293 37.1072 61.9476 36.6839C61.6135 36.2607 61.1122 35.9153 60.4439 35.648C59.7867 35.3696 58.9681 35.2303 57.9878 35.2303H55.7323V33.2254H57.3696C59.0293 33.2254 60.2044 32.8132 60.895 31.9889C61.5968 31.1647 61.9476 29.8671 61.9476 28.096C61.9476 27.5391 61.8697 27.01 61.7138 26.5088C61.569 26.0075 61.3461 25.5731 61.0455 25.2055C60.7335 24.8379 60.3436 24.5484 59.8759 24.3367C59.4192 24.1139 58.8789 24.0026 58.2551 24.0026C56.8071 24.0026 55.5151 24.643 54.3789 25.924C53.2427 27.2049 52.3293 29.0539 51.6388 31.471H50.1685L50.3189 23.0168H51.8226L52.8083 23.9357C53.6772 23.5125 54.6629 23.1504 55.7657 22.8498C56.8684 22.5378 58.127 22.3818 59.5417 22.3818C62.3041 22.3818 64.4761 22.8942 66.0578 23.919C67.6395 24.9326 68.4304 26.2804 68.4304 27.9623C68.4304 28.5082 68.3245 29.0817 68.1129 29.6833C67.9124 30.2847 67.5726 30.8306 67.0937 31.3207C66.6147 31.833 65.9687 32.3064 65.1556 32.7408C64.3425 33.1753 63.301 33.5317 62.0312 33.8102V34.0274C62.8332 34.0385 63.6685 34.1443 64.5375 34.3448C65.4173 34.5342 66.2193 34.8516 66.9434 35.2971Z" fill="#BD2F23"/>
<path d="M93.0575 29.0646H91.7876C91.4651 28.1625 90.9082 27.2491 90.1169 26.3246C89.3264 25.4002 88.5415 24.8544 87.7615 24.6874C87.4277 24.6094 86.9589 24.5648 86.3583 24.5537C85.7674 24.5314 85.2776 24.5203 84.888 24.5203H81.4455V33.6758H83.8849C84.4976 33.6758 85.0545 33.6034 85.5565 33.4586C86.0568 33.3138 86.5143 33.0353 86.9257 32.6232C87.182 32.367 87.4382 31.916 87.6944 31.27C87.962 30.6239 88.1341 30.0615 88.2125 29.5825H89.4824V39.4731H88.2125C88.1462 39.0053 87.9733 38.4206 87.6944 37.7188C87.4277 37.006 87.1714 36.5159 86.9257 36.2486C86.5588 35.8476 86.1239 35.5748 85.6227 35.43C85.1216 35.274 84.5421 35.1961 83.8849 35.1961H81.4455V42.0293C81.4455 42.7421 81.4956 43.3102 81.5958 43.7334C81.7074 44.1456 81.9078 44.463 82.198 44.6858C82.476 44.8974 82.8551 45.0366 83.3336 45.1034C83.8235 45.1702 84.4863 45.2036 85.3213 45.2036C85.7125 45.2036 86.1797 45.1981 86.7253 45.187C87.2709 45.1758 87.7502 45.1424 88.1624 45.0867C88.6296 45.031 89.0645 44.9475 89.4654 44.8361C89.8776 44.7247 90.184 44.5632 90.3844 44.3516C90.9195 43.8058 91.5209 42.9761 92.1885 41.8622C92.857 40.7373 93.2967 39.8964 93.5093 39.3394H94.7282L94.2772 46.724H72.0391V45.4208C72.351 45.3985 72.7743 45.3541 73.3089 45.2872C73.8436 45.2204 74.2223 45.1424 74.445 45.0533C74.8683 44.8751 75.1524 44.6523 75.2971 44.385C75.442 44.1065 75.5144 43.7557 75.5144 43.3324V26.6086C75.5144 26.2077 75.4532 25.8791 75.3306 25.623C75.2081 25.3557 74.9129 25.1162 74.445 24.9045C74.1554 24.7708 73.7489 24.6484 73.2254 24.5369C72.7019 24.4256 72.3064 24.3532 72.0391 24.3198V23.0166H93.0575V29.0646Z" fill="#BD2F23"/>
<path d="M118.772 29.7998H117.485C117.14 28.7861 116.583 27.7002 115.814 26.5418C115.058 25.3835 114.355 24.7598 113.709 24.6706C113.353 24.6261 112.912 24.5871 112.389 24.5537C111.866 24.5203 111.415 24.5035 111.036 24.5035H110.251V43.0985C110.251 43.4995 110.323 43.856 110.468 44.1678C110.612 44.4685 110.897 44.708 111.32 44.8862C111.576 44.9864 111.972 45.0923 112.506 45.2036C113.051 45.3039 113.514 45.3763 113.893 45.4208V46.724H100.676V45.4208C101 45.3874 101.451 45.3428 102.03 45.2872C102.62 45.2204 103.022 45.1424 103.233 45.0533C103.668 44.8751 103.957 44.6356 104.102 44.3349C104.247 44.0341 104.319 43.6777 104.319 43.2656V24.5035H103.534C103.155 24.5035 102.704 24.5203 102.181 24.5537C101.657 24.5871 101.217 24.6261 100.861 24.6706C100.215 24.7598 99.5076 25.3835 98.7389 26.5418C97.9816 27.7002 97.4303 28.7861 97.0843 29.7998H95.7983V23.0166H118.772V29.7998Z" fill="#BD2F23"/>
<path d="M145.889 46.7264H132.974V45.4231C133.575 45.3787 134.282 45.2728 135.095 45.1058C135.909 44.9275 136.315 44.7104 136.315 44.4541C136.315 44.365 136.305 44.2647 136.282 44.1534C136.271 44.042 136.226 43.8916 136.148 43.7022L134.126 38.7901H125.94C125.75 39.2468 125.538 39.7814 125.305 40.3941C125.081 41.0067 124.887 41.5525 124.72 42.0315C124.508 42.6553 124.38 43.1064 124.335 43.3848C124.302 43.6633 124.285 43.8582 124.285 43.9695C124.285 44.326 124.553 44.6323 125.087 44.8885C125.634 45.1336 126.536 45.3118 127.794 45.4231V46.7264H118.07V45.4231C118.437 45.4009 118.85 45.3452 119.306 45.256C119.774 45.1558 120.142 45.0222 120.409 44.8551C120.866 44.5878 121.25 44.2592 121.562 43.8693C121.885 43.4795 122.152 43.0172 122.364 42.4826C123.656 39.3526 124.948 36.2171 126.24 33.076C127.544 29.9348 128.98 26.4707 130.55 22.6836H133.893C136.076 28.0524 137.785 32.2963 139.021 35.415C140.259 38.5339 141.311 41.1181 142.18 43.1676C142.324 43.5018 142.508 43.8081 142.731 44.0866C142.954 44.3539 143.271 44.6101 143.684 44.8551C143.995 45.0333 144.357 45.167 144.769 45.256C145.182 45.3452 145.555 45.4009 145.889 45.4231V46.7264ZM133.442 37.136L130 28.548L126.608 37.136H133.442Z" fill="#BD2F23"/>
<path d="M65.284 16.6782H58.3852V15.897C58.6347 15.8897 58.9537 15.864 59.3424 15.82C59.7386 15.776 60.01 15.7137 60.1567 15.633C60.3841 15.4936 60.5491 15.336 60.6519 15.1599C60.7619 14.9765 60.8168 14.7492 60.8168 14.4777V3.12377H60.6519L55.3264 16.4252H54.7763L49.7039 2.84872H49.5609V12.1674C49.5609 13.0695 49.6159 13.7554 49.726 14.2247C49.8433 14.6942 50.0193 15.0316 50.2541 15.237C50.4154 15.3909 50.7492 15.5377 51.2554 15.6771C51.7615 15.8164 52.0916 15.8897 52.2456 15.897V16.6782H45.9409V15.897C46.271 15.8678 46.6158 15.8127 46.9753 15.732C47.3419 15.6514 47.6244 15.5304 47.8225 15.369C48.0792 15.1636 48.2552 14.8483 48.3506 14.4228C48.446 13.9974 48.4936 13.2859 48.4936 12.2884V4.30099C48.4936 3.8389 48.4386 3.46117 48.3286 3.16778C48.2185 2.8744 48.0609 2.63602 47.8555 2.45265C47.6281 2.25462 47.3493 2.10792 47.0193 2.01258C46.6892 1.91722 46.3628 1.86222 46.04 1.84755V1.06641H51.3654L55.8326 12.7725L59.6506 2.98075C59.79 2.62135 59.9073 2.24728 60.0026 1.85855C60.1054 1.46248 60.1603 1.19843 60.1677 1.06641H65.262V1.84755C65.0566 1.85489 64.7926 1.88789 64.4698 1.94656C64.1544 2.00524 63.9234 2.06025 63.7767 2.11159C63.5272 2.19961 63.3585 2.3463 63.2705 2.55167C63.1825 2.75704 63.1385 2.98075 63.1385 3.22279V14.4777C63.1385 14.7345 63.1825 14.9508 63.2705 15.127C63.3585 15.3029 63.5272 15.457 63.7767 15.589C63.9086 15.6624 64.1435 15.732 64.4808 15.7981C64.8183 15.8568 65.086 15.8897 65.284 15.897V16.6782Z" fill="#444444"/>
<path d="M80.006 2.91594C80.6956 3.63479 81.2347 4.50401 81.6234 5.52362C82.0122 6.53588 82.2062 7.65816 82.2062 8.89047C82.2062 10.1302 82.0082 11.256 81.6121 12.2683C81.2164 13.2806 80.6663 14.1425 79.9621 14.854C79.2799 15.5582 78.4877 16.101 77.5854 16.4825C76.6832 16.8639 75.7223 17.0546 74.7026 17.0546C73.617 17.0546 72.6121 16.8528 71.6879 16.4494C70.771 16.0386 69.9825 15.4703 69.3224 14.744C68.6621 14.0325 68.1414 13.1706 67.7599 12.1583C67.3858 11.1387 67.1987 10.0494 67.1987 8.89047C67.1987 7.62149 67.3968 6.49186 67.7929 5.50161C68.189 4.50401 68.7355 3.64212 69.4324 2.91594C70.1219 2.19708 70.9214 1.64694 71.8309 1.26551C72.7479 0.884076 73.7051 0.693359 74.7026 0.693359C75.737 0.693359 76.7126 0.887743 77.6295 1.27651C78.5463 1.66528 79.3386 2.21175 80.006 2.91594ZM78.3667 13.9848C78.7774 13.3174 79.0745 12.5618 79.2579 11.7182C79.4486 10.8747 79.5439 9.93204 79.5439 8.89047C79.5439 7.81954 79.4376 6.83662 79.2249 5.94172C79.0195 5.04683 78.715 4.28396 78.3116 3.65313C77.9082 3.02964 77.402 2.54551 76.7932 2.20075C76.1844 1.84866 75.4876 1.67261 74.7026 1.67261C73.8224 1.67261 73.0743 1.87433 72.4582 2.27778C71.842 2.68121 71.3395 3.22035 70.9507 3.8952C70.584 4.54069 70.3089 5.29623 70.1256 6.16178C69.9495 7.02734 69.8614 7.9369 69.8614 8.89047C69.8614 9.94675 69.9568 10.9004 70.1475 11.7512C70.3382 12.6021 70.639 13.3576 71.0498 14.0178C71.4458 14.6633 71.9447 15.1694 72.5461 15.5362C73.1476 15.8956 73.8665 16.0753 74.7026 16.0753C75.4876 16.0753 76.1954 15.8919 76.8263 15.5252C77.4571 15.1584 77.9706 14.645 78.3667 13.9848Z" fill="#444444"/>
<path d="M97.7866 16.6782H91.1844V15.897C91.3607 15.8824 91.6145 15.8568 91.9442 15.82C92.2813 15.7834 92.5165 15.7358 92.6483 15.6771C92.8681 15.5817 93.0257 15.4423 93.1211 15.259C93.2238 15.0756 93.2747 14.8409 93.2747 14.5548V9.60394H92.2409C91.397 9.60394 90.7447 9.77635 90.2824 10.121C89.8208 10.4657 89.3326 11.2102 88.8194 12.3544C88.4888 13.0952 88.1954 13.7773 87.9383 14.4009C87.6894 15.0242 87.404 15.7834 87.0807 16.6782H82.8008V15.897C82.9689 15.8751 83.1564 15.853 83.3617 15.8311C83.5743 15.8091 83.7837 15.7797 83.989 15.743C84.2897 15.6844 84.5322 15.5743 84.7148 15.4129C84.8983 15.2442 85.1004 14.9289 85.3194 14.4668C85.511 14.0488 85.7349 13.5683 85.9919 13.0255C86.2482 12.4828 86.4462 12.0574 86.586 11.7493C86.9158 11.0232 87.3014 10.4694 87.7411 10.088C88.1881 9.70667 88.749 9.40219 89.424 9.17489V9.02083C88.9034 8.91082 88.412 8.76045 87.9496 8.56974C87.4946 8.37171 87.0912 8.11867 86.7396 7.81062C86.3872 7.49523 86.1083 7.11749 85.903 6.67742C85.705 6.22999 85.6064 5.70924 85.6064 5.11513C85.6064 4.45501 85.7422 3.87191 86.013 3.36581C86.2845 2.85973 86.6515 2.43431 87.1131 2.08959C87.5536 1.75953 88.0749 1.50649 88.6755 1.33045C89.2777 1.15442 89.9049 1.06641 90.558 1.06641H97.7866V1.84755C97.5805 1.85489 97.3138 1.89155 96.9832 1.95756C96.6534 2.02357 96.4117 2.08226 96.2573 2.1336C96.0076 2.22161 95.8386 2.37198 95.7513 2.58468C95.6624 2.79739 95.6188 3.02475 95.6188 3.2668V14.5548C95.6188 14.8115 95.6592 15.0389 95.7392 15.237C95.8208 15.4276 95.993 15.5743 96.2573 15.6771C96.3891 15.7284 96.6202 15.776 96.9508 15.82C97.2798 15.864 97.5587 15.8897 97.7866 15.897V16.6782ZM93.2747 8.65776V1.95756H91.3833C90.4287 1.95756 89.6697 2.26561 89.1055 2.88173C88.5478 3.49051 88.2689 4.28265 88.2689 5.25816C88.2689 6.37302 88.5914 7.22018 89.2373 7.79961C89.8823 8.37171 90.7366 8.65776 91.8012 8.65776H93.2747Z" fill="#444444"/>
</g>
<defs>
<clipPath id="clip0">
<rect width="145.494" height="46.8813" fill="white" transform="translate(0.39502 0.693359)"/>
</clipPath>
</defs>
</svg>
