<svg width="146" height="40" viewBox="0 0 146 40" fill="none" xmlns="http://www.w3.org/2000/svg">
<path d="M2.87109 2.94678H9.22761L6.04935 5.74712L2.87109 2.94678Z" fill="#03CF5D"/>
<path d="M2.87109 2.94678H9.22761L6.04935 5.74712L2.87109 2.94678Z" fill="#C4C4C4"/>
<path d="M2.87109 5.74712H9.22761L6.04935 2.94678L2.87109 5.74712Z" fill="#C4C4C4"/>
<path d="M2.87109 5.74712H9.22761L6.04935 2.94678L2.87109 5.74712Z" fill="#03CF5D"/>
<path d="M4.98993 4.34695H14.8779V9.24759H4.28365V4.34695H4.98993ZM13.4653 8.54744H14.1716V7.84739H13.4653V8.54744ZM13.4653 7.1473H14.1716V6.44722H13.4653V7.1473ZM13.4653 5.74712H14.1716V5.04704H13.4653V5.74712ZM8.52132 5.04704H7.81505V5.74712H8.52132V5.04704ZM8.52132 6.44722H7.81505V7.1473H8.52132V6.44722ZM9.9339 5.04704H9.22761V5.74712H9.9339V5.04704ZM9.9339 6.44722H9.22761V7.1473H9.9339V6.44722ZM11.3465 5.04704H10.6402V5.74712H11.3465V5.04704ZM11.3465 6.44722H10.6402V7.1473H11.3465V6.44722ZM12.759 5.04704H12.0527V5.74712H12.759V5.04704ZM12.759 6.44722H12.0527V7.1473H12.759V6.44722ZM6.40249 8.54744H12.759V7.84739H6.40249V8.54744ZM6.40249 7.1473H7.10876V6.44722H6.40249V7.1473ZM6.40249 5.74712H7.10876V5.04704H6.40249V5.74712ZM4.98993 8.54744H5.69621V7.84739H4.98993V8.54744ZM4.98993 7.1473H5.69621V6.44722H4.98993V7.1473ZM4.98993 5.74712H5.69621V5.04704H4.98993V5.74712ZM15.5841 10.6477H2.87109V2.94678H16.2904V10.6477H15.5841ZM15.5841 3.64687H3.57737V9.94765H15.5841V3.64687Z" fill="#B4B4B4"/>
<path d="M4.98993 4.34695H14.8779V9.24759H4.28365V4.34695H4.98993ZM13.4653 8.54744H14.1716V7.84739H13.4653V8.54744ZM13.4653 7.1473H14.1716V6.44722H13.4653V7.1473ZM13.4653 5.74712H14.1716V5.04704H13.4653V5.74712ZM8.52132 5.04704H7.81505V5.74712H8.52132V5.04704ZM8.52132 6.44722H7.81505V7.1473H8.52132V6.44722ZM9.9339 5.04704H9.22761V5.74712H9.9339V5.04704ZM9.9339 6.44722H9.22761V7.1473H9.9339V6.44722ZM11.3465 5.04704H10.6402V5.74712H11.3465V5.04704ZM11.3465 6.44722H10.6402V7.1473H11.3465V6.44722ZM12.759 5.04704H12.0527V5.74712H12.759V5.04704ZM12.759 6.44722H12.0527V7.1473H12.759V6.44722ZM6.40249 8.54744H12.759V7.84739H6.40249V8.54744ZM6.40249 7.1473H7.10876V6.44722H6.40249V7.1473ZM6.40249 5.74712H7.10876V5.04704H6.40249V5.74712ZM4.98993 8.54744H5.69621V7.84739H4.98993V8.54744ZM4.98993 7.1473H5.69621V6.44722H4.98993V7.1473ZM4.98993 5.74712H5.69621V5.04704H4.98993V5.74712ZM15.5841 10.6477H2.87109V2.94678H16.2904V10.6477H15.5841ZM15.5841 3.64687H3.57737V9.94765H15.5841V3.64687Z" fill="#03CF5D"/>
<path fill-rule="evenodd" clip-rule="evenodd" d="M56.2659 32.3497L50.3332 23.2486V32.3497H43.8354V14.1475H50.192L56.1247 23.1786V14.1475H62.6225V32.3497H56.2659Z" fill="#03CF5D"/>
<path d="M79.4321 32.3497H86.2123L79.5733 14.1475H71.663L65.0239 32.3497H71.8043L72.5811 29.6893H78.7258L79.4321 32.3497ZM73.7818 25.5588L75.6888 19.048L77.5957 25.5588H73.7818Z" fill="#03CF5D"/>
<path fill-rule="evenodd" clip-rule="evenodd" d="M97.4419 32.3497L104.081 14.1475H97.5122L93.769 26.2589L90.0258 14.1475H83.3872L90.0258 32.3497H97.4419Z" fill="#03CF5D"/>
<path d="M124.351 32.3497H130.495V27.5373H132.261L135.44 32.3497H142.22L137.558 26.0727C139.748 25.1661 140.948 23.2836 140.948 20.7731C140.948 18.4019 140.101 16.728 138.406 15.612C136.923 14.6354 135.016 14.1475 132.19 14.1475H124.351V32.3497ZM134.168 22.1676C133.745 22.5163 133.18 22.6556 132.685 22.6556H130.283V19.0992H132.685C133.25 19.0992 133.815 19.2384 134.238 19.5871C134.592 19.9358 134.733 20.3544 134.733 20.9123C134.733 21.4003 134.521 21.8883 134.168 22.1676Z" fill="#03CF5D"/>
<path fill-rule="evenodd" clip-rule="evenodd" d="M121.597 32.3497V27.7991H112.909V25.4188H120.819V21.0783H112.909V18.698H121.384V14.1475H106.694V32.3497H121.597Z" fill="#03CF5D"/>
<g opacity="0.2">
<path opacity="0.2" fill-rule="evenodd" clip-rule="evenodd" d="M34.5121 24.0884C33.3114 22.4782 31.6163 21.218 30.4157 20.588C25.4717 17.9976 19.1152 16.4575 14.2419 19.0478C7.10847 22.8983 8.80358 29.5491 14.8069 33.3996C15.372 33.7496 15.5838 33.9596 15.937 34.0996C15.937 34.3096 16.0782 34.3797 16.2901 34.5197C16.7845 34.8697 17.7733 35.2898 18.4089 35.1498C18.5502 35.2198 18.6915 35.2198 18.8327 35.2898C23.9179 37.11 29.215 36.4099 32.6758 33.6796C34.724 32.0694 36.0659 30.3891 36.1366 27.8689C36.0659 26.3287 34.7946 24.4385 34.5121 24.0884Z" fill="#C5C5C5"/>
<path opacity="0.2" fill-rule="evenodd" clip-rule="evenodd" d="M34.9355 24.2986C34.2999 23.3885 31.5454 20.5882 30.3447 19.9581C25.4007 17.3677 19.3268 15.8276 14.3828 18.4179C7.24938 22.1984 8.7326 28.8492 14.6653 32.7697C15.2303 33.1197 15.5128 33.3298 16.0073 33.5398C16.0073 33.6798 16.0778 33.8198 16.2191 33.8898C16.7136 34.2398 17.6317 34.6599 18.1967 34.5199C18.2674 34.5199 18.6205 34.6599 18.6911 34.7299C23.847 36.6202 29.0028 35.85 32.5342 33.0497C34.5824 31.4395 35.9949 29.7593 35.9949 27.239C35.9243 26.2589 35.0768 24.4386 34.9355 24.2986Z" fill="#707070"/>
</g>
<path fill-rule="evenodd" clip-rule="evenodd" d="M35.9246 26.8891C35.9952 23.8787 32.4639 20.6583 30.345 19.5382C25.401 16.9479 19.4683 15.4076 14.5243 17.998C7.39093 21.7785 8.52096 28.4993 14.595 32.3497C21.3047 36.6203 28.0143 36.2002 32.5345 32.6998C34.5121 31.1596 35.9246 29.4794 35.9246 26.8891Z" fill="url(#paint0_radial)"/>
<path opacity="0.2" d="M20.1042 17.0877C23.0706 17.0877 26.3901 17.9979 29.9922 19.8881C33.5236 21.7783 35.3599 25.1387 35.3599 26.8189C35.3599 28.9192 34.3711 30.4594 32.0404 32.2796C29.7803 34.0298 27.167 34.9399 24.2007 34.9399C21.093 34.9399 17.8441 33.8898 14.8071 31.9295C11.6995 29.8993 10.0045 27.099 10.0751 24.5086C10.1458 22.0584 11.7702 19.8881 14.6659 18.4179C16.2903 17.5778 18.1973 17.0877 20.1042 17.0877ZM20.1042 16.5977C18.1266 16.5977 16.2197 17.0177 14.4541 17.9279C7.3206 21.7783 8.45067 28.4991 14.5246 32.3496C17.8441 34.5199 21.1637 35.43 24.2713 35.43C27.3789 35.43 30.2041 34.4499 32.4641 32.6997C34.5124 31.0895 35.9249 29.4093 35.9955 26.8189C36.0662 23.8086 32.5348 20.5881 30.4159 19.468C27.0964 17.8578 23.565 16.5977 20.1042 16.5977Z" fill="url(#paint1_radial)"/>
<path opacity="0.6" fill-rule="evenodd" clip-rule="evenodd" d="M32.3937 32.5606C27.9442 36.0611 21.1639 36.481 14.4542 32.2106C11.276 30.1803 9.51026 27.3099 9.51026 24.5796C9.4397 27.3799 11.276 30.2503 14.4542 32.3506C21.1639 36.6211 27.8736 36.201 32.3937 32.7006C34.442 31.0904 35.8545 29.4102 35.9251 26.8199V26.7499C35.7839 29.3402 34.442 31.0204 32.3937 32.5606Z" fill="#B6A466"/>
<path fill-rule="evenodd" clip-rule="evenodd" d="M24.6242 11.5581C20.8103 9.59779 17.0671 6.23743 15.5838 3.36707C14.9482 2.17693 13.465 3.78712 15.2307 7.42755C14.9482 7.56756 14.8069 8.68773 15.3013 10.0179C15.5132 10.5079 15.7957 10.998 16.1488 11.6281C16.0782 14.0083 18.5502 17.2288 21.0222 19.259C22.5054 20.4492 23.9886 21.2892 25.2599 21.7093C26.3899 22.0594 27.7318 22.2694 28.65 21.9893C28.65 21.9893 29.7094 21.7793 30.0626 20.6592C30.7688 18.2089 29.8507 14.2184 24.6242 11.5581Z" fill="url(#paint2_linear)"/>
<path opacity="0.8" fill-rule="evenodd" clip-rule="evenodd" d="M24.342 11.4872C19.3274 8.96692 16.9966 6.5166 15.5134 3.50623C14.8778 2.24608 13.8184 4.34633 15.4428 7.84677C14.9484 8.47684 15.3722 10.6471 16.926 12.8174C17.491 15.1977 18.9036 17.228 21.8699 19.7482C24.6951 22.1285 28.3678 22.9686 29.639 20.7284C31.1222 18.5581 29.7803 14.1475 24.342 11.4872Z" fill="url(#paint3_linear)"/>
<path fill-rule="evenodd" clip-rule="evenodd" d="M12.8999 21.778C11.9111 21.218 12.5468 19.7478 11.1342 21.078C8.73283 23.7383 9.65106 26.5387 10.6398 28.3589C12.7586 29.7591 19.8215 29.9691 20.7396 25.5585C15.4425 24.3684 13.2531 22.1281 12.8999 21.778Z" fill="url(#paint4_linear)"/>
<path fill-rule="evenodd" clip-rule="evenodd" d="M29.5686 26.6092C32.7469 23.8789 30.6987 18.4182 29.9218 17.158C29.498 16.458 28.933 15.7578 28.2267 15.1277C23.7065 11.3473 19.2569 12.5375 16.8556 14.0076C15.7256 14.6377 14.8074 15.6878 14.1011 16.668C12.1236 20.7984 12.9711 25.069 12.9711 25.069C18.5507 28.2194 24.766 28.0093 29.5686 26.6092Z" fill="url(#paint5_radial)"/>
<path opacity="0.4" fill-rule="evenodd" clip-rule="evenodd" d="M13.9596 16.8079C12.1938 20.6584 12.7588 24.7189 12.8295 25.0689C12.9001 25.209 12.9708 25.279 13.0414 25.279C12.9708 24.6489 12.4763 21.0084 14.0302 17.368C14.1008 17.1579 14.2421 17.0179 14.3834 16.8079C14.9484 16.0378 15.6546 15.2677 16.5021 14.7077C16.7846 14.4977 17.0671 14.3576 17.3497 14.2176C19.6804 13.0975 23.4943 12.2574 27.3788 15.1977C27.8733 15.5477 28.3676 15.9678 28.7208 16.4579C28.8621 16.5979 28.9327 16.7379 29.0739 16.8779C29.4271 17.298 29.7802 17.9981 30.0627 18.8381C30.6277 20.5184 31.334 23.5988 29.9215 25.6991H29.9921C31.9696 23.1787 30.6984 19.1882 29.9921 17.578C29.8509 17.368 29.7802 17.1579 29.6389 17.0179C29.2152 16.3879 28.9165 15.7578 28.2808 15.1977C23.4202 11.1358 19.0511 12.69 16.6497 14.0902C15.5197 14.7203 14.6658 15.8278 13.9596 16.8079Z" fill="#D6C486"/>
<path opacity="0.3" fill-rule="evenodd" clip-rule="evenodd" d="M29.5686 26.6092C32.7469 23.8789 30.6987 18.4182 29.9218 17.158C29.498 16.458 28.933 15.7578 28.2267 15.1277C23.7065 11.3473 19.2569 12.5375 16.8556 14.0076C15.7256 14.6377 14.8074 15.6878 14.1011 16.668C12.1236 20.7984 12.9711 25.069 12.9711 25.069C18.5507 28.2194 24.766 28.0093 29.5686 26.6092Z" fill="url(#paint6_radial)"/>
<path opacity="0.2" fill-rule="evenodd" clip-rule="evenodd" d="M34.8657 23.669C34.7244 23.459 34.442 23.669 34.2301 23.879C32.9588 25.1392 30.6986 28.2196 25.1897 29.8298C24.0596 30.1798 22.7883 30.5299 21.5877 30.88L21.1639 30.5299C21.0932 30.4599 20.8814 30.4599 20.8107 30.4599L18.9744 31.2299C18.7625 31.2999 18.7625 31.51 18.8331 31.58C18.9744 31.72 18.9744 31.79 18.9744 31.79C18.3388 32.0001 17.8443 32.2801 17.2087 32.6302C16.5731 32.9802 16.5731 33.2602 16.6437 33.3302C16.9968 33.6102 18.6213 34.2404 18.9744 34.3804C18.8331 34.3104 18.9744 33.9603 19.2569 33.8203C19.5394 33.6102 19.9632 33.4002 20.3164 33.2602L20.5989 33.5402C20.7401 33.6803 20.8814 33.6803 21.0227 33.6803L23.1414 32.9802C23.2827 32.9102 23.3533 32.7002 23.2121 32.5602C23.0708 32.4201 22.7883 32.3501 22.7883 32.3501C23.2827 32.1401 24.7659 31.65 25.684 31.3699C30.628 29.9698 32.4644 28.0796 34.2301 26.1193C34.6539 25.6293 35.1483 24.9292 35.2895 24.9992C35.3602 24.5791 35.1482 24.1591 34.8657 23.669Z" fill="url(#paint7_linear)"/>
<path fill-rule="evenodd" clip-rule="evenodd" d="M34.3711 23.3188C33.1705 24.649 30.8398 28.0095 25.472 29.5496C22.1525 30.4597 18.4798 31.8599 16.5729 33.1201C16.361 33.2601 16.4316 33.6101 16.5023 33.6801C16.9967 34.1001 18.1267 34.5202 18.5505 34.3102C18.4092 34.2402 18.7623 33.8901 18.9743 33.7501C20.6693 32.7 23.3531 31.7199 26.1783 30.9498C32.0404 29.1996 34.4418 25.6991 35.2186 24.719C35.3599 24.579 35.3599 24.579 35.5012 24.579C35.5718 24.299 35.4306 24.089 35.0068 23.4588C34.7243 23.3188 34.5124 23.1088 34.3711 23.3188Z" fill="url(#paint8_radial)"/>
<path fill-rule="evenodd" clip-rule="evenodd" d="M17.7029 32.9101C17.6323 32.8401 17.6323 32.7001 17.6323 32.5601C17.2792 32.7701 16.926 32.98 16.5729 33.1201C16.361 33.2601 16.4316 33.6102 16.5023 33.6803C16.9967 34.1003 18.1267 34.5203 18.5505 34.3103C18.4092 34.2403 18.7623 33.8902 18.9743 33.7502C19.1861 33.6102 19.2568 33.5401 19.5393 33.4001C18.833 33.3301 17.9148 33.1201 17.7029 32.9101Z" fill="url(#paint9_linear)"/>
<path opacity="0.4" fill-rule="evenodd" clip-rule="evenodd" d="M34.8657 23.4588C34.795 23.3188 34.5125 23.1088 34.3713 23.3188C34.1594 23.5289 33.9475 23.8089 33.665 24.089C33.8062 24.0189 33.9475 24.159 34.0888 24.299C34.5125 24.649 34.6538 24.789 34.795 25.069C34.9363 24.929 35.007 24.789 35.0776 24.719C35.2188 24.579 35.2895 24.579 35.4308 24.579C35.5013 24.299 35.3601 24.089 34.8657 23.4588Z" fill="url(#paint10_linear)"/>
<path fill-rule="evenodd" clip-rule="evenodd" d="M28.8622 16.8784C27.8735 15.1282 24.5539 12.8879 20.175 14.0081C16.9261 14.7781 16.8555 16.3884 16.8555 16.5283C17.2086 17.7886 18.9037 20.3088 20.7401 21.219C24.5539 22.8992 30.9105 20.1688 28.8622 16.8784Z" fill="url(#paint11_radial)"/>
<path opacity="0.5" fill-rule="evenodd" clip-rule="evenodd" d="M16.7848 19.609C16.7848 19.609 18.9035 16.4586 21.8699 15.4785L23 15.5485C23.2119 20.1691 20.9518 21.8493 18.2679 21.9193C16.7141 21.9193 16.361 21.0791 16.7848 19.609Z" fill="url(#paint12_radial)"/>
<path opacity="0.6" fill-rule="evenodd" clip-rule="evenodd" d="M23.353 15.6176C25.5425 16.8079 27.2375 18.9781 27.5907 20.4483C27.5907 20.4483 27.8025 21.2884 27.9438 22.3385C27.9438 22.3385 31.7577 20.7283 29.3563 16.9479C26.955 13.0974 23.353 15.6176 23.353 15.6176Z" fill="url(#paint13_radial)"/>
<path fill-rule="evenodd" clip-rule="evenodd" d="M24.0592 15.1973C24.2005 15.6174 23.706 16.0375 22.8585 16.0375C22.0816 16.0375 21.5166 15.6174 21.5166 15.1973C21.5166 14.7772 21.9404 14.4272 22.7172 14.4272C23.3529 14.4272 23.918 14.7072 24.0592 15.1973Z" fill="#AA955E"/>
<path fill-rule="evenodd" clip-rule="evenodd" d="M24.0592 14.9175C24.2005 15.3376 23.706 15.7577 22.8585 15.7577C22.0816 15.7577 21.5166 15.3376 21.5166 14.9175C21.5166 14.4975 21.9404 14.1475 22.7172 14.1475C23.4235 14.2175 23.918 14.4975 24.0592 14.9175Z" fill="url(#paint14_radial)"/>
<path fill-rule="evenodd" clip-rule="evenodd" d="M23.7771 14.6378C23.6358 14.4278 23.1415 14.0777 22.5765 14.2177C22.082 14.3577 22.082 14.5678 22.082 14.5678C22.1527 14.7778 22.3645 15.1278 22.647 15.2678C23.1415 15.5479 24.0596 15.1278 23.7771 14.6378Z" fill="url(#paint15_radial)"/>
<path opacity="0.7" fill-rule="evenodd" clip-rule="evenodd" d="M12.8296 21.2895C14.1715 24.4398 20.4574 25.9801 20.4574 25.9801C21.87 21.9196 17.7735 18.2791 16.4316 16.6689C15.796 15.8988 15.7254 15.1287 15.8666 14.6387C15.231 15.1987 14.666 15.8988 14.1715 16.5989C13.2534 18.2091 12.9709 19.8893 12.8296 21.2895Z" fill="url(#paint16_linear)"/>
<path opacity="0.7" fill-rule="evenodd" clip-rule="evenodd" d="M14.1009 16.5982C13.5359 17.7884 13.1828 19.0485 13.0415 20.1686C13.6066 21.3589 15.0191 22.829 15.796 22.969C18.1267 23.3191 21.1638 15.6881 21.2344 13.3778C21.2344 13.0278 21.1638 12.8177 21.0225 12.6777C19.3274 12.8177 17.8442 13.3778 16.7848 14.0079C15.6547 14.5679 14.8072 15.6181 14.1009 16.5982Z" fill="url(#paint17_linear)"/>
<path fill-rule="evenodd" clip-rule="evenodd" d="M35.4304 24.2998C35.501 24.4398 35.501 24.5098 35.4304 24.5798C35.2891 24.5798 35.2891 24.5798 35.1479 24.7199C34.3709 25.6999 31.899 29.2704 26.1075 30.9506C23.2824 31.7907 20.6691 32.7008 18.9034 33.751C18.6915 33.891 18.3384 34.171 18.4796 34.3111C18.409 34.451 18.2678 34.4511 18.0558 34.4511C18.0558 34.4511 17.9146 34.171 18.5503 33.751C19.1859 33.3309 21.8698 32.0008 25.9662 30.8806C25.9662 30.8806 31.6164 29.4804 34.9359 24.7199C34.9359 24.6498 35.2184 24.0897 35.4304 24.2998Z" fill="#D17111"/>
<path d="M21.1635 31.0192L22.4348 32.2794L21.0222 32.7694L19.7509 31.5093L21.1635 31.0192ZM21.1635 30.3892H20.9516L18.8328 30.9492C18.7621 31.0192 18.7621 31.2993 18.8328 31.3693L20.5984 33.2595C20.6691 33.3295 20.7397 33.3996 20.8104 33.3996H21.0222L23.1411 32.6294C23.2117 32.5594 23.2823 32.3494 23.1411 32.2094L21.3047 30.4592C21.3754 30.4592 21.3047 30.3892 21.1635 30.3892Z" fill="#5F6672"/>
<path d="M21.1635 30.8093L22.3641 32.0695L21.0222 32.5596L19.7509 31.2993L21.1635 30.8093ZM21.1635 30.1792H20.9516L18.8328 30.9493C18.7621 31.0193 18.7621 31.0893 18.8328 31.2293L20.5984 33.1196C20.6691 33.1896 20.7397 33.2596 20.8104 33.2596H21.0222L23.1411 32.4896C23.2117 32.4195 23.2117 32.3495 23.1411 32.2095L21.3753 30.3193C21.446 30.2493 21.3047 30.1792 21.1635 30.1792Z" fill="url(#paint18_linear)"/>
<path fill-rule="evenodd" clip-rule="evenodd" d="M22.9999 32.0705C23.1412 32.2106 23.3531 32.3506 23.1412 32.4206L21.1636 33.1206H20.9518C20.8811 33.1206 20.8105 33.0506 20.7398 32.9807L19.0448 31.2304C18.9035 31.0904 19.0448 31.0205 19.1154 30.9504L19.2567 30.8804C19.186 30.8804 19.186 31.0904 19.2567 31.2304L20.7398 32.8407C20.8105 32.9107 20.8811 32.9107 20.9518 32.9807H21.093L22.7881 32.3506C23.1412 32.2106 22.9999 32.0705 22.9999 32.0705Z" fill="url(#paint19_radial)"/>
<path fill-rule="evenodd" clip-rule="evenodd" d="M12.1938 23.1086C12.1938 26.1889 17.7027 29.9694 24.6243 29.2694C28.9326 28.8493 32.0402 26.1189 31.6871 23.4586C31.4751 21.7784 31.1926 20.5182 30.9808 20.4482C31.0514 22.6885 28.6501 25.2088 24.695 25.4889C19.4685 25.8389 13.7476 22.9685 12.8295 20.4482C12.9001 20.4482 12.1938 21.1483 12.1938 23.1086Z" fill="url(#paint20_linear)"/>
<path fill-rule="evenodd" clip-rule="evenodd" d="M14.4539 16.7375C10.3575 14.7073 6.33171 11.2768 4.56601 8.26643C3.85972 7.00629 2.30591 8.7565 4.2835 12.537C3.93035 12.747 3.7891 13.8671 4.42475 15.2673C4.63664 15.8274 4.98977 16.3875 5.34292 16.9475C5.34292 19.4678 8.02677 22.8282 10.64 24.9285C12.1938 26.1887 13.8182 27.0288 15.2308 27.4488C16.4315 27.7989 17.844 28.0089 18.8328 27.6589C18.8328 27.6589 19.9629 27.3788 20.2454 26.2586C21.0223 23.7384 19.9629 19.4678 14.4539 16.7375Z" fill="url(#paint21_linear)"/>
<g opacity="0.6">
<path opacity="0.6" fill-rule="evenodd" clip-rule="evenodd" d="M11.064 22.6896C10.0046 21.9195 9.0158 21.0094 8.1683 20.1693C7.32074 19.2591 6.47317 18.209 5.48438 17.0889C5.48438 18.3491 6.12003 19.8192 7.10882 21.2194C8.09764 22.6196 9.43959 24.0198 10.7815 25.0699C12.3353 26.3301 13.9598 27.1701 15.3723 27.5902C15.443 27.4502 14.5248 25.2799 11.064 22.6896Z" fill="#CECED5"/>
<path opacity="0.6" fill-rule="evenodd" clip-rule="evenodd" d="M6.33203 18.21C6.96768 18.98 7.53271 19.6102 8.09773 20.2402L8.5921 20.7302C9.01589 21.1503 9.43968 21.5003 9.93404 21.9204C10.3578 22.2704 10.8522 22.6204 11.276 22.9705C12.3354 23.8807 12.4061 24.3006 12.9711 25.0008C11.9116 24.5807 11.841 24.7207 10.711 23.9507C10.4285 23.7406 10.2165 23.5306 9.93404 23.3206C9.51025 22.9705 9.08654 22.5504 8.7334 22.2004C8.3096 21.7804 7.88585 21.3603 7.60334 20.8702C7.53271 20.8002 7.46208 20.6603 7.39145 20.5903C6.7558 19.6102 6.40266 18.77 6.33203 18.21Z" fill="#FDFDFF"/>
</g>
<g opacity="0.8">
<path opacity="0.8" fill-rule="evenodd" clip-rule="evenodd" d="M18.9037 27.7996C18.9037 27.7996 18.7624 27.3095 18.4799 26.6795C17.9149 25.4193 16.7142 23.2491 14.3835 21.8488C11.8409 20.3087 9.79267 18.7685 8.02699 17.1583C6.40258 15.5481 5.06065 14.0079 4.35437 12.6777C4.00123 12.8177 3.85997 14.0079 4.49562 15.4081C4.7075 15.8982 5.06065 16.4582 5.41379 17.0883C5.76692 17.5784 8.66267 21.0788 10.8521 22.619C12.9003 24.0191 14.1716 25.6993 14.8073 26.6795C15.0898 27.1695 15.3016 27.4495 15.3016 27.5196C16.573 27.9396 17.9149 28.0797 18.9037 27.7996Z" fill="#CECED5"/>
<path opacity="0.8" fill-rule="evenodd" clip-rule="evenodd" d="M4.84891 13.377C5.41394 14.4271 6.61461 15.7573 8.16846 17.1574C8.38032 17.3675 8.66282 17.5775 8.87467 17.7875C10.2166 18.9776 11.841 20.1679 13.5361 21.288C14.0306 21.638 14.4543 21.9881 14.8781 22.3381C16.22 23.5983 16.7144 24.7884 16.9263 25.3485C17.0676 25.7686 17.0676 26.0486 16.9969 26.0486C16.1493 26.1186 15.1606 25.9086 14.1012 25.5585C14.0306 25.4885 13.8893 25.2785 13.6774 24.9284C13.4656 24.6484 13.2536 24.3683 12.9005 24.0183C12.2648 23.3182 11.4173 22.4081 10.2873 21.638C9.5104 21.0779 8.66282 20.2379 7.81528 19.3977C6.82649 18.3476 5.97896 17.2274 5.69644 16.9474C5.55519 16.7374 5.34331 16.4574 5.27268 16.2474L4.91954 15.5472C4.49578 14.4271 4.49578 13.377 4.84891 13.377Z" fill="#F6F6F9"/>
</g>
<path fill-rule="evenodd" clip-rule="evenodd" d="M4.07176 8.75638C4.14239 8.61639 4.28364 8.54639 4.35427 8.54639C4.49553 8.54639 4.70741 8.68638 4.84867 8.82638C4.98993 9.10646 5.13118 9.31645 5.27243 9.52653C6.04935 10.6467 7.03814 11.8368 8.59194 13.1669C10.1457 14.5672 12.194 15.8273 14.0302 16.7374C14.8778 17.1574 15.7254 17.6475 16.4317 18.1376C18.4799 19.4677 19.5393 21.2179 19.9631 22.0581C20.5281 23.2482 20.2455 24.4383 19.7511 25.1384C19.4686 25.6985 18.9036 25.9085 18.5505 25.9085C18.1268 25.4885 16.1491 22.6181 13.7477 20.7278C11.6289 19.4677 9.79259 17.9275 8.2388 16.5274C7.03814 15.4072 6.04934 14.2871 5.34306 13.2369C5.13118 12.9569 4.98993 12.6769 4.84867 12.3969C4.4249 11.5567 4.14239 10.7167 4.07176 10.0165C3.93051 9.59653 3.93051 9.03646 4.07176 8.75638Z" fill="#E4E4E7"/>
<path fill-rule="evenodd" clip-rule="evenodd" d="M4.70753 9.38648C4.77816 9.31648 4.84879 9.31648 4.99004 9.38648C5.06067 9.45656 5.20193 9.59656 5.34319 9.80656C5.48444 9.94655 5.62569 10.1566 5.76695 10.2966C6.54385 11.3468 7.10888 12.0468 8.73335 13.517C10.0753 14.7072 11.9116 15.8273 13.6067 16.6674C14.3836 17.0875 15.0898 17.4375 15.7961 17.7875C17.4205 18.6277 18.6919 20.0278 19.2569 21.0079C19.9632 22.1981 19.8925 23.3182 19.1156 23.3882C18.7625 23.5983 18.2681 23.5283 17.8443 23.3882C16.8555 22.8282 14.8779 20.8679 12.8297 19.3277C11.2053 18.2076 9.58085 16.9475 8.3802 15.8273C7.3914 14.9172 6.54385 13.9371 5.97883 13.167C5.83758 12.957 5.69632 12.6769 5.55506 12.4669C5.20193 11.7668 4.91942 11.1368 4.84879 10.5066C4.56627 10.0166 4.56627 9.59656 4.70753 9.38648Z" fill="#F9F9FC"/>
<g opacity="0.5">
<path opacity="0.5" fill-rule="evenodd" clip-rule="evenodd" d="M14.1716 16.6675C10.1458 14.6372 6.33188 11.2768 4.63681 8.26643C3.93053 7.00629 2.37671 8.7565 4.35429 12.537C4.00116 12.747 3.8599 13.8671 4.49555 15.2673C4.63681 15.8274 4.98995 16.3875 5.34309 16.9475C5.34309 19.4678 8.02696 22.8282 10.6402 24.9285C12.194 26.1887 13.8184 27.0288 15.231 27.4488C16.4317 27.7989 17.8442 28.0089 18.833 27.6589C18.833 27.6589 19.9631 27.3788 20.2456 26.2586C21.0931 23.5983 19.8924 19.4678 14.1716 16.6675Z" fill="#9B9BB1"/>
<path opacity="0.5" fill-rule="evenodd" clip-rule="evenodd" d="M11.0641 24.2979C13.0416 25.138 10.0047 22.1276 9.36898 21.4275C10.0753 21.9876 13.4654 24.4379 15.3018 24.1579C16.4318 24.0179 12.5473 20.7975 10.7816 19.0473C11.4878 19.5373 15.6549 22.5477 17.8444 23.3177C20.0338 24.0879 20.7401 21.5675 17.9856 18.6272C17.1381 17.9271 16.008 17.087 14.8074 16.5269C10.9228 14.8467 7.25018 12.1864 5.27263 9.52608C4.14259 7.91587 2.94191 9.80608 5.06075 13.5866C4.63699 13.5166 4.4251 14.2866 4.91949 15.6868C5.202 16.3869 5.62578 17.2271 6.12017 17.9271C5.83766 18.4872 6.9677 20.6575 7.03833 20.7975C7.8152 22.3377 10.4991 24.0179 11.0641 24.2979Z" fill="#BDBDD0"/>
<path opacity="0.5" fill-rule="evenodd" clip-rule="evenodd" d="M10.4987 23.529C12.0525 24.2291 9.22745 21.3588 8.23866 20.2386C9.50995 21.4988 12.1938 22.969 13.6063 22.899C14.8776 22.829 11.0637 20.0286 7.95612 16.8082C8.80366 17.7884 13.677 20.7987 16.5727 21.9188C18.9034 22.759 19.8922 20.6587 17.7734 18.8385C16.9965 18.2784 15.9371 17.5083 14.9483 17.0183C11.77 15.5481 9.01552 14.1479 6.75546 11.7676C4.70725 9.80738 4.35411 11.6276 6.68483 15.5481C6.04918 14.988 5.62541 14.988 5.97855 16.3881C6.26107 17.5083 6.96735 18.6985 7.74423 19.8186C6.75546 18.9085 7.60298 20.7987 7.88549 21.2188C8.59173 22.4089 9.93366 23.2491 10.4987 23.529Z" fill="#E6E6EC"/>
<path opacity="0.5" fill-rule="evenodd" clip-rule="evenodd" d="M10.2164 23.1778C11.6289 23.878 8.87442 21.0077 7.67378 19.6774C9.29821 21.2876 11.5583 22.2678 12.8296 22.2678C14.1715 22.2678 10.4283 19.6774 6.54371 15.687C7.46189 16.8771 12.759 19.8875 15.8666 21.2176C18.268 22.1278 19.398 20.1675 17.6323 18.9074C16.8554 18.4173 15.796 17.6472 15.0191 17.2272C11.9821 15.8969 9.79264 15.1969 7.39126 13.0266C4.84864 10.7163 4.91927 12.6066 7.32063 16.457C6.61434 15.687 6.04932 15.2669 6.33183 16.7371C6.61434 18.0672 7.46189 19.4674 8.45071 20.7976C7.10874 19.1174 7.81503 20.9376 8.23877 21.4976C8.94506 22.4778 9.58071 22.8979 10.2164 23.1778Z" fill="white"/>
</g>
<path fill-rule="evenodd" clip-rule="evenodd" d="M14.5248 27.3787C13.2534 26.9586 11.6997 26.1885 10.2165 24.9984C7.67388 22.9681 5.62569 18.7676 5.69632 16.3173C5.34318 15.8272 13.0416 15.5472 16.2905 17.5074C23.4239 21.988 22.4351 30.039 14.5248 27.3787Z" fill="url(#paint22_linear)"/>
<path d="M9.58075 2.94678C7.9563 2.94678 6.33186 3.50685 5.13118 4.55698C4.42491 5.18706 3.85988 5.88715 3.43612 6.79726C3.08297 7.56735 2.87109 8.47744 2.87109 9.38758V9.59758C2.87109 10.4377 3.01234 11.2078 3.29486 11.9779C3.648 12.818 4.14239 13.5881 4.77805 14.2882C5.48433 14.9883 6.40249 15.5483 7.32065 15.8984C7.74442 16.0384 8.16817 15.7583 8.30946 15.3384C8.38011 14.9883 8.16817 14.6382 7.81505 14.4982C6.89688 14.2182 6.11997 13.6581 5.48433 12.888C4.70742 11.9779 4.28365 10.7877 4.28365 9.52758C4.28365 8.33744 4.70742 7.1473 5.48433 6.23719C6.47312 5.04704 7.9563 4.41697 9.43946 4.41697C10.2164 4.41697 11.0639 4.62699 11.7702 4.97704C12.5471 5.32708 13.1828 5.88715 13.6771 6.58723C14.1716 7.28732 14.4541 8.05741 14.5954 8.89751C14.8072 10.5077 14.2422 12.1179 13.1121 13.3081C12.8296 13.5881 12.8296 14.0081 13.1121 14.2182L16.361 17.4386C16.5023 17.5786 16.7141 17.6486 16.8554 17.6486C17.0673 17.6486 17.2086 17.5786 17.3498 17.4386C17.6324 17.1586 17.6324 16.6685 17.3498 16.3884L14.6659 13.7281L14.7366 13.6581C15.6547 12.4679 16.0785 11.0678 16.0785 9.59758C16.0785 8.68752 15.8666 7.77737 15.5135 6.93727C15.1604 6.09717 14.5954 5.32708 13.8891 4.697C12.8296 3.57686 11.2052 2.94678 9.58075 2.94678ZM9.22761 15.1983C9.22761 15.7583 9.72196 16.2484 10.287 16.2484C10.852 16.2484 11.3465 15.7583 11.3465 15.1983C11.3465 14.6382 10.852 14.1481 10.287 14.1481C9.72196 14.1481 9.22761 14.6382 9.22761 15.1983Z" fill="white"/>
<defs>
<radialGradient id="paint0_radial" cx="0" cy="0" r="1" gradientUnits="userSpaceOnUse" gradientTransform="translate(23.4918 32.8602) scale(21.4725 21.2843)">
<stop stop-color="#FCF6D9"/>
<stop offset="0.1245" stop-color="#F8F0C9"/>
<stop offset="0.3681" stop-color="#EFE29E"/>
<stop offset="0.564" stop-color="#E7D577"/>
<stop offset="0.7778" stop-color="#DCCB60"/>
<stop offset="1" stop-color="#B6A466"/>
</radialGradient>
<radialGradient id="paint1_radial" cx="0" cy="0" r="1" gradientUnits="userSpaceOnUse" gradientTransform="translate(-2.90037 60.7) scale(35.9136 35.5986)">
<stop stop-color="#FCF6D9"/>
<stop offset="0.1245" stop-color="#F8F0C9"/>
<stop offset="0.3681" stop-color="#EFE29E"/>
<stop offset="0.564" stop-color="#E7D577"/>
<stop offset="0.7778" stop-color="#DCCB60"/>
<stop offset="1" stop-color="#B6A466"/>
</radialGradient>
<linearGradient id="paint2_linear" x1="13.5741" y1="4.79208" x2="31.8571" y2="18.5452" gradientUnits="userSpaceOnUse">
<stop offset="0.1522" stop-color="#DDDDE8"/>
<stop offset="0.7534" stop-color="#B8B8C3"/>
<stop offset="1" stop-color="#CFCFD6"/>
</linearGradient>
<linearGradient id="paint3_linear" x1="22.5605" y1="11.4813" x2="18.6952" y2="16.2297" gradientUnits="userSpaceOnUse">
<stop stop-color="#E1E1EA"/>
<stop offset="0.2013" stop-color="#D5D5DF"/>
<stop offset="0.6958" stop-color="#BDBDC8"/>
<stop offset="1" stop-color="#B4B4C0"/>
</linearGradient>
<linearGradient id="paint4_linear" x1="7.92636" y1="25.3408" x2="16.0912" y2="24.2222" gradientUnits="userSpaceOnUse">
<stop stop-color="#958D60" stop-opacity="0.4"/>
<stop offset="1" stop-color="#958D60"/>
</linearGradient>
<radialGradient id="paint5_radial" cx="0" cy="0" r="1" gradientUnits="userSpaceOnUse" gradientTransform="translate(20.1299 13.4104) scale(12.7289 12.6173)">
<stop stop-color="#FCF6D9"/>
<stop offset="0.1324" stop-color="#F8F0C9"/>
<stop offset="0.3917" stop-color="#EFE29E"/>
<stop offset="0.6" stop-color="#E7D577"/>
<stop offset="0.9" stop-color="#C4AC54"/>
</radialGradient>
<radialGradient id="paint6_radial" cx="0" cy="0" r="1" gradientUnits="userSpaceOnUse" gradientTransform="translate(19.1847 10.796) scale(13.2659 13.1495)">
<stop stop-color="#D4B94E"/>
<stop offset="0.3718" stop-color="#E0CD7F" stop-opacity="0.785"/>
<stop offset="0.5834" stop-color="#EDE2B6" stop-opacity="0.521"/>
<stop offset="0.7663" stop-color="#F7F2DE" stop-opacity="0.292"/>
<stop offset="0.9112" stop-color="#FDFBF6" stop-opacity="0.111"/>
<stop offset="1" stop-color="white" stop-opacity="0"/>
</radialGradient>
<linearGradient id="paint7_linear" x1="16.7708" y1="28.9084" x2="35.4157" y2="29.7138" gradientUnits="userSpaceOnUse">
<stop offset="0.00343" stop-color="#00215E"/>
<stop offset="1"/>
</linearGradient>
<radialGradient id="paint8_radial" cx="0" cy="0" r="1" gradientUnits="userSpaceOnUse" gradientTransform="translate(19.1738 30.2842) rotate(1.406) scale(7.40445 7.33667)">
<stop stop-color="#FFAE15"/>
<stop offset="0.01421" stop-color="#FFAD14"/>
<stop offset="0.3295" stop-color="#FF9A0A"/>
<stop offset="0.6541" stop-color="#FF8F04"/>
<stop offset="1" stop-color="#FF8B02"/>
</radialGradient>
<linearGradient id="paint9_linear" x1="17.8853" y1="33.4927" x2="17.6382" y2="35.2451" gradientUnits="userSpaceOnUse">
<stop stop-color="#7B4917" stop-opacity="0"/>
<stop offset="0.8" stop-color="#7B4917"/>
</linearGradient>
<linearGradient id="paint10_linear" x1="34.5057" y1="24.2687" x2="35.4523" y2="23.6173" gradientUnits="userSpaceOnUse">
<stop stop-color="#7B4917" stop-opacity="0"/>
<stop offset="0.8" stop-color="#7B4917"/>
</linearGradient>
<radialGradient id="paint11_radial" cx="0" cy="0" r="1" gradientUnits="userSpaceOnUse" gradientTransform="translate(16.109 17.3549) rotate(1.66485) scale(5.82342 5.76955)">
<stop stop-color="white" stop-opacity="0.7"/>
<stop offset="1" stop-color="white" stop-opacity="0"/>
</radialGradient>
<radialGradient id="paint12_radial" cx="0" cy="0" r="1" gradientUnits="userSpaceOnUse" gradientTransform="translate(17.2382 14.7818) scale(6.92227 6.86157)">
<stop offset="0.2" stop-color="#D4B94E"/>
<stop offset="0.2888" stop-color="#D6BD57" stop-opacity="0.889"/>
<stop offset="0.4337" stop-color="#DCC66F" stop-opacity="0.708"/>
<stop offset="0.6166" stop-color="#E6D697" stop-opacity="0.479"/>
<stop offset="0.8282" stop-color="#F3EBCE" stop-opacity="0.215"/>
<stop offset="1" stop-color="white" stop-opacity="0"/>
</radialGradient>
<radialGradient id="paint13_radial" cx="0" cy="0" r="1" gradientUnits="userSpaceOnUse" gradientTransform="translate(23.8103 17.872) scale(4.91484 4.87175)">
<stop offset="0.1295" stop-color="#D4B94E"/>
<stop offset="1" stop-color="#D4B94E" stop-opacity="0"/>
</radialGradient>
<radialGradient id="paint14_radial" cx="0" cy="0" r="1" gradientUnits="userSpaceOnUse" gradientTransform="translate(22.7097 13.9622) scale(1.75041 1.73506)">
<stop stop-color="#E7D577"/>
<stop offset="0.7567" stop-color="#E7D577"/>
<stop offset="0.9333" stop-color="#DCCB60"/>
<stop offset="1" stop-color="#D6C25C"/>
</radialGradient>
<radialGradient id="paint15_radial" cx="0" cy="0" r="1" gradientUnits="userSpaceOnUse" gradientTransform="translate(16.46 15.0072) rotate(1.62904) scale(0.838398 0.830695)">
<stop stop-color="white" stop-opacity="0.7"/>
<stop offset="1" stop-color="white" stop-opacity="0"/>
</radialGradient>
<linearGradient id="paint16_linear" x1="12.8303" y1="20.3172" x2="20.77" y2="20.3172" gradientUnits="userSpaceOnUse">
<stop stop-color="#958D60" stop-opacity="0.7"/>
<stop offset="1" stop-color="#958D60" stop-opacity="0.9"/>
</linearGradient>
<linearGradient id="paint17_linear" x1="14.1106" y1="14.79" x2="19.2217" y2="17.1525" gradientUnits="userSpaceOnUse">
<stop offset="0.2" stop-color="#D4B94E"/>
<stop offset="0.2888" stop-color="#D6BD57" stop-opacity="0.889"/>
<stop offset="0.4337" stop-color="#DCC66F" stop-opacity="0.708"/>
<stop offset="0.6166" stop-color="#E6D697" stop-opacity="0.479"/>
<stop offset="0.8282" stop-color="#F3EBCE" stop-opacity="0.215"/>
<stop offset="1" stop-color="white" stop-opacity="0"/>
</linearGradient>
<linearGradient id="paint18_linear" x1="20.8309" y1="30.162" x2="21.0631" y2="33.5463" gradientUnits="userSpaceOnUse">
<stop stop-color="#E4E4E6"/>
<stop offset="1" stop-color="#BEBEBF"/>
</linearGradient>
<radialGradient id="paint19_radial" cx="0" cy="0" r="1" gradientUnits="userSpaceOnUse" gradientTransform="translate(19.5893 33.8051) rotate(30.5982) scale(3.73503 3.01956)">
<stop stop-color="white"/>
<stop offset="1" stop-color="white"/>
</radialGradient>
<linearGradient id="paint20_linear" x1="12.2051" y1="24.9117" x2="31.7308" y2="24.9117" gradientUnits="userSpaceOnUse">
<stop/>
<stop offset="0.1157" stop-color="#101112"/>
<stop offset="0.5204" stop-color="#45474B"/>
<stop offset="0.7152" stop-color="#595C61"/>
<stop offset="0.7942" stop-color="#505156"/>
<stop offset="0.9317" stop-color="#37353A"/>
<stop offset="1" stop-color="#292529"/>
</linearGradient>
<linearGradient id="paint21_linear" x1="2.53876" y1="9.77318" x2="21.8668" y2="24.7751" gradientUnits="userSpaceOnUse">
<stop offset="0.1522" stop-color="#DDDDE8"/>
<stop offset="0.7534" stop-color="#B8B8C3"/>
<stop offset="1" stop-color="#CFCFD6"/>
</linearGradient>
<linearGradient id="paint22_linear" x1="12.5177" y1="22.1186" x2="10.7818" y2="25.7065" gradientUnits="userSpaceOnUse">
<stop stop-color="#ECECEF" stop-opacity="0"/>
<stop offset="1" stop-color="#C1C1CE"/>
</linearGradient>
</defs>
</svg>
