<svg width="147" height="53" viewBox="0 0 147 53" fill="none" xmlns="http://www.w3.org/2000/svg">
<g clip-path="url(#clip0)">
<path d="M26.8762 52.7396C41.3125 52.7396 53.0155 41.0366 53.0155 26.6003C53.0155 12.164 41.3125 0.460938 26.8762 0.460938C12.4398 0.460938 0.736816 12.164 0.736816 26.6003C0.736816 41.0366 12.4398 52.7396 26.8762 52.7396Z" fill="white"/>
<path d="M2.86914 26.5322C2.86914 13.3247 13.7376 2.59365 26.8761 2.66244C40.152 2.73123 50.8829 13.4623 50.8141 26.601C50.8141 39.8084 40.0145 50.5396 26.8761 50.5396C13.6 50.5396 2.86914 39.7396 2.86914 26.5322ZM40.84 24.1245C40.84 23.987 40.84 23.8494 40.84 23.7806C40.84 22.4737 40.84 21.1667 40.84 19.8596C40.84 19.2406 40.4961 18.8966 39.9457 18.8966C39.3954 18.8966 39.1203 19.2406 39.1203 19.8596C39.1203 22.4049 39.0515 24.9501 39.1203 27.4952C39.189 30.522 41.9406 32.5169 44.8297 31.8289C47.2372 31.2098 48.6818 28.871 48.0627 26.2571C47.7188 24.6749 46.8245 23.5055 45.2424 23.024C43.729 22.5425 42.2845 22.8864 41.1151 23.987C41.0463 23.987 40.9776 23.987 40.84 24.1245ZM29.2148 29.0086C29.0772 28.6647 29.0084 28.5271 28.9397 28.3207C28.4582 26.8762 28.0454 25.4316 27.5639 23.9182C27.4952 23.7806 27.4952 23.7118 27.4264 23.5743C27.22 22.9552 26.7385 22.68 26.257 22.8176C25.8442 22.9552 25.7066 23.3679 25.913 23.987C26.6697 26.3947 27.4952 28.7335 28.3206 31.1411C28.4582 31.5538 28.7333 31.8289 29.2148 31.8289C29.6964 31.8289 29.9028 31.5538 30.0403 31.1411C30.1779 30.5908 30.3843 30.0404 30.5218 29.4901C30.8658 28.1832 31.2785 26.9449 31.6912 25.5004C32.2415 27.4264 32.723 29.1462 33.2046 30.9347C33.3421 31.4162 33.4797 31.7601 34.03 31.8289C34.5803 31.8289 34.8554 31.485 34.993 31.0035C35.7496 28.7335 36.5063 26.5322 37.263 24.2622C37.3318 23.987 37.4006 23.7806 37.4006 23.5055C37.4006 23.024 37.1255 22.7488 36.6439 22.8176C36.0936 22.8864 35.956 23.2303 35.8184 23.643C35.2681 25.294 34.7866 26.8762 34.2364 28.5271C34.1676 28.6647 34.0988 28.8022 34.03 29.0774C33.9612 28.7335 33.8924 28.5959 33.8236 28.3895C33.4109 26.8074 32.9981 25.1564 32.5854 23.5743C32.4478 23.0928 32.2415 22.8176 31.6912 22.7488C31.1409 22.7488 30.9345 23.0928 30.797 23.5055C30.7282 23.7806 30.6594 24.0558 30.5218 24.331C30.1091 25.9131 29.6964 27.4264 29.2148 29.0086ZM18.3464 27.9079C18.5527 27.9079 18.7591 27.9079 18.9655 27.9079C20.8227 27.9079 22.6113 27.9079 24.4685 27.9079C25.0876 27.9079 25.3627 27.6328 25.3627 27.0825C25.4315 24.1245 23.024 22.1985 20.1349 22.8864C17.9336 23.4367 16.6955 25.2252 16.8331 27.7016C16.9018 29.4901 17.8649 30.8659 19.5158 31.5538C21.3042 32.2417 22.9552 32.0353 24.4685 30.9347C24.6061 30.7971 24.7436 30.4532 24.6748 30.2468C24.6061 30.0404 24.3309 29.7653 24.0558 29.6965C23.8494 29.6277 23.5055 29.7653 23.2991 29.834C22.8864 29.9716 22.5425 30.1781 22.1297 30.3156C20.3412 30.7971 18.5527 29.6965 18.3464 27.9079ZM7.75308 23.7118C7.47792 22.9552 7.20276 22.7488 6.72125 22.8176C6.23974 22.8864 5.96459 23.2303 5.96459 23.9182C5.96459 24.8813 5.96459 25.8443 5.96459 26.7386C5.96459 28.1143 5.96459 29.4901 5.96459 30.7971C5.96459 31.485 6.37731 31.8289 6.92762 31.7601C7.40913 31.6913 7.6843 31.3474 7.6843 30.7283C7.6843 29.2838 7.6843 27.8392 7.6843 26.4634C7.6843 26.1194 7.75309 25.7067 7.95944 25.3628C8.37217 24.5373 9.54157 24.0558 10.5734 24.2622C11.6739 24.4686 12.3619 25.0876 12.5682 26.0506C12.637 26.4634 12.637 26.8074 12.637 27.2201C12.637 28.4583 12.637 29.6965 12.637 30.8659C12.637 31.4162 12.981 31.7601 13.5312 31.7601C14.0128 31.7601 14.3567 31.4162 14.3567 30.8659C14.3567 29.4213 14.4255 27.9079 14.3567 26.4634C14.2879 24.6749 13.3249 23.3679 11.7427 22.8864C10.367 22.5425 8.99128 22.7488 7.75308 23.7118Z" fill="#EC2227"/>
<path d="M46.5496 27.2884C46.5496 29.0081 45.3115 30.3151 43.6606 30.3151C42.0097 30.3151 40.7715 29.0081 40.7715 27.2884C40.7715 25.5687 42.0097 24.2617 43.6606 24.2617C45.3115 24.3305 46.5496 25.5687 46.5496 27.2884Z" fill="#EC2227"/>
<path d="M18.3467 26.4636C18.4843 25.0182 19.7225 24.1233 21.3733 24.261C22.6116 24.3298 23.5746 25.2935 23.5746 26.4636C21.8549 26.4636 20.1352 26.4636 18.3467 26.4636Z" fill="#EC2227"/>
<path d="M68.6661 33.4797V24.1925C68.6661 23.821 68.6661 23.4495 68.6661 23.078L76.4853 33.4797H77.9339V20.4775H76.3738V29.7462C76.3738 30.1177 76.3738 30.4892 76.3738 30.8607L68.5547 20.4775H67.106V33.4797H68.6661Z" fill="#444444"/>
<path d="M80.1973 29.0222C80.1973 32.198 82.5003 33.7024 85.1378 33.7024C86.3074 33.7024 87.4778 33.4796 88.295 33.0524V31.6037C87.5336 32.0309 86.4562 32.3281 85.3601 32.3281C83.5592 32.3281 81.8691 31.548 81.6832 29.6722H88.7776C89.3353 27.1463 88.0719 24.3418 84.6359 24.3418C82.5189 24.3418 80.1973 25.9019 80.1973 29.0222ZM87.4593 28.372H81.6832C81.7947 26.6263 83.206 25.7162 84.7288 25.7162C86.9945 25.7162 87.5894 27.4249 87.4593 28.372Z" fill="#444444"/>
<path d="M102.32 24.5635L100.017 31.844L97.4722 24.5635H96.1352L93.5907 31.844L91.2879 24.5635H89.7271L92.7735 33.4784H94.3893L96.8037 26.5879L99.2181 33.4784H100.834L103.88 24.5635H102.32Z" fill="#444444"/>
<path d="M105.586 20.4775V33.4794H106.923V31.9935C107.721 32.9037 108.818 33.7023 110.526 33.7023C113.071 33.7023 114.983 31.6963 114.983 29.0217C114.983 26.347 113.071 24.341 110.526 24.341C108.818 24.341 107.721 25.1396 107.072 25.9012V20.4775H105.586ZM113.498 29.0217C113.498 31.0648 112.086 32.3278 110.359 32.3278C108.762 32.3278 107.573 31.2877 107.072 30.1361V27.9072C107.573 26.7556 108.762 25.7155 110.359 25.7155C112.086 25.7155 113.498 26.9785 113.498 29.0217Z" fill="#444444"/>
<path d="M118.644 33.4767V24.5627H117.157V33.4767H118.644ZM118.866 21.7215C118.866 21.1086 118.421 20.7744 117.9 20.7744C117.38 20.7744 116.935 21.1086 116.935 21.7215C116.935 22.3529 117.38 22.6686 117.9 22.6686C118.421 22.6686 118.866 22.3529 118.866 21.7215Z" fill="#444444"/>
<path d="M128.106 24.5635V30.5447C127.511 31.4364 126.527 32.328 125.208 32.328C123.648 32.328 122.812 31.5478 122.812 29.876V24.5635H121.327V30.0618C121.327 32.2351 122.719 33.7026 125.041 33.7026C126.471 33.7026 127.66 32.941 128.255 32.1608V33.4796H129.592V24.5635H128.106Z" fill="#444444"/>
<path d="M133.824 33.4796V27.332C134.307 26.7006 135.235 25.7162 136.554 25.7162C137.854 25.7162 138.634 26.5891 138.634 27.9449V33.4796H140.12V27.982C140.12 27.7035 140.101 27.4435 140.064 27.1834C140.566 26.5519 141.458 25.7162 142.664 25.7162C143.965 25.7162 144.745 26.5891 144.745 27.9449V33.4796H146.231V27.982C146.231 25.9019 145.042 24.3418 142.832 24.3418C141.476 24.3418 140.38 25.029 139.582 25.8462C139.043 24.9175 138.059 24.3418 136.721 24.3418C135.217 24.3418 134.159 25.2333 133.675 25.7533V24.5647H132.338V33.4796H133.824Z" fill="#444444"/>
</g>
<defs>
<clipPath id="clip0">
<rect width="145.494" height="52.5393" fill="white" transform="translate(0.736816 0.460938)"/>
</clipPath>
</defs>
</svg>
