<svg width="147" height="21" viewBox="0 0 147 21" fill="none" xmlns="http://www.w3.org/2000/svg">
<g clip-path="url(#clip0)">
<path d="M61.2935 13.1383C61.4602 13.1383 61.5435 13.0583 61.5435 12.8984V6.84703C61.5435 6.68709 61.4602 6.60711 61.2935 6.60711V6.36719H63.5446V6.60711C63.4743 6.60711 63.4392 6.65154 63.4392 6.7404C63.4392 6.81149 63.5269 6.9359 63.7025 7.11363L67.4808 11.0857V6.84703C67.4808 6.68709 67.3666 6.60711 67.1382 6.60711V6.36719H69.1266V6.60711C68.9593 6.60711 68.8764 6.68709 68.8764 6.84703V12.8984C68.8764 13.0583 68.9593 13.1383 69.1266 13.1383V13.3782H66.994V13.1383C67.1075 13.1383 67.1649 13.0983 67.1649 13.0184C67.1649 12.9561 67.0948 12.854 66.9544 12.7118L62.939 8.47321V12.8984C62.939 13.0583 63.0399 13.1383 63.2418 13.1383V13.3782H61.2935V13.1383Z" fill="#444444"/>
<path d="M76.0121 8.75299C76.0121 8.58409 75.8755 8.49967 75.6037 8.49967H72.3913V9.83263H74.4187C74.568 9.83263 74.6778 9.82374 74.7479 9.80595C74.8182 9.77928 74.8533 9.71712 74.8533 9.61932H75.0907V11.0322H74.8271C74.8533 10.9345 74.8182 10.8767 74.7218 10.8589C74.6255 10.8323 74.4889 10.819 74.3134 10.819H72.3913V12.3918H75.7619C75.8673 12.3918 75.9546 12.3696 76.0249 12.3252C76.095 12.2718 76.1301 12.2051 76.1301 12.1252H76.3675V13.5248H76.1301C76.1301 13.4447 76.095 13.4004 76.0249 13.3914C75.9546 13.3826 75.8673 13.3781 75.7619 13.3781H70.9307V13.1382C70.9741 13.1382 71.0181 13.1249 71.0621 13.0982C71.1061 13.0627 71.1279 13.0093 71.1279 12.9383V7.95322C71.1279 7.88213 71.1061 7.83322 71.0621 7.80661C71.0181 7.77103 70.9741 7.75327 70.9307 7.75327V7.51332H75.6037C75.8755 7.51332 76.0121 7.43338 76.0121 7.27344H76.2489V8.75299H76.0121Z" fill="#444444"/>
<path d="M79.3096 7.75313C79.1954 7.75313 79.1385 7.81532 79.1385 7.93975C79.1385 7.98417 79.1558 8.05527 79.1909 8.15297C79.226 8.24188 79.2701 8.3574 79.3224 8.49952L80.4812 11.7385H80.5074L81.6263 8.56619C81.67 8.44176 81.7096 8.32624 81.7443 8.21964C81.7888 8.10411 81.8106 8.01084 81.8106 7.93975C81.8106 7.81532 81.7403 7.75313 81.5996 7.75313V7.51318H83.4822V7.75313C83.3246 7.75313 83.2453 7.80647 83.2453 7.91308C83.2453 7.97526 83.2672 8.0686 83.3116 8.19296C83.3553 8.30848 83.3997 8.41958 83.4434 8.52619L84.6017 11.7385L85.8262 8.49952C85.8699 8.37516 85.9046 8.26848 85.9313 8.17963C85.9669 8.08193 85.9839 8.00193 85.9839 7.93975C85.9839 7.81532 85.9135 7.75313 85.7729 7.75313V7.51318H87.4453V7.75313C87.2957 7.75313 87.164 7.9175 87.05 8.2463L85.5361 12.3117C85.4835 12.4627 85.431 12.6005 85.3784 12.7248C85.3259 12.8403 85.2992 12.9203 85.2992 12.9648C85.2992 13.0803 85.3607 13.1381 85.4835 13.1381V13.3779H83.6406V13.1381C83.7109 13.1291 83.7546 13.1158 83.7723 13.0981C83.7901 13.0714 83.799 13.0225 83.799 12.9515C83.799 12.9159 83.7594 12.7826 83.6802 12.5515C83.601 12.3205 83.4959 12.0317 83.3642 11.6852C83.2413 11.3298 83.1055 10.9344 82.956 10.4989C82.8064 10.0635 82.6618 9.62362 82.5211 9.1793H82.4952C82.4783 9.25932 82.4298 9.40595 82.3506 9.61918C82.2713 9.8236 82.1792 10.0635 82.0741 10.3389C81.969 10.6055 81.8543 10.8899 81.7322 11.192C81.6174 11.4853 81.508 11.7608 81.4027 12.0184C81.3063 12.2672 81.2227 12.4805 81.1525 12.6582C81.0912 12.827 81.0606 12.9248 81.0606 12.9515C81.0606 13.0225 81.0734 13.0714 81.0996 13.0981C81.1263 13.1248 81.1787 13.1381 81.2578 13.1381V13.3779H79.6389V13.1381C79.674 13.1381 79.7046 13.1337 79.7308 13.1248C79.7569 13.1158 79.7703 13.0848 79.7703 13.0314C79.7703 12.9781 79.7524 12.9115 79.7174 12.8315C79.6912 12.7427 79.6695 12.676 79.6516 12.6315L77.914 8.00635C77.8617 7.86423 77.7691 7.7798 77.6377 7.75313V7.51318H79.3096V7.75313Z" fill="#444444"/>
<path d="M89.02 11.3381C89.02 11.3735 89.016 11.4135 89.0071 11.458C89.0071 11.4935 89.0071 11.5335 89.0071 11.578C89.0071 11.7112 89.0896 11.8356 89.2569 11.9511C89.4234 12.0578 89.6206 12.1511 89.8494 12.2311C90.0862 12.3021 90.319 12.3599 90.5469 12.4044C90.7838 12.4487 90.9689 12.471 91.0998 12.471C91.2227 12.471 91.3722 12.4621 91.5476 12.4443C91.7319 12.4266 91.9113 12.391 92.0875 12.3377C92.2629 12.2754 92.4117 12.1955 92.5353 12.0978C92.6574 11.9912 92.7188 11.8534 92.7188 11.6846C92.7188 11.489 92.6089 11.3469 92.3906 11.258C92.1797 11.1692 91.9113 11.1025 91.5872 11.0581C91.2623 11.0048 90.9115 10.9559 90.534 10.9115C90.1565 10.8582 89.8049 10.7782 89.4808 10.6716C89.1558 10.5561 88.8834 10.3961 88.6644 10.1917C88.4534 9.9785 88.3484 9.6808 88.3484 9.29872C88.3484 8.72993 88.5811 8.27677 89.0467 7.93912C89.5115 7.60141 90.1654 7.43262 91.0077 7.43262C91.4207 7.43262 91.7715 7.46813 92.0609 7.53922C92.3591 7.60141 92.6089 7.6725 92.8118 7.75251C93.013 7.83245 93.1755 7.90803 93.2984 7.97912C93.4301 8.04131 93.5271 8.0724 93.5877 8.0724C93.6581 8.0724 93.7106 8.06349 93.7454 8.04573C93.7809 8.01906 93.8246 7.9924 93.8779 7.96579L94.0226 8.1124L93.3638 9.36532L93.127 9.28538C93.1181 9.23203 93.1092 9.17869 93.1011 9.12542C93.0922 9.07207 93.0526 9.01872 92.9823 8.96546C92.8069 8.81439 92.5353 8.68551 92.1659 8.5789C91.7974 8.47229 91.3851 8.41896 90.9292 8.41896C90.7538 8.41896 90.5865 8.43229 90.4289 8.45896C90.2705 8.47672 90.1298 8.51223 90.0078 8.56557C89.8841 8.61891 89.7879 8.69 89.7176 8.77882C89.6473 8.85876 89.6125 8.96101 89.6125 9.08541C89.6125 9.28085 89.7176 9.42303 89.9286 9.51187C90.1476 9.59189 90.42 9.65857 90.7441 9.71184C91.0691 9.75629 91.4207 9.8052 91.7974 9.85846C92.1748 9.90292 92.5264 9.98286 92.8514 10.0984C93.1755 10.214 93.4431 10.3828 93.654 10.6049C93.8731 10.827 93.983 11.1336 93.983 11.5246C93.983 11.9156 93.8868 12.2355 93.6936 12.4843C93.5085 12.7331 93.2765 12.9286 92.9961 13.0708C92.7148 13.213 92.4028 13.3063 92.0609 13.3507C91.727 13.3952 91.411 13.4173 91.1135 13.4173C90.8145 13.4173 90.5162 13.3906 90.2179 13.3374C89.9286 13.2751 89.6602 13.2085 89.4145 13.1374C89.1777 13.0575 88.9764 12.9863 88.8091 12.9242C88.6426 12.853 88.5415 12.8176 88.5068 12.8176C88.4453 12.8176 88.392 12.8442 88.3484 12.8975L88.1641 12.7642L88.7695 11.2714L89.02 11.3381Z" fill="#444444"/>
<path d="M99.9981 10.6592L98.8923 8.17992L97.6548 10.6592H99.9981ZM95.0352 13.1383C95.1491 13.1206 95.2364 13.0628 95.2987 12.9651C95.369 12.8673 95.4345 12.7562 95.4959 12.6318L97.9313 7.44686C97.9927 7.33134 98.0453 7.22467 98.0889 7.12697C98.1423 7.02919 98.1681 6.94478 98.1681 6.87369C98.1681 6.78484 98.1374 6.72263 98.076 6.68709C98.0145 6.65154 97.9491 6.62488 97.8787 6.60711V6.36719H100.104V6.60711C100.042 6.62488 99.9803 6.65154 99.9189 6.68709C99.8583 6.71374 99.8267 6.77594 99.8267 6.87369C99.8267 6.94478 99.8405 7.01587 99.8663 7.08697C99.9011 7.15806 99.9496 7.25134 100.011 7.36686L102.75 12.7918C102.793 12.8895 102.851 12.9607 102.92 13.005C102.999 13.0495 103.087 13.094 103.184 13.1383V13.3782H100.867V13.1383C100.902 13.1383 100.946 13.125 100.998 13.0983C101.051 13.0716 101.077 13.0317 101.077 12.9784C101.077 12.8895 101.042 12.774 100.972 12.6318L100.472 11.6455H97.2604L96.7859 12.5918C96.6978 12.7785 96.655 12.9118 96.655 12.9917C96.655 13.0894 96.7374 13.1383 96.9047 13.1383V13.3782H95.0352V13.1383Z" fill="#444444"/>
<path d="M109.928 8.68628C109.928 8.64185 109.898 8.60185 109.836 8.56633C109.774 8.52191 109.669 8.49967 109.52 8.49967H105.952V9.91257H108.27C108.419 9.91257 108.511 9.89923 108.546 9.87256C108.581 9.83707 108.603 9.78373 108.612 9.7126H108.848V11.1122H108.612C108.603 11.0411 108.581 10.9878 108.546 10.9523C108.511 10.9166 108.419 10.8989 108.27 10.8989H105.952V12.9383C105.952 13.0093 105.983 13.0627 106.044 13.0982C106.106 13.1249 106.176 13.1382 106.255 13.1382V13.3781H104.439V13.1382C104.606 13.1382 104.688 13.0716 104.688 12.9383V7.95322C104.688 7.81988 104.597 7.75327 104.412 7.75327V7.51332H109.52C109.669 7.51332 109.774 7.49114 109.836 7.44672C109.898 7.4023 109.928 7.34454 109.928 7.27344H110.165V8.68628H109.928Z" fill="#444444"/>
<path d="M116.94 8.68628C116.94 8.64185 116.909 8.60185 116.848 8.56633C116.787 8.52191 116.681 8.49967 116.532 8.49967H112.965V9.91257H115.282C115.43 9.91257 115.523 9.89923 115.558 9.87256C115.594 9.83707 115.615 9.78373 115.623 9.7126H115.86V11.1122H115.623C115.615 11.0411 115.594 10.9878 115.558 10.9523C115.523 10.9166 115.43 10.8989 115.282 10.8989H112.965V12.9383C112.965 13.0093 112.996 13.0627 113.056 13.0982C113.118 13.1249 113.188 13.1382 113.267 13.1382V13.3781H111.45V13.1382C111.617 13.1382 111.701 13.0716 111.701 12.9383V7.95322C111.701 7.81988 111.609 7.75327 111.424 7.75327V7.51332H116.532C116.681 7.51332 116.787 7.49114 116.848 7.44672C116.909 7.4023 116.94 7.34454 116.94 7.27344H117.177V8.68628H116.94Z" fill="#444444"/>
<path d="M118.258 13.1381C118.398 13.1381 118.495 13.1248 118.548 13.0981C118.6 13.0625 118.626 13.0092 118.626 12.9381V7.95308C118.626 7.88199 118.6 7.83308 118.548 7.80647C118.495 7.77089 118.398 7.75313 118.258 7.75313V7.51318H120.258V7.75313C120.013 7.75313 119.891 7.81974 119.891 7.95308V12.9381C119.891 13.0714 120.013 13.1381 120.258 13.1381V13.3779H118.258V13.1381Z" fill="#444444"/>
<path d="M121.844 13.1381C122.003 13.1381 122.081 13.0714 122.081 12.9381V7.95308C122.081 7.81974 122.003 7.75313 121.844 7.75313V7.51318H123.78V7.75313C123.718 7.76198 123.687 7.78422 123.687 7.81974C123.687 7.86423 123.784 7.98417 123.977 8.17963L127.136 11.5652V7.95308C127.136 7.81974 127.049 7.75313 126.873 7.75313V7.51318H128.479V7.75313C128.321 7.75313 128.243 7.81974 128.243 7.95308V12.9381C128.243 13.0714 128.321 13.1381 128.479 13.1381V13.3779H126.768V13.1381C126.83 13.1381 126.861 13.1158 126.861 13.0714C126.861 13.0359 126.816 12.9737 126.729 12.8848C126.65 12.7959 126.557 12.6938 126.452 12.5782L123.187 9.05935V12.9381C123.187 13.0714 123.28 13.1381 123.463 13.1381V13.3779H121.844V13.1381Z" fill="#444444"/>
<path d="M130.064 13.1381C130.205 13.1381 130.301 13.1248 130.354 13.0981C130.406 13.0625 130.433 13.0092 130.433 12.9381V7.95308C130.433 7.88199 130.406 7.83308 130.354 7.80647C130.301 7.77089 130.205 7.75313 130.064 7.75313V7.51318H132.065V7.75313C131.819 7.75313 131.697 7.81974 131.697 7.95308V12.9381C131.697 13.0714 131.819 13.1381 132.065 13.1381V13.3779H130.064V13.1381Z" fill="#444444"/>
<path d="M135.423 13.1376C135.466 13.1376 135.511 13.1243 135.554 13.0976C135.598 13.0621 135.62 13.0088 135.62 12.9377V8.4991H133.909C133.839 8.4991 133.772 8.51693 133.711 8.55244C133.65 8.58803 133.619 8.64578 133.619 8.72572H133.382V7.19287H133.619C133.619 7.31731 133.65 7.40174 133.711 7.44616C133.772 7.49058 133.839 7.51276 133.909 7.51276H138.595C138.666 7.51276 138.731 7.49058 138.793 7.44616C138.855 7.40174 138.885 7.31731 138.885 7.19287H139.122V8.72572H138.885C138.885 8.64578 138.855 8.58803 138.793 8.55244C138.731 8.51693 138.666 8.4991 138.595 8.4991H136.884V12.9377C136.884 13.0709 136.963 13.1376 137.121 13.1376V13.3775H135.423V13.1376Z" fill="#444444"/>
<path d="M140.03 7.97975C139.968 7.89974 139.894 7.84198 139.806 7.80647C139.718 7.77089 139.635 7.75313 139.556 7.75313V7.51318H141.728V7.75313C141.684 7.75313 141.636 7.77089 141.583 7.80647C141.531 7.83308 141.504 7.87308 141.504 7.92641C141.504 7.97975 141.522 8.02859 141.557 8.07303C141.592 8.11745 141.631 8.17078 141.676 8.23297L143.005 9.99245L144.176 8.33958C144.256 8.22406 144.313 8.1397 144.348 8.08636C144.392 8.02417 144.413 7.96641 144.413 7.91308C144.413 7.84198 144.392 7.79756 144.348 7.7798C144.304 7.76198 144.26 7.75313 144.216 7.75313V7.51318H146.23V7.75313C146.125 7.75313 146.006 7.81532 145.875 7.93975C145.753 8.05527 145.643 8.17521 145.546 8.29964L143.531 10.9388V12.9381C143.531 13.0714 143.615 13.1381 143.782 13.1381V13.3779H142.03V13.1381C142.189 13.1381 142.268 13.0714 142.268 12.9381V10.8855L140.03 7.97975Z" fill="#444444"/>
<path d="M24.4009 16.3943C24.7105 16.3943 24.8653 16.2458 24.8653 15.9487V4.71048C24.8653 4.41343 24.7105 4.2649 24.4009 4.2649V3.81934H28.5815V4.2649C28.4511 4.2649 28.3859 4.34741 28.3859 4.51243C28.3859 4.64446 28.5489 4.8755 28.8748 5.20555L35.8916 12.5822V4.71048C35.8916 4.41343 35.6796 4.2649 35.2559 4.2649V3.81934H38.9476V4.2649C38.6378 4.2649 38.483 4.41343 38.483 4.71048V15.9487C38.483 16.2458 38.6378 16.3943 38.9476 16.3943V16.8399H34.9869V16.3943C35.1988 16.3943 35.3047 16.32 35.3047 16.1716C35.3047 16.0561 35.1744 15.8663 34.9136 15.6022L27.4569 7.73043V15.9487C27.4569 16.2458 27.6443 16.3943 28.0191 16.3943V16.8399H24.4009V16.3943Z" fill="#444444"/>
<path fill-rule="evenodd" clip-rule="evenodd" d="M23.2104 19.8857L18.4284 19.7344C17.7396 19.7127 17.1923 19.1453 17.1923 18.4529V17.4103H5.25031V16.0774H17.1923V10.5555H0.736816V9.22249H17.1923V4.65246H5.25031V3.31957H17.1923V2.0866C17.1923 1.39422 17.7396 0.82691 18.4284 0.805113L23.2104 0.653809V1.22505L21.5744 1.43652C19.9827 1.64224 18.7909 3.00352 18.7909 4.61562V15.9238C18.7909 17.536 19.9827 18.8972 21.5744 19.103L23.2104 19.3145V19.8857Z" fill="#444444"/>
<path fill-rule="evenodd" clip-rule="evenodd" d="M39.1016 19.8857L43.8835 19.7344C44.5724 19.7127 45.1196 19.1453 45.1196 18.4529V17.4103H57.0615V16.0774H45.1196V10.5555H61.5751V9.22249H45.1196V4.65246H57.0615V3.31957H45.1196V2.0866C45.1196 1.39422 44.5724 0.82691 43.8835 0.805113L39.1016 0.653809V1.22505L40.7375 1.43652C42.3291 1.64224 43.521 3.00352 43.521 4.61562V15.9238C43.521 17.536 42.3291 18.8972 40.7375 19.103L39.1016 19.3145V19.8857Z" fill="#444444"/>
</g>
<defs>
<clipPath id="clip0">
<rect width="145.494" height="19.3991" fill="white" transform="translate(0.736816 0.653809)"/>
</clipPath>
</defs>
</svg>
