<svg width="147" height="41" viewBox="0 0 147 41" fill="none" xmlns="http://www.w3.org/2000/svg">
<g clip-path="url(#clip0)">
<path fill-rule="evenodd" clip-rule="evenodd" d="M63.9296 31.5055C63.384 31.2515 62.8808 30.814 62.4199 30.1933V23.2795C62.9373 22.5928 63.4969 22.0614 64.0989 21.6851C64.7103 21.3089 65.4251 21.1208 66.2434 21.1208C67.4192 21.1208 68.3221 21.5346 68.9524 22.3624C69.592 23.1807 69.9117 24.4647 69.9117 26.2143C69.9117 28.0956 69.5544 29.5113 68.8395 30.4613C68.1247 31.4114 67.0947 31.8864 65.7497 31.8864C65.0912 31.8864 64.4845 31.7594 63.9296 31.5055ZM64.4516 19.738C63.6992 20.1519 63.0219 20.7068 62.4199 21.403V12.8525H59.8944V33.636H61.5169C61.8743 33.636 62.0907 33.4573 62.166 33.0998L62.293 31.8018C62.7727 32.4508 63.3323 32.954 63.9719 33.3114C64.6209 33.6595 65.4157 33.8335 66.3564 33.8335C67.3064 33.8335 68.1623 33.6501 68.9242 33.2832C69.6861 32.907 70.3304 32.385 70.857 31.7171C71.3932 31.0398 71.8023 30.2262 72.0845 29.2761C72.3667 28.3261 72.5078 27.2726 72.5078 26.1156C72.5078 25.0338 72.3808 24.0602 72.1269 23.1949C71.8823 22.3295 71.5249 21.5958 71.0546 20.9938C70.5843 20.3823 70.0105 19.9167 69.3333 19.5969C68.6655 19.2771 67.913 19.1172 67.0759 19.1172C66.0882 19.1172 65.2135 19.3241 64.4516 19.738ZM36.777 23.59C36.1844 23.7969 35.4977 23.9003 34.7171 23.9003H31.472V15.5757H34.7171C36.3349 15.5757 37.5389 15.9378 38.329 16.6621C39.1285 17.3864 39.5282 18.3929 39.5282 19.6816C39.5282 20.3024 39.4248 20.8715 39.2178 21.3888C39.0109 21.9062 38.7005 22.353 38.2866 22.7293C37.8821 23.0961 37.379 23.383 36.777 23.59ZM38.0468 13.8684C37.1062 13.5674 35.9963 13.4169 34.7171 13.4169H28.749V33.636H31.472V26.0732H34.7171C35.9399 26.0732 37.0169 25.918 37.948 25.6076C38.8886 25.2878 39.674 24.8457 40.3042 24.2813C40.9438 23.7169 41.4282 23.0444 41.7574 22.2636C42.0867 21.4829 42.2512 20.6222 42.2512 19.6816C42.2512 18.7315 42.096 17.8709 41.7857 17.0995C41.4846 16.3282 41.0237 15.6698 40.403 15.1242C39.7822 14.5786 38.9968 14.16 38.0468 13.8684ZM86.2147 18.7208V33.636H83.7033V18.7208H86.2147ZM106.703 19.6957C105.96 20.0814 105.282 20.5987 104.671 21.2478V12.8525H102.145V33.636H104.671V23.1102C105.217 22.4988 105.809 22.0143 106.449 21.6569C107.098 21.2995 107.794 21.1208 108.537 21.1208C109.544 21.1208 110.291 21.4218 110.78 22.0238C111.279 22.6164 111.528 23.4535 111.528 24.5353V33.636H114.053V24.5353C114.053 23.7263 113.95 22.9879 113.743 22.32C113.536 21.6522 113.23 21.0831 112.826 20.6128C112.431 20.1331 111.932 19.7662 111.331 19.5123C110.738 19.2489 110.051 19.1172 109.271 19.1172C108.302 19.1172 107.446 19.31 106.703 19.6957ZM86.2147 13.2785V16.2839H83.7033V13.2785H86.2147ZM78.1856 29.9888C78.1856 30.6472 78.2985 31.1175 78.5243 31.3997C78.75 31.6818 79.0698 31.8229 79.4837 31.8229C79.7283 31.8229 79.9916 31.8041 80.2738 31.7665C80.556 31.7289 80.8757 31.6442 81.2332 31.5125L81.4871 33.2903C81.1862 33.4408 80.7629 33.563 80.2174 33.6571C79.6906 33.7512 79.2297 33.7982 78.8347 33.7982C77.9882 33.7982 77.2921 33.563 76.7465 33.0927C76.201 32.6036 75.9282 31.7853 75.9282 30.6378V13.7071H78.1856V29.9888ZM96.8656 29.6219C96.8656 29.0575 96.6967 28.6155 96.358 28.2957C96.0193 27.9759 95.5958 27.7125 95.0882 27.5056C94.5992 27.2798 94.0536 27.0729 93.4514 26.8848C92.8686 26.6778 92.323 26.4239 91.8146 26.1229C91.3256 25.8031 90.9117 25.3986 90.573 24.9095C90.2344 24.4204 90.0654 23.762 90.0654 22.9343C90.0654 21.5798 90.451 20.5922 91.2221 19.9714C91.9932 19.3318 93.0658 19.012 94.4391 19.012C95.4551 19.012 96.3014 19.1061 96.9788 19.2942C97.6747 19.4635 98.2769 19.6704 98.7845 19.915L98.2486 21.7774C97.8162 21.5704 97.2892 21.3917 96.6684 21.2412C96.0662 21.0719 95.4172 20.9872 94.7212 20.9872C93.8935 20.9872 93.2824 21.1284 92.8872 21.4106C92.5105 21.6927 92.323 22.1818 92.323 22.8779C92.323 23.367 92.4919 23.7526 92.8306 24.0348C93.1693 24.2981 93.5831 24.5427 94.0722 24.7685C94.5806 24.9754 95.1254 25.1823 95.709 25.3892C96.3111 25.5962 96.8567 25.869 97.3458 26.2076C97.8534 26.5462 98.2769 26.9788 98.6156 27.5056C98.9543 28.0135 99.1232 28.6907 99.1232 29.5373C99.1232 30.1393 99.0197 30.7036 98.8128 31.2303C98.6245 31.7571 98.3238 32.2086 97.91 32.5848C97.4961 32.961 96.9788 33.2526 96.358 33.4595C95.7558 33.6853 95.0413 33.7982 94.2136 33.7982C93.141 33.7982 92.2284 33.6947 91.4759 33.4877C90.7234 33.2808 90.0937 33.0363 89.5853 32.7541L90.2626 30.8353C90.6959 31.0798 91.2601 31.3056 91.956 31.5125C92.652 31.7194 93.3576 31.8229 94.0722 31.8229C94.8813 31.8229 95.5489 31.663 96.0759 31.3432C96.6021 31.0234 96.8656 30.4497 96.8656 29.6219ZM49.6087 34.0341H49.6632H51.9367C52.7174 34.0341 53.4087 33.9071 54.0107 33.6531C54.6033 33.3898 55.1018 33.0229 55.5063 32.5525C55.9107 32.0822 56.2164 31.5131 56.4234 30.8452C56.6208 30.1773 56.7196 29.4389 56.7196 28.6299V19.5148H54.2082V28.6299C54.2082 29.7117 53.9637 30.5489 53.4745 31.1415C52.9786 31.7311 52.4979 32.1918 51.4927 32.1965H50.0682C49.0523 32.1965 48.5694 31.7341 48.0708 31.1415C47.5817 30.5488 47.3371 29.7116 47.3371 28.6299V19.5147H44.8257V28.6299C44.8257 29.4389 44.9245 30.1773 45.1221 30.8452C45.329 31.5131 45.6347 32.0822 46.0392 32.5525C46.4436 33.0228 46.9421 33.3897 47.5347 33.6531C48.1367 33.9071 48.828 34.0341 49.6087 34.0341Z" fill="#00A2FF"/>
<path d="M131.603 24.1146C131.603 25.8829 131.411 27.4159 131.024 28.7138C130.649 30.0024 130.131 31.0699 129.473 31.9164C128.815 32.7629 128.034 33.393 127.131 33.8069C126.237 34.2207 125.277 34.4276 124.253 34.4276C123.218 34.4276 122.254 34.2207 121.36 33.8069C120.476 33.393 119.705 32.7629 119.046 31.9164C118.388 31.0699 117.87 30.0024 117.494 28.7138C117.118 27.4159 116.93 25.8829 116.93 24.1146C116.93 22.3464 117.118 20.8133 117.494 19.5154C117.87 18.2175 118.388 17.1453 119.046 16.2987C119.705 15.4429 120.476 14.808 121.36 14.3941C122.254 13.9804 123.218 13.7734 124.253 13.7734C125.277 13.7734 126.237 13.9804 127.131 14.3941C128.034 14.808 128.815 15.4429 129.473 16.2987C130.131 17.1453 130.649 18.2175 131.024 19.5154C131.411 20.8133 131.603 22.3464 131.603 24.1146ZM128.993 24.1146C128.993 22.5722 128.861 21.2789 128.598 20.2349C128.344 19.1815 127.996 18.335 127.554 17.6955C127.121 17.0559 126.618 16.5997 126.045 16.3269C125.471 16.0448 124.873 15.9037 124.253 15.9037C123.632 15.9037 123.034 16.0448 122.461 16.3269C121.887 16.5997 121.384 17.0559 120.951 17.6955C120.518 18.335 120.171 19.1815 119.907 20.2349C119.653 21.2789 119.526 22.5722 119.526 24.1146C119.526 25.6571 119.653 26.9503 119.907 27.9943C120.171 29.0383 120.518 29.8801 120.951 30.5197C121.384 31.1593 121.887 31.6201 122.461 31.9023C123.034 32.1751 123.632 32.3114 124.253 32.3114C124.873 32.3114 125.471 32.1751 126.045 31.9023C126.618 31.6201 127.121 31.1593 127.554 30.5197C127.996 29.8801 128.344 29.0383 128.598 27.9943C128.861 26.9503 128.993 25.6571 128.993 24.1146Z" fill="#3F4655"/>
<path d="M146.18 34.2158H143.767C143.56 34.2158 143.396 34.1641 143.273 34.0606C143.161 33.9478 143.066 33.8255 142.991 33.6938L139.394 28.0929C139.356 28.2246 139.314 28.3562 139.267 28.4879C139.229 28.6102 139.173 28.723 139.098 28.8265L135.768 33.6938C135.674 33.8255 135.57 33.9478 135.457 34.0606C135.354 34.1641 135.208 34.2158 135.02 34.2158H132.777L137.785 26.8796L132.974 19.9243H135.387C135.594 19.9243 135.744 19.9573 135.838 20.0231C135.932 20.089 136.017 20.183 136.092 20.3053L139.605 25.6663C139.681 25.3936 139.798 25.1302 139.958 24.8763L143.034 20.3617C143.118 20.23 143.208 20.1266 143.302 20.0513C143.405 19.9667 143.527 19.9243 143.669 19.9243H145.983L141.171 26.7527L146.18 34.2158Z" fill="#3F4655"/>
<path d="M16.8108 8.4165H10.7642V9.22273H16.8108V8.4165Z" fill="#8590A8"/>
<path d="M19.2295 12.4468H7.94238V13.2519H19.2295V12.4468Z" fill="#8590A8"/>
<path d="M21.6482 16.0747H5.12061V16.8798H21.6482V16.0747Z" fill="#8590A8"/>
<path d="M24.067 20.1069H3.5083V20.9132H24.067V20.1069Z" fill="#8590A8"/>
<path d="M25.276 23.7349H1.89551V24.54H25.276V23.7349Z" fill="#8590A8"/>
<path d="M25.2763 27.3608H1.49268V28.166H25.2763V27.3608Z" fill="#8590A8"/>
<path d="M24.4702 30.9907H2.70215V31.7959H24.4702V30.9907Z" fill="#8590A8"/>
<path d="M22.455 34.6167H4.31494V35.4218H22.455V34.6167Z" fill="#8590A8"/>
<path d="M6.73305 16.0747H5.12061V36.2303H6.73305V16.0747Z" fill="#00A8EC"/>
<path fill-rule="evenodd" clip-rule="evenodd" d="M24.4651 20.0256L13.6877 0.758301L2.79637 19.8878C1.46247 21.9186 0.686523 24.3488 0.686523 26.9602C0.686523 34.0844 6.46187 39.8598 13.5861 39.8598C20.7104 39.8598 26.4857 34.0844 26.4857 26.9602C26.4857 24.4076 25.7443 22.0282 24.4651 20.0256ZM13.6722 4.85919L4.5162 20.9407L4.48102 20.9943C3.35637 22.7066 2.70205 24.7539 2.70205 26.9602C2.70205 32.9712 7.57501 37.8442 13.5861 37.8442C19.5972 37.8442 24.4702 32.9712 24.4702 26.9602C24.4702 24.8034 23.845 22.7988 22.7665 21.1106L22.7349 21.061L13.6722 4.85919Z" fill="#3E4755"/>
</g>
<defs>
<clipPath id="clip0">
<rect width="145.494" height="39.6066" fill="white" transform="translate(0.686523 0.758301)"/>
</clipPath>
</defs>
</svg>
