<svg width="147" height="48" viewBox="0 0 147 48" fill="none" xmlns="http://www.w3.org/2000/svg">
<g clip-path="url(#clip0)">
<path d="M24.1438 47.5806C37.0712 47.5806 47.5509 37.1007 47.5509 24.1731C47.5509 11.2455 37.0712 0.765625 24.1438 0.765625C11.2165 0.765625 0.736816 11.2455 0.736816 24.1731C0.736816 37.1007 11.2165 47.5806 24.1438 47.5806Z" fill="#FF4500"/>
<path d="M39.8272 24.1722C39.7484 22.2808 38.1722 20.7834 36.2808 20.8622C35.4138 20.8622 34.6257 21.2562 34.074 21.808C31.3944 19.9953 28.242 18.9707 25.0895 18.8919L26.5869 11.5624L31.6309 12.587C31.7885 13.8479 32.8918 14.7937 34.2316 14.6361C35.4926 14.4785 36.4384 13.3751 36.2808 12.0353C36.1231 10.6955 35.0197 9.8286 33.68 9.98622C32.9706 10.065 32.2613 10.4591 31.8673 11.1684L26.1141 9.98622C25.72 9.90741 25.3259 10.1438 25.2471 10.5379L23.5133 18.6555C20.282 18.7343 17.0507 19.6801 14.3711 21.5715C13.0314 20.3105 10.8246 20.3105 9.56361 21.7292C8.30264 23.0689 8.30264 25.2757 9.72123 26.5366C9.95766 26.7731 10.2729 27.0095 10.667 27.1672C10.667 27.4824 10.667 27.8764 10.667 28.1917C10.667 33.472 16.8143 37.7279 24.3014 37.7279C31.7885 37.7279 37.9357 33.6297 37.9357 28.3493C37.9357 28.034 37.9357 27.64 37.9357 27.3248C39.118 26.6942 39.8272 25.5121 39.8272 24.1722ZM16.3414 26.5366C16.3414 25.2757 17.3659 24.1722 18.7058 24.1722C20.0455 24.1722 21.0701 25.1968 21.0701 26.5366C21.0701 27.7976 20.0455 28.9009 18.7058 28.9009C17.3659 28.9009 16.3414 27.7976 16.3414 26.5366ZM29.9758 32.9992C28.3208 34.2601 26.2717 34.8907 24.2226 34.8119C22.1735 34.8907 20.1243 34.2601 18.4694 32.9992C18.2329 32.7628 18.3117 32.3687 18.5482 32.1323C18.7846 31.9747 19.0998 31.9747 19.3363 32.1323C20.7549 33.1568 22.4887 33.7085 24.2226 33.6297C25.9565 33.7085 27.6903 33.2356 29.1089 32.2111C29.3453 31.9747 29.8182 31.9747 30.0546 32.2111C30.291 32.4475 30.291 32.9204 30.0546 33.1568V32.9992H29.9758ZM29.5818 28.9798C28.3208 28.9798 27.2174 27.9552 27.2174 26.6154C27.2174 25.3545 28.242 24.2511 29.5818 24.2511C30.8428 24.2511 31.9461 25.2757 31.9461 26.6154C32.0249 27.8764 31.0004 28.9798 29.6606 29.0586C29.5817 29.0586 29.5818 29.0586 29.5029 29.0586L29.5818 28.9798Z" fill="white"/>
<path d="M143.071 33.7883V20.3904H144.568C145.435 20.4692 146.144 19.8387 146.223 19.0506C146.223 18.9717 146.223 18.9717 146.223 18.8929V18.8141C146.302 17.9472 145.75 17.238 144.883 17.1591H144.805H143.071V14.6372C143.071 13.6914 142.361 12.8245 141.337 12.7457C140.312 12.6669 139.446 13.455 139.446 14.4007V17.0803H137.948C137.081 17.0015 136.372 17.632 136.293 18.4201C136.293 18.4989 136.293 18.4989 136.293 18.5777V18.6565C136.214 19.5235 136.766 20.2328 137.633 20.3116H137.712H139.446V33.8671C139.446 34.8917 140.234 35.6798 141.258 35.6798C142.283 35.7586 143.071 34.9705 143.149 33.9459C143.149 33.8671 143.149 33.8671 143.071 33.7883Z" fill="#444444"/>
<path d="M131.958 17.2361C133.743 17.2361 135.189 15.7896 135.189 14.0053C135.189 12.2209 133.743 10.7744 131.958 10.7744C130.173 10.7744 128.727 12.2209 128.727 14.0053C128.727 15.7896 130.173 17.2361 131.958 17.2361Z" fill="#FF4500"/>
<path d="M133.692 20.6263C133.692 19.6016 132.904 18.8135 131.879 18.8135C130.855 18.8135 130.067 19.6016 130.067 20.6263V33.8676C130.067 34.8922 130.855 35.6804 131.879 35.6804C132.904 35.6804 133.692 34.8922 133.692 33.8676V20.6263Z" fill="#444444"/>
<path d="M107.054 10.5382C107.054 9.51371 106.266 8.72559 105.241 8.72559C104.217 8.72559 103.429 9.51371 103.429 10.5382V18.577C102.246 17.3949 100.591 16.6856 98.8577 16.7644C94.1283 16.7644 90.2671 21.099 90.2671 26.3794C90.2671 31.6598 94.0499 35.9943 98.8577 35.9943C100.591 36.0732 102.325 35.3639 103.586 34.1029C103.822 35.0486 104.847 35.6003 105.793 35.3639C106.502 35.1274 107.054 34.497 107.054 33.7876V10.5382ZM98.7785 32.4479C96.0197 32.4479 93.7347 29.7683 93.7347 26.3794C93.7347 22.9905 95.9413 20.3109 98.7785 20.3109C101.616 20.3109 103.822 22.9905 103.822 26.3794C103.822 29.7683 101.616 32.369 98.7785 32.4479Z" fill="#444444"/>
<path d="M125.89 10.5382C125.89 9.51371 125.102 8.72559 124.077 8.72559C123.053 8.72559 122.265 9.51371 122.265 10.5382V18.577C121.082 17.3949 119.427 16.6856 117.694 16.7644C112.965 16.7644 109.103 21.099 109.103 26.3794C109.103 31.6598 112.886 35.9943 117.614 35.9943C119.427 36.0732 121.082 35.3639 122.343 34.1029C122.58 35.0486 123.604 35.6003 124.55 35.3639C125.259 35.1274 125.811 34.497 125.811 33.7876L125.89 10.5382ZM117.694 32.4479C114.935 32.4479 112.65 29.7683 112.65 26.3794C112.65 22.9905 114.856 20.3109 117.694 20.3109C120.531 20.3109 122.737 22.9905 122.737 26.3794C122.737 29.7683 120.452 32.369 117.694 32.4479Z" fill="#444444"/>
<path d="M86.484 27.6406C87.7449 27.7194 88.769 26.7736 88.9267 25.5126V25.2762C88.9267 24.8821 88.8483 24.4092 88.769 24.0151C87.981 19.9168 84.5134 16.9218 80.4152 16.7642C75.6865 16.7642 71.8247 21.099 71.8247 26.3796C71.8247 31.6602 75.6077 36.0738 80.3363 36.0738C82.858 36.1526 85.3014 35.128 86.9568 33.3153C87.6657 32.5271 87.5873 31.3449 86.8776 30.7144L86.72 30.5567C85.9319 30.0839 84.9862 30.1627 84.3557 30.7932C83.3308 31.8178 81.9123 32.4483 80.4152 32.5271C77.8144 32.2907 75.7653 30.3203 75.4501 27.7194H86.484V27.6406ZM80.4152 20.3896C82.7003 20.5472 84.5926 22.2024 85.0654 24.4092H75.6077C76.1594 22.2024 78.0509 20.5472 80.4152 20.3896Z" fill="#444444"/>
<path d="M71.9038 18.6558C71.9038 17.7889 71.2733 17.0009 70.4064 16.8433C67.9633 16.4492 65.5201 17.3161 63.865 19.2075V18.971C63.7862 17.9465 62.9193 17.2373 61.8947 17.3161C61.0278 17.3949 60.3186 18.1041 60.2397 18.971V33.7866C60.2397 34.7323 60.949 35.5992 61.9735 35.678C62.9981 35.7568 63.7862 34.9687 63.865 34.0231C63.865 33.9443 63.865 33.8655 63.865 33.7866V26.2212C63.7074 23.2266 65.993 20.6259 69.0666 20.4683C69.303 20.4683 69.6183 20.4683 69.8547 20.4683H70.2487C71.1945 20.3895 71.9038 19.6015 71.9038 18.6558Z" fill="#444444"/>
</g>
<defs>
<clipPath id="clip0">
<rect width="145.494" height="46.8813" fill="white" transform="translate(0.736816 0.765625)"/>
</clipPath>
</defs>
</svg>
