<svg width="146" height="48" viewBox="0 0 146 48" fill="none" xmlns="http://www.w3.org/2000/svg">
<g clip-path="url(#clip0)">
<path d="M24.4186 47.0718C37.8199 47.0718 48.6838 42.9102 48.6838 37.7766C48.6838 32.643 37.8199 28.4814 24.4186 28.4814C11.0172 28.4814 0.15332 32.643 0.15332 37.7766C0.15332 42.9102 11.0172 47.0718 24.4186 47.0718Z" fill="url(#paint0_radial)"/>
<path d="M24.4188 38.2654C34.7941 38.2654 43.2048 29.8546 43.2048 19.4794C43.2048 9.10418 34.7941 0.693359 24.4188 0.693359C14.0436 0.693359 5.63281 9.10418 5.63281 19.4794C5.63281 29.8546 14.0436 38.2654 24.4188 38.2654Z" fill="url(#paint1_radial)"/>
<path d="M24.4187 34.8402C32.9026 34.8402 39.7801 27.9626 39.7801 19.4787C39.7801 10.9947 32.9026 4.11719 24.4187 4.11719C15.9347 4.11719 9.05713 10.9947 9.05713 19.4787C9.05713 27.9626 15.9347 34.8402 24.4187 34.8402Z" fill="url(#paint2_radial)"/>
<path d="M24.4189 29.3621C29.8767 29.3621 34.3011 24.9377 34.3011 19.4799C34.3011 14.0221 29.8767 9.59766 24.4189 9.59766C18.9611 9.59766 14.5366 14.0221 14.5366 19.4799C14.5366 24.9377 18.9611 29.3621 24.4189 29.3621Z" fill="url(#paint3_radial)"/>
<path d="M20.2116 25.2534C20.9682 25.2534 21.5814 24.6398 21.5814 23.8831C21.5814 23.1263 20.9682 22.5127 20.2116 22.5127C19.4551 22.5127 18.8418 23.1263 18.8418 23.8831C18.8418 24.6398 19.4551 25.2534 20.2116 25.2534Z" fill="url(#paint4_linear)"/>
<path d="M25.6906 23.9804V23.6868C25.635 22.2695 25.0339 20.9284 24.0129 19.9438C22.9918 18.9592 21.6298 18.4073 20.2113 18.4033H19.3307C19.046 18.4058 18.7738 18.52 18.5725 18.7213C18.3712 18.9227 18.257 19.1949 18.2544 19.4796C18.257 19.7643 18.3712 20.0365 18.5725 20.2378C18.7738 20.4391 19.046 20.5533 19.3307 20.5558H20.1135C21.9725 20.5558 23.538 22.1213 23.538 23.9804V24.5675C23.5406 24.8521 23.6548 25.1244 23.8561 25.3257C24.0573 25.5269 24.3296 25.6411 24.6142 25.6437C24.9078 25.6437 25.2013 25.5459 25.397 25.3502C25.5927 25.1545 25.6906 24.861 25.6906 24.5675V23.9804Z" fill="url(#paint5_linear)"/>
<path d="M29.0175 24.8591V23.7829C28.724 19.1846 24.9081 15.4668 20.3094 15.4668H19.331C18.8417 15.4668 18.3525 15.8582 18.3525 16.4452C18.3525 16.9343 18.7439 17.4235 19.331 17.4235H20.2115C24.0275 17.5214 27.0607 20.5543 27.1585 24.2721V24.9569C27.1585 25.446 27.5498 25.9352 28.1369 25.9352C28.6262 25.7395 29.0175 25.3482 29.0175 24.8591Z" fill="url(#paint6_linear)"/>
<path d="M24.4188 23.0021C31.1195 23.0021 36.5514 18.8843 36.5514 13.8047C36.5514 8.7252 31.1195 4.60742 24.4188 4.60742C17.7181 4.60742 12.2861 8.7252 12.2861 13.8047C12.2861 18.8843 17.7181 23.0021 24.4188 23.0021Z" fill="url(#paint7_linear)"/>
<path d="M51.3257 13.5094V11.357H61.5993V13.5094H57.8812V25.25H55.1416V13.5094H51.3257ZM67.9592 25.4457C66.3936 25.4457 65.0238 24.9565 64.0454 23.8803C63.0669 22.804 62.5778 21.4343 62.5778 19.771C62.5778 18.1078 63.0669 16.7381 64.1432 15.6618C65.1216 14.6834 66.4914 14.0964 68.057 14.0964C69.6225 14.0964 70.9923 14.5856 72.0685 15.564C73.1449 16.5424 73.634 17.9121 73.634 19.5753C73.634 19.9667 73.634 20.3581 73.5362 20.6516H65.513C65.6109 21.3365 65.8066 21.9235 66.2958 22.4127C66.785 22.9019 67.3721 23.0976 68.057 23.0976C69.0354 23.0976 69.7204 22.7062 70.2095 21.9235H73.2427C72.9492 22.9997 72.2642 23.7824 71.3837 24.4673C70.4052 25.0543 69.329 25.4457 67.9592 25.4457ZM69.8182 17.1294C69.329 16.7381 68.7419 16.4446 68.057 16.4446C67.3721 16.4446 66.785 16.6402 66.2958 17.1294C65.7964 17.5887 65.483 18.2154 65.4152 18.8905H70.6009C70.6009 18.1078 70.3073 17.5207 69.8182 17.1294ZM76.0802 23.8803C75.1018 22.804 74.6125 21.4343 74.6125 19.771C74.6125 18.1078 75.1018 16.7381 76.0802 15.6618C77.0586 14.5856 78.4284 14.0964 79.9939 14.0964C81.364 14.0964 82.4398 14.39 83.3208 15.0748C84.2011 15.7597 84.7879 16.6403 85.0821 17.8143H82.0486C81.6574 16.9337 80.9723 16.4446 79.8961 16.4446C79.1133 16.4446 78.4284 16.7381 78.037 17.3251C77.5478 17.9121 77.3521 18.6949 77.3521 19.771C77.3521 20.7494 77.5478 21.63 78.037 22.217C78.2557 22.4998 78.538 22.7269 78.8611 22.8799C79.1841 23.0329 79.5387 23.1075 79.8961 23.0976C80.9723 23.0976 81.6574 22.6084 82.0486 21.7278H85.0821C84.7879 22.9019 84.1033 23.7824 83.223 24.4673C82.342 25.1522 81.1684 25.4457 79.8961 25.4457C78.4284 25.4457 77.0586 24.9565 76.0802 23.8803ZM89.6805 10.5742V15.9554C90.3652 14.7812 91.5396 14.1943 93.1053 14.1943C94.3767 14.1943 95.3556 14.5856 96.138 15.4661C96.9213 16.2489 97.3125 17.4229 97.3125 18.8905V25.3479H94.5723V19.2818C94.5723 18.4013 94.3767 17.7164 93.8877 17.3251C93.4965 16.8359 92.8111 16.6402 92.1264 16.6402C91.344 16.6402 90.7564 16.8359 90.3652 17.3251C89.8761 17.8143 89.6805 18.4013 89.6805 19.2818V25.3479H86.8426V10.6721H89.6805V10.5742ZM104.65 13.5094V11.357H114.924V13.5094H111.206V25.25H108.466V13.5094H104.65ZM117.37 23.8803C116.392 22.804 115.903 21.4343 115.903 19.771C115.903 18.1078 116.392 16.7381 117.37 15.6618C118.348 14.5856 119.621 14.0964 121.089 14.0964C122.556 14.0964 123.73 14.6834 124.512 15.9554V14.2921H127.253V25.3479H124.512V23.4889C123.632 24.8586 122.556 25.5435 120.991 25.5435C119.425 25.5435 118.348 24.8586 117.37 23.8803ZM123.632 22.1191C124.219 21.5321 124.512 20.7494 124.512 19.771C124.512 18.7927 124.219 18.01 123.632 17.4229C123.045 16.8359 122.36 16.5424 121.578 16.5424C120.795 16.5424 120.11 16.8359 119.523 17.4229C118.936 18.01 118.642 18.7927 118.642 19.771C118.642 20.7494 118.936 21.5321 119.523 22.1191C120.11 22.7062 120.795 22.9997 121.578 22.9997C122.36 22.9997 123.045 22.7062 123.632 22.1191ZM129.894 25.25V10.5742H132.732V25.25H129.894ZM138.113 25.25H135.276V10.5742H138.113V18.9884L141.831 14.2921H145.647L140.755 19.8689L145.647 25.3479H141.929L138.113 20.7494V25.25Z" fill="#444444"/>
</g>
<defs>
<radialGradient id="paint0_radial" cx="0" cy="0" r="1" gradientUnits="userSpaceOnUse" gradientTransform="translate(24.3785 37.7858) scale(17.2783 3.11009)">
<stop offset="0.289" stop-color="#8D8C8B"/>
<stop offset="0.782" stop-color="#C4C3C6" stop-opacity="0.5"/>
<stop offset="1" stop-color="#C4C3C6" stop-opacity="0"/>
</radialGradient>
<radialGradient id="paint1_radial" cx="0" cy="0" r="1" gradientUnits="userSpaceOnUse" gradientTransform="translate(24.4198 19.5205) scale(18.8271)">
<stop offset="0.458" stop-color="white"/>
<stop offset="0.932" stop-color="#FCFCFC"/>
<stop offset="1" stop-color="#C7C7C7"/>
</radialGradient>
<radialGradient id="paint2_radial" cx="0" cy="0" r="1" gradientUnits="userSpaceOnUse" gradientTransform="translate(24.3797 19.52) rotate(-3.48359) scale(15.3338)">
<stop offset="0.364" stop-color="#85AB5E"/>
<stop offset="0.482" stop-color="#197500"/>
<stop offset="0.66" stop-color="#68A54E"/>
<stop offset="0.915" stop-color="#447A2C"/>
<stop offset="1" stop-color="#197500"/>
</radialGradient>
<radialGradient id="paint3_radial" cx="0" cy="0" r="1" gradientUnits="userSpaceOnUse" gradientTransform="translate(24.4198 19.521) scale(9.91256)">
<stop offset="0.541" stop-color="white"/>
<stop offset="0.837" stop-color="#F5F5F5"/>
<stop offset="1" stop-color="#9E9E9E"/>
</radialGradient>
<linearGradient id="paint4_linear" x1="20.1725" y1="26.6452" x2="20.1725" y2="14.3153" gradientUnits="userSpaceOnUse">
<stop stop-color="#C9D778"/>
<stop offset="1" stop-color="#197500"/>
</linearGradient>
<linearGradient id="paint5_linear" x1="21.992" y1="26.6437" x2="21.992" y2="14.3183" gradientUnits="userSpaceOnUse">
<stop stop-color="#C9D778"/>
<stop offset="1" stop-color="#197500"/>
</linearGradient>
<linearGradient id="paint6_linear" x1="23.7075" y1="26.6416" x2="23.7075" y2="14.3172" gradientUnits="userSpaceOnUse">
<stop stop-color="#C9D778"/>
<stop offset="1" stop-color="#197500"/>
</linearGradient>
<linearGradient id="paint7_linear" x1="24.4197" y1="22.9267" x2="24.4197" y2="4.62601" gradientUnits="userSpaceOnUse">
<stop offset="0.677" stop-color="white" stop-opacity="0.1"/>
<stop offset="0.869" stop-color="#C7C7C7"/>
<stop offset="1" stop-color="#C7C7C7"/>
</linearGradient>
<clipPath id="clip0">
<rect width="145.494" height="46.8813" fill="white" transform="translate(0.15332 0.693359)"/>
</clipPath>
</defs>
</svg>
